<?xml version="1.0" encoding="utf-8" standalone="no"?>
<!DOCTYPE svg PUBLIC "-//W3C//DTD SVG 1.1//EN"
  "http://www.w3.org/Graphics/SVG/1.1/DTD/svg11.dtd">
<svg xmlns:xlink="http://www.w3.org/1999/xlink" width="720pt" height="360pt" viewBox="0 0 720 360" xmlns="http://www.w3.org/2000/svg" version="1.1">
 <metadata>
  <rdf:RDF xmlns:dc="http://purl.org/dc/elements/1.1/" xmlns:cc="http://creativecommons.org/ns#" xmlns:rdf="http://www.w3.org/1999/02/22-rdf-syntax-ns#">
   <cc:Work>
    <dc:type rdf:resource="http://purl.org/dc/dcmitype/StillImage"/>
    <dc:date>2024-05-20T13:30:29.509341</dc:date>
    <dc:format>image/svg+xml</dc:format>
    <dc:creator>
     <cc:Agent>
      <dc:title>Matplotlib v3.8.4, https://matplotlib.org/</dc:title>
     </cc:Agent>
    </dc:creator>
   </cc:Work>
  </rdf:RDF>
 </metadata>
 <defs>
  <style type="text/css">*{stroke-linejoin: round; stroke-linecap: butt}</style>
 </defs>
 <g id="figure_1">
  <g id="patch_1">
   <path d="M 0 360 
L 720 360 
L 720 0 
L 0 0 
z
" style="fill: #ffffff"/>
  </g>
  <g id="axes_1">
   <g id="patch_2">
    <path d="M 90 320.4 
L 648 320.4 
L 648 43.2 
L 90 43.2 
z
" style="fill: #ffffff"/>
   </g>
   <g id="matplotlib.axis_1">
    <g id="xtick_1">
     <g id="line2d_1">
      <path d="M 115.363636 320.4 
L 115.363636 43.2 
" clip-path="url(#peb82784237)" style="fill: none; stroke: #b0b0b0; stroke-width: 0.8; stroke-linecap: square"/>
     </g>
     <g id="line2d_2">
      <defs>
       <path id="mc3c682b629" d="M 0 0 
L 0 3.5 
" style="stroke: #000000; stroke-width: 0.8"/>
      </defs>
      <g>
       <use xlink:href="#mc3c682b629" x="115.363636" y="320.4" style="stroke: #000000; stroke-width: 0.8"/>
      </g>
     </g>
     <g id="text_1">
      <!-- 0 -->
      <g transform="translate(112.182386 334.998438) scale(0.1 -0.1)">
       <defs>
        <path id="DejaVuSans-30" d="M 2034 4250 
Q 1547 4250 1301 3770 
Q 1056 3291 1056 2328 
Q 1056 1369 1301 889 
Q 1547 409 2034 409 
Q 2525 409 2770 889 
Q 3016 1369 3016 2328 
Q 3016 3291 2770 3770 
Q 2525 4250 2034 4250 
z
M 2034 4750 
Q 2819 4750 3233 4129 
Q 3647 3509 3647 2328 
Q 3647 1150 3233 529 
Q 2819 -91 2034 -91 
Q 1250 -91 836 529 
Q 422 1150 422 2328 
Q 422 3509 836 4129 
Q 1250 4750 2034 4750 
z
" transform="scale(0.015625)"/>
       </defs>
       <use xlink:href="#DejaVuSans-30"/>
      </g>
     </g>
    </g>
    <g id="xtick_2">
     <g id="line2d_3">
      <path d="M 185.720464 320.4 
L 185.720464 43.2 
" clip-path="url(#peb82784237)" style="fill: none; stroke: #b0b0b0; stroke-width: 0.8; stroke-linecap: square"/>
     </g>
     <g id="line2d_4">
      <g>
       <use xlink:href="#mc3c682b629" x="185.720464" y="320.4" style="stroke: #000000; stroke-width: 0.8"/>
      </g>
     </g>
     <g id="text_2">
      <!-- 200 -->
      <g transform="translate(176.176714 334.998438) scale(0.1 -0.1)">
       <defs>
        <path id="DejaVuSans-32" d="M 1228 531 
L 3431 531 
L 3431 0 
L 469 0 
L 469 531 
Q 828 903 1448 1529 
Q 2069 2156 2228 2338 
Q 2531 2678 2651 2914 
Q 2772 3150 2772 3378 
Q 2772 3750 2511 3984 
Q 2250 4219 1831 4219 
Q 1534 4219 1204 4116 
Q 875 4013 500 3803 
L 500 4441 
Q 881 4594 1212 4672 
Q 1544 4750 1819 4750 
Q 2544 4750 2975 4387 
Q 3406 4025 3406 3419 
Q 3406 3131 3298 2873 
Q 3191 2616 2906 2266 
Q 2828 2175 2409 1742 
Q 1991 1309 1228 531 
z
" transform="scale(0.015625)"/>
       </defs>
       <use xlink:href="#DejaVuSans-32"/>
       <use xlink:href="#DejaVuSans-30" x="63.623047"/>
       <use xlink:href="#DejaVuSans-30" x="127.246094"/>
      </g>
     </g>
    </g>
    <g id="xtick_3">
     <g id="line2d_5">
      <path d="M 256.077292 320.4 
L 256.077292 43.2 
" clip-path="url(#peb82784237)" style="fill: none; stroke: #b0b0b0; stroke-width: 0.8; stroke-linecap: square"/>
     </g>
     <g id="line2d_6">
      <g>
       <use xlink:href="#mc3c682b629" x="256.077292" y="320.4" style="stroke: #000000; stroke-width: 0.8"/>
      </g>
     </g>
     <g id="text_3">
      <!-- 400 -->
      <g transform="translate(246.533542 334.998438) scale(0.1 -0.1)">
       <defs>
        <path id="DejaVuSans-34" d="M 2419 4116 
L 825 1625 
L 2419 1625 
L 2419 4116 
z
M 2253 4666 
L 3047 4666 
L 3047 1625 
L 3713 1625 
L 3713 1100 
L 3047 1100 
L 3047 0 
L 2419 0 
L 2419 1100 
L 313 1100 
L 313 1709 
L 2253 4666 
z
" transform="scale(0.015625)"/>
       </defs>
       <use xlink:href="#DejaVuSans-34"/>
       <use xlink:href="#DejaVuSans-30" x="63.623047"/>
       <use xlink:href="#DejaVuSans-30" x="127.246094"/>
      </g>
     </g>
    </g>
    <g id="xtick_4">
     <g id="line2d_7">
      <path d="M 326.434119 320.4 
L 326.434119 43.2 
" clip-path="url(#peb82784237)" style="fill: none; stroke: #b0b0b0; stroke-width: 0.8; stroke-linecap: square"/>
     </g>
     <g id="line2d_8">
      <g>
       <use xlink:href="#mc3c682b629" x="326.434119" y="320.4" style="stroke: #000000; stroke-width: 0.8"/>
      </g>
     </g>
     <g id="text_4">
      <!-- 600 -->
      <g transform="translate(316.890369 334.998438) scale(0.1 -0.1)">
       <defs>
        <path id="DejaVuSans-36" d="M 2113 2584 
Q 1688 2584 1439 2293 
Q 1191 2003 1191 1497 
Q 1191 994 1439 701 
Q 1688 409 2113 409 
Q 2538 409 2786 701 
Q 3034 994 3034 1497 
Q 3034 2003 2786 2293 
Q 2538 2584 2113 2584 
z
M 3366 4563 
L 3366 3988 
Q 3128 4100 2886 4159 
Q 2644 4219 2406 4219 
Q 1781 4219 1451 3797 
Q 1122 3375 1075 2522 
Q 1259 2794 1537 2939 
Q 1816 3084 2150 3084 
Q 2853 3084 3261 2657 
Q 3669 2231 3669 1497 
Q 3669 778 3244 343 
Q 2819 -91 2113 -91 
Q 1303 -91 875 529 
Q 447 1150 447 2328 
Q 447 3434 972 4092 
Q 1497 4750 2381 4750 
Q 2619 4750 2861 4703 
Q 3103 4656 3366 4563 
z
" transform="scale(0.015625)"/>
       </defs>
       <use xlink:href="#DejaVuSans-36"/>
       <use xlink:href="#DejaVuSans-30" x="63.623047"/>
       <use xlink:href="#DejaVuSans-30" x="127.246094"/>
      </g>
     </g>
    </g>
    <g id="xtick_5">
     <g id="line2d_9">
      <path d="M 396.790947 320.4 
L 396.790947 43.2 
" clip-path="url(#peb82784237)" style="fill: none; stroke: #b0b0b0; stroke-width: 0.8; stroke-linecap: square"/>
     </g>
     <g id="line2d_10">
      <g>
       <use xlink:href="#mc3c682b629" x="396.790947" y="320.4" style="stroke: #000000; stroke-width: 0.8"/>
      </g>
     </g>
     <g id="text_5">
      <!-- 800 -->
      <g transform="translate(387.247197 334.998438) scale(0.1 -0.1)">
       <defs>
        <path id="DejaVuSans-38" d="M 2034 2216 
Q 1584 2216 1326 1975 
Q 1069 1734 1069 1313 
Q 1069 891 1326 650 
Q 1584 409 2034 409 
Q 2484 409 2743 651 
Q 3003 894 3003 1313 
Q 3003 1734 2745 1975 
Q 2488 2216 2034 2216 
z
M 1403 2484 
Q 997 2584 770 2862 
Q 544 3141 544 3541 
Q 544 4100 942 4425 
Q 1341 4750 2034 4750 
Q 2731 4750 3128 4425 
Q 3525 4100 3525 3541 
Q 3525 3141 3298 2862 
Q 3072 2584 2669 2484 
Q 3125 2378 3379 2068 
Q 3634 1759 3634 1313 
Q 3634 634 3220 271 
Q 2806 -91 2034 -91 
Q 1263 -91 848 271 
Q 434 634 434 1313 
Q 434 1759 690 2068 
Q 947 2378 1403 2484 
z
M 1172 3481 
Q 1172 3119 1398 2916 
Q 1625 2713 2034 2713 
Q 2441 2713 2670 2916 
Q 2900 3119 2900 3481 
Q 2900 3844 2670 4047 
Q 2441 4250 2034 4250 
Q 1625 4250 1398 4047 
Q 1172 3844 1172 3481 
z
" transform="scale(0.015625)"/>
       </defs>
       <use xlink:href="#DejaVuSans-38"/>
       <use xlink:href="#DejaVuSans-30" x="63.623047"/>
       <use xlink:href="#DejaVuSans-30" x="127.246094"/>
      </g>
     </g>
    </g>
    <g id="xtick_6">
     <g id="line2d_11">
      <path d="M 467.147775 320.4 
L 467.147775 43.2 
" clip-path="url(#peb82784237)" style="fill: none; stroke: #b0b0b0; stroke-width: 0.8; stroke-linecap: square"/>
     </g>
     <g id="line2d_12">
      <g>
       <use xlink:href="#mc3c682b629" x="467.147775" y="320.4" style="stroke: #000000; stroke-width: 0.8"/>
      </g>
     </g>
     <g id="text_6">
      <!-- 1000 -->
      <g transform="translate(454.422775 334.998438) scale(0.1 -0.1)">
       <defs>
        <path id="DejaVuSans-31" d="M 794 531 
L 1825 531 
L 1825 4091 
L 703 3866 
L 703 4441 
L 1819 4666 
L 2450 4666 
L 2450 531 
L 3481 531 
L 3481 0 
L 794 0 
L 794 531 
z
" transform="scale(0.015625)"/>
       </defs>
       <use xlink:href="#DejaVuSans-31"/>
       <use xlink:href="#DejaVuSans-30" x="63.623047"/>
       <use xlink:href="#DejaVuSans-30" x="127.246094"/>
       <use xlink:href="#DejaVuSans-30" x="190.869141"/>
      </g>
     </g>
    </g>
    <g id="xtick_7">
     <g id="line2d_13">
      <path d="M 537.504602 320.4 
L 537.504602 43.2 
" clip-path="url(#peb82784237)" style="fill: none; stroke: #b0b0b0; stroke-width: 0.8; stroke-linecap: square"/>
     </g>
     <g id="line2d_14">
      <g>
       <use xlink:href="#mc3c682b629" x="537.504602" y="320.4" style="stroke: #000000; stroke-width: 0.8"/>
      </g>
     </g>
     <g id="text_7">
      <!-- 1200 -->
      <g transform="translate(524.779602 334.998438) scale(0.1 -0.1)">
       <use xlink:href="#DejaVuSans-31"/>
       <use xlink:href="#DejaVuSans-32" x="63.623047"/>
       <use xlink:href="#DejaVuSans-30" x="127.246094"/>
       <use xlink:href="#DejaVuSans-30" x="190.869141"/>
      </g>
     </g>
    </g>
    <g id="xtick_8">
     <g id="line2d_15">
      <path d="M 607.86143 320.4 
L 607.86143 43.2 
" clip-path="url(#peb82784237)" style="fill: none; stroke: #b0b0b0; stroke-width: 0.8; stroke-linecap: square"/>
     </g>
     <g id="line2d_16">
      <g>
       <use xlink:href="#mc3c682b629" x="607.86143" y="320.4" style="stroke: #000000; stroke-width: 0.8"/>
      </g>
     </g>
     <g id="text_8">
      <!-- 1400 -->
      <g transform="translate(595.13643 334.998438) scale(0.1 -0.1)">
       <use xlink:href="#DejaVuSans-31"/>
       <use xlink:href="#DejaVuSans-34" x="63.623047"/>
       <use xlink:href="#DejaVuSans-30" x="127.246094"/>
       <use xlink:href="#DejaVuSans-30" x="190.869141"/>
      </g>
     </g>
    </g>
    <g id="text_9">
     <!-- Episodes -->
     <g transform="translate(346.757812 348.676562) scale(0.1 -0.1)">
      <defs>
       <path id="DejaVuSans-45" d="M 628 4666 
L 3578 4666 
L 3578 4134 
L 1259 4134 
L 1259 2753 
L 3481 2753 
L 3481 2222 
L 1259 2222 
L 1259 531 
L 3634 531 
L 3634 0 
L 628 0 
L 628 4666 
z
" transform="scale(0.015625)"/>
       <path id="DejaVuSans-70" d="M 1159 525 
L 1159 -1331 
L 581 -1331 
L 581 3500 
L 1159 3500 
L 1159 2969 
Q 1341 3281 1617 3432 
Q 1894 3584 2278 3584 
Q 2916 3584 3314 3078 
Q 3713 2572 3713 1747 
Q 3713 922 3314 415 
Q 2916 -91 2278 -91 
Q 1894 -91 1617 61 
Q 1341 213 1159 525 
z
M 3116 1747 
Q 3116 2381 2855 2742 
Q 2594 3103 2138 3103 
Q 1681 3103 1420 2742 
Q 1159 2381 1159 1747 
Q 1159 1113 1420 752 
Q 1681 391 2138 391 
Q 2594 391 2855 752 
Q 3116 1113 3116 1747 
z
" transform="scale(0.015625)"/>
       <path id="DejaVuSans-69" d="M 603 3500 
L 1178 3500 
L 1178 0 
L 603 0 
L 603 3500 
z
M 603 4863 
L 1178 4863 
L 1178 4134 
L 603 4134 
L 603 4863 
z
" transform="scale(0.015625)"/>
       <path id="DejaVuSans-73" d="M 2834 3397 
L 2834 2853 
Q 2591 2978 2328 3040 
Q 2066 3103 1784 3103 
Q 1356 3103 1142 2972 
Q 928 2841 928 2578 
Q 928 2378 1081 2264 
Q 1234 2150 1697 2047 
L 1894 2003 
Q 2506 1872 2764 1633 
Q 3022 1394 3022 966 
Q 3022 478 2636 193 
Q 2250 -91 1575 -91 
Q 1294 -91 989 -36 
Q 684 19 347 128 
L 347 722 
Q 666 556 975 473 
Q 1284 391 1588 391 
Q 1994 391 2212 530 
Q 2431 669 2431 922 
Q 2431 1156 2273 1281 
Q 2116 1406 1581 1522 
L 1381 1569 
Q 847 1681 609 1914 
Q 372 2147 372 2553 
Q 372 3047 722 3315 
Q 1072 3584 1716 3584 
Q 2034 3584 2315 3537 
Q 2597 3491 2834 3397 
z
" transform="scale(0.015625)"/>
       <path id="DejaVuSans-6f" d="M 1959 3097 
Q 1497 3097 1228 2736 
Q 959 2375 959 1747 
Q 959 1119 1226 758 
Q 1494 397 1959 397 
Q 2419 397 2687 759 
Q 2956 1122 2956 1747 
Q 2956 2369 2687 2733 
Q 2419 3097 1959 3097 
z
M 1959 3584 
Q 2709 3584 3137 3096 
Q 3566 2609 3566 1747 
Q 3566 888 3137 398 
Q 2709 -91 1959 -91 
Q 1206 -91 779 398 
Q 353 888 353 1747 
Q 353 2609 779 3096 
Q 1206 3584 1959 3584 
z
" transform="scale(0.015625)"/>
       <path id="DejaVuSans-64" d="M 2906 2969 
L 2906 4863 
L 3481 4863 
L 3481 0 
L 2906 0 
L 2906 525 
Q 2725 213 2448 61 
Q 2172 -91 1784 -91 
Q 1150 -91 751 415 
Q 353 922 353 1747 
Q 353 2572 751 3078 
Q 1150 3584 1784 3584 
Q 2172 3584 2448 3432 
Q 2725 3281 2906 2969 
z
M 947 1747 
Q 947 1113 1208 752 
Q 1469 391 1925 391 
Q 2381 391 2643 752 
Q 2906 1113 2906 1747 
Q 2906 2381 2643 2742 
Q 2381 3103 1925 3103 
Q 1469 3103 1208 2742 
Q 947 2381 947 1747 
z
" transform="scale(0.015625)"/>
       <path id="DejaVuSans-65" d="M 3597 1894 
L 3597 1613 
L 953 1613 
Q 991 1019 1311 708 
Q 1631 397 2203 397 
Q 2534 397 2845 478 
Q 3156 559 3463 722 
L 3463 178 
Q 3153 47 2828 -22 
Q 2503 -91 2169 -91 
Q 1331 -91 842 396 
Q 353 884 353 1716 
Q 353 2575 817 3079 
Q 1281 3584 2069 3584 
Q 2775 3584 3186 3129 
Q 3597 2675 3597 1894 
z
M 3022 2063 
Q 3016 2534 2758 2815 
Q 2500 3097 2075 3097 
Q 1594 3097 1305 2825 
Q 1016 2553 972 2059 
L 3022 2063 
z
" transform="scale(0.015625)"/>
      </defs>
      <use xlink:href="#DejaVuSans-45"/>
      <use xlink:href="#DejaVuSans-70" x="63.183594"/>
      <use xlink:href="#DejaVuSans-69" x="126.660156"/>
      <use xlink:href="#DejaVuSans-73" x="154.443359"/>
      <use xlink:href="#DejaVuSans-6f" x="206.542969"/>
      <use xlink:href="#DejaVuSans-64" x="267.724609"/>
      <use xlink:href="#DejaVuSans-65" x="331.201172"/>
      <use xlink:href="#DejaVuSans-73" x="392.724609"/>
     </g>
    </g>
   </g>
   <g id="matplotlib.axis_2">
    <g id="ytick_1">
     <g id="line2d_17">
      <path d="M 90 279.462932 
L 648 279.462932 
" clip-path="url(#peb82784237)" style="fill: none; stroke: #b0b0b0; stroke-width: 0.8; stroke-linecap: square"/>
     </g>
     <g id="line2d_18">
      <defs>
       <path id="m60edf8a3bf" d="M 0 0 
L -3.5 0 
" style="stroke: #000000; stroke-width: 0.8"/>
      </defs>
      <g>
       <use xlink:href="#m60edf8a3bf" x="90" y="279.462932" style="stroke: #000000; stroke-width: 0.8"/>
      </g>
     </g>
     <g id="text_10">
      <!-- 6000 -->
      <g transform="translate(57.55 283.262151) scale(0.1 -0.1)">
       <use xlink:href="#DejaVuSans-36"/>
       <use xlink:href="#DejaVuSans-30" x="63.623047"/>
       <use xlink:href="#DejaVuSans-30" x="127.246094"/>
       <use xlink:href="#DejaVuSans-30" x="190.869141"/>
      </g>
     </g>
    </g>
    <g id="ytick_2">
     <g id="line2d_19">
      <path d="M 90 237.598057 
L 648 237.598057 
" clip-path="url(#peb82784237)" style="fill: none; stroke: #b0b0b0; stroke-width: 0.8; stroke-linecap: square"/>
     </g>
     <g id="line2d_20">
      <g>
       <use xlink:href="#m60edf8a3bf" x="90" y="237.598057" style="stroke: #000000; stroke-width: 0.8"/>
      </g>
     </g>
     <g id="text_11">
      <!-- 8000 -->
      <g transform="translate(57.55 241.397276) scale(0.1 -0.1)">
       <use xlink:href="#DejaVuSans-38"/>
       <use xlink:href="#DejaVuSans-30" x="63.623047"/>
       <use xlink:href="#DejaVuSans-30" x="127.246094"/>
       <use xlink:href="#DejaVuSans-30" x="190.869141"/>
      </g>
     </g>
    </g>
    <g id="ytick_3">
     <g id="line2d_21">
      <path d="M 90 195.733182 
L 648 195.733182 
" clip-path="url(#peb82784237)" style="fill: none; stroke: #b0b0b0; stroke-width: 0.8; stroke-linecap: square"/>
     </g>
     <g id="line2d_22">
      <g>
       <use xlink:href="#m60edf8a3bf" x="90" y="195.733182" style="stroke: #000000; stroke-width: 0.8"/>
      </g>
     </g>
     <g id="text_12">
      <!-- 10000 -->
      <g transform="translate(51.1875 199.532401) scale(0.1 -0.1)">
       <use xlink:href="#DejaVuSans-31"/>
       <use xlink:href="#DejaVuSans-30" x="63.623047"/>
       <use xlink:href="#DejaVuSans-30" x="127.246094"/>
       <use xlink:href="#DejaVuSans-30" x="190.869141"/>
       <use xlink:href="#DejaVuSans-30" x="254.492188"/>
      </g>
     </g>
    </g>
    <g id="ytick_4">
     <g id="line2d_23">
      <path d="M 90 153.868308 
L 648 153.868308 
" clip-path="url(#peb82784237)" style="fill: none; stroke: #b0b0b0; stroke-width: 0.8; stroke-linecap: square"/>
     </g>
     <g id="line2d_24">
      <g>
       <use xlink:href="#m60edf8a3bf" x="90" y="153.868308" style="stroke: #000000; stroke-width: 0.8"/>
      </g>
     </g>
     <g id="text_13">
      <!-- 12000 -->
      <g transform="translate(51.1875 157.667526) scale(0.1 -0.1)">
       <use xlink:href="#DejaVuSans-31"/>
       <use xlink:href="#DejaVuSans-32" x="63.623047"/>
       <use xlink:href="#DejaVuSans-30" x="127.246094"/>
       <use xlink:href="#DejaVuSans-30" x="190.869141"/>
       <use xlink:href="#DejaVuSans-30" x="254.492188"/>
      </g>
     </g>
    </g>
    <g id="ytick_5">
     <g id="line2d_25">
      <path d="M 90 112.003433 
L 648 112.003433 
" clip-path="url(#peb82784237)" style="fill: none; stroke: #b0b0b0; stroke-width: 0.8; stroke-linecap: square"/>
     </g>
     <g id="line2d_26">
      <g>
       <use xlink:href="#m60edf8a3bf" x="90" y="112.003433" style="stroke: #000000; stroke-width: 0.8"/>
      </g>
     </g>
     <g id="text_14">
      <!-- 14000 -->
      <g transform="translate(51.1875 115.802652) scale(0.1 -0.1)">
       <use xlink:href="#DejaVuSans-31"/>
       <use xlink:href="#DejaVuSans-34" x="63.623047"/>
       <use xlink:href="#DejaVuSans-30" x="127.246094"/>
       <use xlink:href="#DejaVuSans-30" x="190.869141"/>
       <use xlink:href="#DejaVuSans-30" x="254.492188"/>
      </g>
     </g>
    </g>
    <g id="ytick_6">
     <g id="line2d_27">
      <path d="M 90 70.138558 
L 648 70.138558 
" clip-path="url(#peb82784237)" style="fill: none; stroke: #b0b0b0; stroke-width: 0.8; stroke-linecap: square"/>
     </g>
     <g id="line2d_28">
      <g>
       <use xlink:href="#m60edf8a3bf" x="90" y="70.138558" style="stroke: #000000; stroke-width: 0.8"/>
      </g>
     </g>
     <g id="text_15">
      <!-- 16000 -->
      <g transform="translate(51.1875 73.937777) scale(0.1 -0.1)">
       <use xlink:href="#DejaVuSans-31"/>
       <use xlink:href="#DejaVuSans-36" x="63.623047"/>
       <use xlink:href="#DejaVuSans-30" x="127.246094"/>
       <use xlink:href="#DejaVuSans-30" x="190.869141"/>
       <use xlink:href="#DejaVuSans-30" x="254.492188"/>
      </g>
     </g>
    </g>
    <g id="text_16">
     <!-- Rewards -->
     <g transform="translate(45.107812 203.025781) rotate(-90) scale(0.1 -0.1)">
      <defs>
       <path id="DejaVuSans-52" d="M 2841 2188 
Q 3044 2119 3236 1894 
Q 3428 1669 3622 1275 
L 4263 0 
L 3584 0 
L 2988 1197 
Q 2756 1666 2539 1819 
Q 2322 1972 1947 1972 
L 1259 1972 
L 1259 0 
L 628 0 
L 628 4666 
L 2053 4666 
Q 2853 4666 3247 4331 
Q 3641 3997 3641 3322 
Q 3641 2881 3436 2590 
Q 3231 2300 2841 2188 
z
M 1259 4147 
L 1259 2491 
L 2053 2491 
Q 2509 2491 2742 2702 
Q 2975 2913 2975 3322 
Q 2975 3731 2742 3939 
Q 2509 4147 2053 4147 
L 1259 4147 
z
" transform="scale(0.015625)"/>
       <path id="DejaVuSans-77" d="M 269 3500 
L 844 3500 
L 1563 769 
L 2278 3500 
L 2956 3500 
L 3675 769 
L 4391 3500 
L 4966 3500 
L 4050 0 
L 3372 0 
L 2619 2869 
L 1863 0 
L 1184 0 
L 269 3500 
z
" transform="scale(0.015625)"/>
       <path id="DejaVuSans-61" d="M 2194 1759 
Q 1497 1759 1228 1600 
Q 959 1441 959 1056 
Q 959 750 1161 570 
Q 1363 391 1709 391 
Q 2188 391 2477 730 
Q 2766 1069 2766 1631 
L 2766 1759 
L 2194 1759 
z
M 3341 1997 
L 3341 0 
L 2766 0 
L 2766 531 
Q 2569 213 2275 61 
Q 1981 -91 1556 -91 
Q 1019 -91 701 211 
Q 384 513 384 1019 
Q 384 1609 779 1909 
Q 1175 2209 1959 2209 
L 2766 2209 
L 2766 2266 
Q 2766 2663 2505 2880 
Q 2244 3097 1772 3097 
Q 1472 3097 1187 3025 
Q 903 2953 641 2809 
L 641 3341 
Q 956 3463 1253 3523 
Q 1550 3584 1831 3584 
Q 2591 3584 2966 3190 
Q 3341 2797 3341 1997 
z
" transform="scale(0.015625)"/>
       <path id="DejaVuSans-72" d="M 2631 2963 
Q 2534 3019 2420 3045 
Q 2306 3072 2169 3072 
Q 1681 3072 1420 2755 
Q 1159 2438 1159 1844 
L 1159 0 
L 581 0 
L 581 3500 
L 1159 3500 
L 1159 2956 
Q 1341 3275 1631 3429 
Q 1922 3584 2338 3584 
Q 2397 3584 2469 3576 
Q 2541 3569 2628 3553 
L 2631 2963 
z
" transform="scale(0.015625)"/>
      </defs>
      <use xlink:href="#DejaVuSans-52"/>
      <use xlink:href="#DejaVuSans-65" x="64.982422"/>
      <use xlink:href="#DejaVuSans-77" x="126.505859"/>
      <use xlink:href="#DejaVuSans-61" x="208.292969"/>
      <use xlink:href="#DejaVuSans-72" x="269.572266"/>
      <use xlink:href="#DejaVuSans-64" x="308.935547"/>
      <use xlink:href="#DejaVuSans-73" x="372.412109"/>
     </g>
    </g>
   </g>
   <g id="line2d_29">
    <path d="M 115.363636 307.765782 
L 116.067205 307.455984 
L 116.418989 307.8 
L 116.770773 307.797575 
L 117.474341 307.383633 
L 117.826125 307.159274 
L 118.177909 306.736007 
L 118.881478 306.39583 
L 119.93683 306.426257 
L 120.288614 306.103403 
L 121.343967 305.820878 
L 121.695751 305.837655 
L 122.047535 306.126935 
L 122.399319 305.877144 
L 122.751103 306.005135 
L 123.102887 305.713394 
L 123.454672 305.863866 
L 124.15824 305.590591 
L 124.510024 305.776361 
L 124.861808 305.698646 
L 125.213592 305.864908 
L 125.565376 305.644807 
L 125.917161 305.566097 
L 126.972513 305.810749 
L 127.324297 305.31964 
L 127.676081 305.188503 
L 128.027865 305.314892 
L 128.731434 304.379362 
L 129.083218 304.150528 
L 129.435002 304.36397 
L 129.786786 304.388324 
L 130.13857 303.952699 
L 130.490354 303.963547 
L 130.842138 303.624682 
L 131.193923 302.959827 
L 131.545707 302.725147 
L 131.897491 302.231633 
L 132.249275 302.079322 
L 132.952843 301.125955 
L 133.304627 300.627625 
L 133.656412 300.405449 
L 135.063548 299.047505 
L 136.118901 297.88139 
L 136.470685 297.263925 
L 136.822469 296.400057 
L 137.174253 295.990361 
L 137.526037 295.179971 
L 137.877821 294.889909 
L 139.988526 290.993157 
L 140.34031 290.261301 
L 140.692094 289.932183 
L 141.043878 289.127285 
L 141.395663 289.061183 
L 141.747447 288.444501 
L 142.099231 287.543151 
L 142.451015 287.238159 
L 142.802799 286.52594 
L 143.154583 285.321313 
L 143.506367 284.900319 
L 143.858152 284.267634 
L 144.209936 283.022708 
L 144.56172 282.307288 
L 144.913504 282.028865 
L 145.265288 281.437703 
L 145.617072 280.321992 
L 146.672425 278.849338 
L 148.079561 276.033844 
L 149.134914 274.388243 
L 149.838482 273.658816 
L 150.54205 271.976615 
L 150.893834 271.731104 
L 151.245618 271.01111 
L 151.597403 270.555367 
L 151.949187 269.71216 
L 152.300971 269.569304 
L 152.652755 268.299617 
L 153.356323 267.328792 
L 153.708107 267.160073 
L 154.411676 265.960314 
L 154.76346 265.27997 
L 155.467028 264.493356 
L 155.818812 264.684889 
L 156.170596 264.450253 
L 156.522381 264.441711 
L 156.874165 264.127444 
L 157.225949 264.019824 
L 157.577733 263.775581 
L 157.929517 263.048718 
L 158.281301 263.021694 
L 158.633085 263.126002 
L 158.984869 262.434917 
L 159.336654 262.403364 
L 159.688438 262.193914 
L 160.040222 261.823961 
L 160.392006 261.649427 
L 160.74379 262.166029 
L 161.095574 262.084147 
L 161.447358 261.710372 
L 161.799143 262.185878 
L 162.854495 261.891331 
L 163.206279 262.217442 
L 163.558063 261.712089 
L 163.909847 261.449386 
L 164.261632 261.540303 
L 164.613416 261.192755 
L 164.9652 261.445143 
L 165.316984 261.35195 
L 165.668768 261.45288 
L 166.020552 261.209232 
L 166.372336 261.480922 
L 166.724121 261.490179 
L 167.427689 261.860682 
L 167.779473 262.405608 
L 168.483041 262.451012 
L 168.834825 262.920243 
L 169.18661 262.684524 
L 169.538394 262.705406 
L 169.890178 262.482033 
L 170.241962 263.293369 
L 170.593746 263.131336 
L 171.297314 263.232183 
L 171.649098 263.37228 
L 172.000883 263.826488 
L 172.352667 264.007914 
L 172.704451 264.326886 
L 173.056235 264.467369 
L 173.408019 264.438347 
L 174.111587 264.129884 
L 174.815156 264.275923 
L 175.16694 264.563869 
L 175.518724 265.159737 
L 175.870508 264.98673 
L 176.222292 264.981147 
L 176.925861 265.202527 
L 177.629429 265.383907 
L 177.981213 265.253338 
L 178.332997 265.469346 
L 178.684781 265.289392 
L 179.036565 265.629808 
L 179.38835 265.499245 
L 179.740134 265.823804 
L 180.091918 265.946443 
L 180.795486 265.40632 
L 181.14727 265.962106 
L 181.499054 265.702835 
L 181.850838 265.649909 
L 182.202623 265.831293 
L 182.554407 265.463137 
L 182.906191 265.48806 
L 183.257975 265.104458 
L 183.609759 265.280438 
L 183.961543 264.641235 
L 184.313327 265.10126 
L 185.016896 264.677819 
L 186.072248 264.989928 
L 186.424032 264.605688 
L 186.775816 264.794974 
L 187.479385 265.509306 
L 187.831169 265.101872 
L 188.182953 265.426623 
L 188.534737 265.500005 
L 188.886521 265.208968 
L 189.238305 265.731837 
L 190.293658 265.457461 
L 190.645442 265.248694 
L 190.997226 264.732414 
L 191.34901 265.031735 
L 192.052578 265.295888 
L 193.107931 265.130255 
L 193.811499 265.340068 
L 194.163283 265.33789 
L 194.515067 265.161238 
L 194.866852 265.308208 
L 195.218636 265.194729 
L 195.57042 265.640257 
L 196.625772 265.130627 
L 196.977556 264.95363 
L 197.329341 264.993937 
L 197.681125 265.276748 
L 198.736477 265.300223 
L 199.79183 265.67354 
L 200.143614 265.902318 
L 200.847182 265.61508 
L 201.198966 265.818956 
L 201.55075 266.483596 
L 201.902534 266.157484 
L 202.254318 266.390991 
L 202.606103 266.260643 
L 202.957887 265.879073 
L 203.309671 265.89149 
L 203.661455 266.03196 
L 204.013239 266.405144 
L 204.716807 266.415849 
L 205.068592 266.119771 
L 205.420376 266.600053 
L 206.123944 266.689601 
L 206.475728 266.466634 
L 206.827512 265.850702 
L 207.179296 265.723869 
L 207.531081 265.812602 
L 208.234649 266.24564 
L 208.586433 266.152991 
L 208.938217 265.796455 
L 209.99357 265.591392 
L 210.345354 265.878748 
L 211.400706 265.053233 
L 212.104274 264.830129 
L 212.807843 265.201984 
L 213.159627 264.972666 
L 213.511411 265.287856 
L 213.863195 265.378772 
L 214.214979 265.353903 
L 214.566763 265.526975 
L 214.918547 265.391816 
L 215.270332 264.808274 
L 215.622116 264.759525 
L 215.9739 264.843923 
L 216.325684 264.632588 
L 216.677468 264.587857 
L 217.029252 264.181091 
L 217.732821 263.740901 
L 218.436389 264.423028 
L 219.139957 264.164064 
L 219.491741 263.922237 
L 220.19531 263.783259 
L 220.547094 264.050609 
L 221.250662 263.536451 
L 221.602446 263.313092 
L 221.95423 263.453409 
L 222.306014 263.201711 
L 222.657799 263.410793 
L 223.009583 263.143738 
L 223.713151 263.155747 
L 224.064935 263.416918 
L 224.768503 263.610682 
L 225.120287 263.440369 
L 225.823856 263.735809 
L 226.527424 263.760403 
L 226.879208 263.474524 
L 227.230992 263.797553 
L 227.582776 263.820496 
L 227.934561 263.40008 
L 228.286345 263.435587 
L 228.638129 263.174269 
L 228.989913 263.104597 
L 229.693481 263.519325 
L 230.39705 262.764536 
L 230.748834 262.905599 
L 231.452402 262.710156 
L 231.804186 262.748814 
L 232.15597 263.145705 
L 232.507754 263.268109 
L 233.211323 264.107759 
L 233.914891 264.285263 
L 234.266675 264.582463 
L 234.618459 264.258486 
L 234.970243 264.266091 
L 235.322027 264.77282 
L 236.025596 264.357937 
L 236.37738 264.501936 
L 236.729164 264.337543 
L 237.784516 264.85323 
L 238.136301 264.477938 
L 238.488085 264.652844 
L 238.839869 264.530239 
L 239.191653 264.639208 
L 239.543437 264.272642 
L 240.950574 263.923516 
L 241.654142 263.945816 
L 242.005926 264.235937 
L 242.709494 264.168772 
L 243.061279 264.081468 
L 243.413063 263.464168 
L 243.764847 263.736729 
L 244.116631 263.799565 
L 244.468415 264.162084 
L 244.820199 263.716859 
L 245.171983 263.587207 
L 245.523767 263.7292 
L 246.930904 265.383118 
L 247.282688 264.84312 
L 247.986256 265.232295 
L 248.338041 265.136197 
L 249.041609 265.301995 
L 249.393393 265.006232 
L 249.745177 264.505942 
L 250.096961 264.514454 
L 250.80053 264.145366 
L 251.152314 264.450975 
L 251.504098 264.502516 
L 251.855882 264.138722 
L 252.55945 264.852424 
L 252.911234 264.659372 
L 253.263019 264.803305 
L 253.614803 264.823914 
L 253.966587 264.649168 
L 254.318371 264.735954 
L 254.670155 264.964424 
L 255.021939 264.795203 
L 255.373723 264.487101 
L 255.725508 264.925265 
L 256.077292 265.165183 
L 256.429076 265.245825 
L 256.78086 264.994823 
L 257.132644 265.618412 
L 257.484428 265.805682 
L 257.836212 265.76851 
L 258.187996 266.010029 
L 258.891565 265.439895 
L 259.243349 266.036615 
L 259.595133 266.092302 
L 259.946917 266.313095 
L 260.298701 266.38031 
L 260.650485 265.885426 
L 261.354054 266.781168 
L 263.464759 266.73819 
L 263.816543 266.468625 
L 264.520111 265.640781 
L 264.871895 266.236485 
L 265.223679 266.496467 
L 265.575463 266.393166 
L 265.927248 266.507972 
L 266.279032 266.317036 
L 266.630816 266.33322 
L 266.9826 266.820593 
L 267.334384 267.012058 
L 268.037952 266.542147 
L 268.389736 266.61754 
L 269.093305 265.977829 
L 269.796873 266.591862 
L 270.148657 266.524812 
L 270.500441 266.728065 
L 270.852225 266.660976 
L 271.907578 266.983385 
L 272.259362 266.639162 
L 272.611146 266.520056 
L 272.96293 266.727319 
L 273.314714 266.620963 
L 273.666499 266.758244 
L 274.018283 267.219171 
L 274.370067 267.428424 
L 274.721851 266.754895 
L 275.777203 266.821917 
L 276.480772 267.786808 
L 277.536124 266.946267 
L 278.239692 267.099684 
L 278.591476 267.146226 
L 278.943261 267.079683 
L 279.295045 267.386264 
L 279.646829 267.175265 
L 279.998613 267.153514 
L 280.702181 267.310604 
L 281.40575 266.502707 
L 282.461102 267.191032 
L 282.812886 266.922948 
L 283.16467 267.10305 
L 283.516454 266.633301 
L 283.868239 266.596374 
L 284.220023 266.689227 
L 284.923591 266.501286 
L 285.275375 265.996792 
L 287.034296 266.17264 
L 287.38608 266.128706 
L 288.089648 265.657178 
L 288.441432 265.57859 
L 288.793216 265.33018 
L 289.145001 265.266532 
L 289.848569 265.661354 
L 290.552137 265.069254 
L 291.60749 264.578239 
L 292.311058 264.916298 
L 293.014626 264.88488 
L 293.36641 264.608122 
L 293.718194 264.555017 
L 294.421763 264.215305 
L 294.773547 264.315063 
L 295.828899 265.093502 
L 296.532468 264.687576 
L 297.236036 264.812958 
L 297.58782 264.815832 
L 297.939604 264.966203 
L 298.291388 264.706925 
L 298.643172 265.043657 
L 299.346741 265.394488 
L 299.698525 265.331155 
L 300.050309 264.739138 
L 300.402093 264.853499 
L 301.105661 265.389654 
L 301.457445 265.343081 
L 301.80923 264.951273 
L 302.161014 264.94135 
L 302.512798 264.758229 
L 302.864582 265.601511 
L 303.216366 265.509273 
L 303.919934 265.174114 
L 304.271719 265.631575 
L 305.327071 265.800586 
L 306.030639 266.299335 
L 306.382423 266.948599 
L 307.437776 266.099892 
L 307.78956 266.470421 
L 308.141344 267.096584 
L 308.493128 267.111945 
L 308.844912 266.75871 
L 309.196697 266.705072 
L 309.548481 266.332858 
L 309.900265 266.61466 
L 310.252049 266.591558 
L 310.603833 266.456646 
L 310.955617 266.571814 
L 312.01097 266.082894 
L 312.362754 266.159253 
L 312.714538 265.914072 
L 313.066322 265.868407 
L 313.418106 265.626436 
L 313.76989 265.612262 
L 314.121674 265.776956 
L 314.473459 265.238511 
L 315.528811 265.537795 
L 316.232379 265.591813 
L 316.584163 266.101789 
L 317.287732 265.685327 
L 317.639516 265.87079 
L 318.694868 265.192276 
L 319.046652 265.684451 
L 319.750221 265.96511 
L 320.102005 266.170231 
L 320.453789 265.784416 
L 320.805573 265.759109 
L 321.157357 265.612032 
L 321.509141 265.693736 
L 322.564494 264.845678 
L 322.916278 264.93131 
L 323.619846 264.603922 
L 323.97163 264.028462 
L 324.675199 264.390454 
L 325.026983 264.625288 
L 325.378767 264.701683 
L 325.730551 264.188219 
L 326.082335 264.331491 
L 326.434119 264.617826 
L 326.785903 264.31723 
L 327.137688 264.238769 
L 327.489472 263.826944 
L 328.19304 264.617581 
L 328.544824 264.496807 
L 328.896608 264.683184 
L 329.600177 264.657876 
L 329.951961 264.39904 
L 330.303745 264.792621 
L 330.655529 264.732338 
L 331.710881 265.05501 
L 332.062665 265.692451 
L 332.41445 265.623055 
L 333.469802 265.831144 
L 333.821586 265.768436 
L 334.17337 265.368227 
L 334.876939 265.547881 
L 335.228723 265.390368 
L 335.580507 265.405399 
L 335.932291 265.214432 
L 336.284075 265.42141 
L 336.635859 264.966515 
L 336.987643 265.019021 
L 337.339428 264.301263 
L 337.691212 264.097824 
L 338.042996 264.356038 
L 338.39478 264.964959 
L 338.746564 264.947586 
L 340.153701 265.507114 
L 340.505485 265.326168 
L 341.209053 264.489979 
L 342.264405 264.757836 
L 343.319758 264.641359 
L 343.671542 264.884283 
L 344.023326 264.769489 
L 344.37511 265.124711 
L 344.726894 265.277103 
L 345.078679 265.255099 
L 345.782247 264.094145 
L 346.134031 264.117172 
L 347.189383 263.315215 
L 347.541168 263.708202 
L 347.892952 263.306705 
L 348.244736 263.523068 
L 348.59652 263.997697 
L 348.948304 263.945747 
L 349.300088 263.504303 
L 349.651872 262.748272 
L 351.410793 262.308426 
L 353.169714 263.514396 
L 353.521498 263.952067 
L 354.225066 263.871801 
L 354.57685 264.033585 
L 354.928634 264.343971 
L 355.280419 264.414783 
L 355.632203 264.079145 
L 355.983987 263.301489 
L 356.335771 262.87176 
L 356.687555 262.815048 
L 357.391123 262.271566 
L 357.742908 262.661343 
L 358.446476 263.006977 
L 358.79826 263.477044 
L 359.150044 263.501418 
L 359.501828 263.657315 
L 359.853612 263.023272 
L 360.205397 262.721252 
L 360.557181 262.713951 
L 360.908965 263.018941 
L 361.260749 262.788625 
L 361.964317 263.025512 
L 362.316101 262.862324 
L 364.075022 264.056417 
L 364.426806 264.156956 
L 364.77859 264.873361 
L 365.833943 264.470628 
L 366.185727 263.764177 
L 366.537511 263.588933 
L 366.889295 263.553004 
L 367.241079 263.823793 
L 367.944648 264.139311 
L 368.648216 263.856935 
L 369 263.915156 
L 369.351784 263.627053 
L 369.703568 263.130939 
L 370.055352 263.07772 
L 371.110705 262.442914 
L 371.462489 262.526739 
L 371.814273 262.422751 
L 372.869626 262.580007 
L 373.22141 262.83224 
L 373.573194 263.38834 
L 373.924978 263.698867 
L 374.276762 263.669399 
L 374.98033 264.407254 
L 375.332114 264.111362 
L 376.035683 263.935574 
L 376.739251 264.104388 
L 377.091035 263.836384 
L 377.442819 264.441755 
L 377.794603 264.625085 
L 378.146388 264.662274 
L 378.849956 264.405844 
L 379.20174 264.620148 
L 379.553524 264.376808 
L 379.905308 264.69183 
L 380.257092 264.291532 
L 380.608877 264.330281 
L 380.960661 264.704561 
L 382.016013 264.832878 
L 383.42315 264.812551 
L 383.774934 265.1514 
L 384.478502 265.601999 
L 384.830286 265.927704 
L 385.18207 266.083102 
L 385.533854 265.793855 
L 385.885639 266.255873 
L 386.237423 266.272298 
L 386.589207 265.91859 
L 387.292775 266.342286 
L 387.644559 265.993809 
L 387.996343 266.202454 
L 388.348128 266.045128 
L 388.699912 266.529789 
L 389.755264 266.704678 
L 390.107048 266.572836 
L 390.810617 266.742793 
L 391.162401 266.561529 
L 391.514185 266.888002 
L 392.217753 266.301876 
L 392.569537 266.384223 
L 392.921321 266.647626 
L 393.273106 266.709406 
L 394.328458 265.825088 
L 394.680242 266.18292 
L 395.735595 265.986906 
L 396.087379 266.095344 
L 396.439163 266.031983 
L 396.790947 265.55913 
L 397.142731 265.970607 
L 397.494515 265.615685 
L 397.846299 266.043036 
L 398.901652 265.326242 
L 399.253436 265.241857 
L 399.60522 265.34603 
L 399.957004 265.078774 
L 400.308788 265.062276 
L 400.660572 265.283565 
L 401.364141 264.813866 
L 402.067709 264.798128 
L 402.419493 264.296077 
L 402.771277 264.061104 
L 403.123061 264.052389 
L 403.474846 263.290322 
L 404.178414 263.299763 
L 404.530198 262.972572 
L 404.881982 262.90788 
L 405.233766 263.319159 
L 405.58555 263.370715 
L 405.937335 263.275108 
L 406.289119 263.017027 
L 406.640903 262.962905 
L 406.992687 262.614853 
L 407.696255 262.397192 
L 408.048039 262.512599 
L 408.399823 262.063127 
L 408.751608 262.100515 
L 409.103392 261.735897 
L 409.455176 261.964863 
L 410.158744 261.818867 
L 410.862312 261.884848 
L 411.917665 263.174713 
L 412.621233 262.462718 
L 412.973017 262.681362 
L 413.324801 262.65466 
L 414.380154 262.933122 
L 414.731938 262.54926 
L 415.083722 262.883595 
L 415.435506 262.911531 
L 415.78729 263.241589 
L 416.139075 263.244533 
L 416.842643 263.357144 
L 417.194427 263.037345 
L 418.249779 262.855721 
L 418.601563 262.667497 
L 418.953348 263.17856 
L 419.656916 263.080852 
L 420.0087 263.650939 
L 420.360484 263.299555 
L 421.064052 264.054421 
L 421.415837 263.815327 
L 421.767621 264.115647 
L 422.119405 263.840817 
L 422.471189 264.060952 
L 422.822973 263.909579 
L 423.174757 263.574571 
L 423.526541 263.782349 
L 424.23011 263.90522 
L 424.581894 264.200743 
L 424.933678 264.213906 
L 425.285462 264.410856 
L 425.637246 264.079368 
L 425.98903 264.442727 
L 426.340815 264.104814 
L 426.692599 264.265828 
L 427.044383 264.575171 
L 427.747951 264.151595 
L 428.099735 264.010759 
L 428.451519 264.077472 
L 429.506872 263.426953 
L 429.858656 263.591331 
L 430.21044 264.040155 
L 430.562224 263.783051 
L 430.914008 263.870017 
L 431.617577 263.303674 
L 431.969361 263.255216 
L 432.321145 263.393444 
L 432.672929 263.357742 
L 433.024713 263.518005 
L 433.376497 263.336251 
L 433.728281 263.600689 
L 434.43185 263.412583 
L 434.783634 263.82786 
L 435.135418 263.818871 
L 435.487202 263.594756 
L 436.19077 264.168531 
L 436.542555 264.068982 
L 436.894339 264.215233 
L 437.246123 264.240702 
L 437.597907 263.7785 
L 437.949691 264.01584 
L 438.301475 263.626262 
L 439.005044 264.02248 
L 439.356828 264.300588 
L 439.708612 265.061201 
L 440.763964 265.011564 
L 441.115748 265.28249 
L 441.467532 264.685107 
L 442.171101 264.580115 
L 442.522885 264.382349 
L 442.874669 264.365647 
L 443.226453 264.976502 
L 443.578237 264.853702 
L 443.930021 265.470398 
L 444.281806 265.582788 
L 444.63359 265.244826 
L 446.040726 265.413917 
L 447.096079 266.515244 
L 447.447863 266.625146 
L 447.799647 266.11034 
L 448.503215 266.515134 
L 450.262136 266.169492 
L 450.61392 265.974745 
L 451.317488 266.014417 
L 451.669272 265.832544 
L 452.021057 266.122895 
L 452.372841 265.972153 
L 453.076409 266.356617 
L 453.779977 266.562266 
L 454.131761 265.862986 
L 455.187114 266.197246 
L 455.538898 266.487179 
L 455.890682 266.565357 
L 456.59425 267.118432 
L 456.946035 266.832754 
L 457.297819 266.386054 
L 458.353171 266.615362 
L 458.704955 266.360086 
L 459.056739 266.558546 
L 459.408524 266.522095 
L 459.760308 266.669332 
L 461.167444 266.291962 
L 461.519228 266.052431 
L 462.222797 265.991868 
L 462.926365 266.241926 
L 463.278149 265.961955 
L 463.629933 266.059482 
L 464.333501 265.576824 
L 464.685286 265.144997 
L 465.03707 265.080978 
L 465.388854 265.368435 
L 465.740638 265.182521 
L 466.092422 264.472478 
L 466.444206 264.859918 
L 466.79599 264.798786 
L 467.147775 265.024797 
L 467.499559 264.989255 
L 467.851343 265.279077 
L 468.554911 265.350564 
L 468.906695 265.180153 
L 469.258479 265.357194 
L 470.313832 265.299293 
L 470.665616 265.326805 
L 471.0174 264.916443 
L 471.369184 264.896256 
L 471.720968 265.36224 
L 472.072752 265.30752 
L 472.424537 265.026927 
L 472.776321 265.173662 
L 473.128105 265.055233 
L 473.479889 265.148425 
L 473.831673 264.639661 
L 474.183457 264.469247 
L 474.535241 264.091374 
L 474.887026 264.21942 
L 475.23881 263.619811 
L 475.590594 263.627495 
L 475.942378 263.492809 
L 476.99773 263.590472 
L 477.349515 263.7214 
L 477.701299 264.006954 
L 478.404867 264.145954 
L 478.756651 264.47786 
L 479.108435 264.11676 
L 479.460219 263.928993 
L 480.163788 264.453665 
L 480.867356 263.777764 
L 481.570924 263.555071 
L 481.922708 263.40411 
L 482.626277 263.747383 
L 482.978061 263.924966 
L 483.329845 263.699369 
L 483.681629 263.947315 
L 484.385197 263.464223 
L 484.736981 263.539547 
L 485.088766 263.120989 
L 485.44055 262.477177 
L 486.847686 262.19828 
L 488.254823 260.951752 
L 489.310175 261.046572 
L 489.661959 260.568397 
L 490.013744 260.333196 
L 490.717312 260.038482 
L 491.069096 260.171615 
L 491.42088 260.008759 
L 492.476233 259.81845 
L 492.828017 260.284139 
L 493.179801 259.900256 
L 493.531585 260.250246 
L 494.235153 260.191414 
L 494.586937 260.219324 
L 495.290506 259.518069 
L 495.994074 259.311516 
L 496.345858 259.098659 
L 497.049426 259.691684 
L 497.40121 259.249778 
L 497.752995 259.302478 
L 498.104779 259.828477 
L 498.808347 260.316118 
L 499.160131 259.986416 
L 499.511915 260.022769 
L 499.863699 259.570222 
L 500.215484 259.664647 
L 500.567268 259.420952 
L 501.62262 259.801602 
L 501.974404 260.207885 
L 502.326188 260.052939 
L 502.677973 260.302331 
L 503.029757 261.084824 
L 503.381541 260.901412 
L 503.733325 260.937377 
L 504.436893 260.603686 
L 504.788677 260.784809 
L 505.140461 261.357605 
L 505.492246 261.412476 
L 506.195814 261.730448 
L 506.547598 261.553649 
L 507.251166 261.885845 
L 507.60295 262.382217 
L 507.954735 262.208802 
L 508.306519 262.541067 
L 508.658303 262.309792 
L 509.010087 262.3277 
L 509.713655 261.927239 
L 510.065439 262.069934 
L 510.417224 261.245209 
L 510.769008 260.995154 
L 511.120792 260.206738 
L 511.472576 259.790194 
L 511.82436 259.169623 
L 512.527928 257.458083 
L 512.879713 256.743459 
L 513.583281 253.969306 
L 513.935065 252.762367 
L 514.286849 252.127111 
L 514.638633 251.005362 
L 514.990417 250.290656 
L 516.04577 247.087688 
L 517.452906 243.696098 
L 518.156475 240.946956 
L 518.508259 240.3963 
L 520.267179 235.512702 
L 520.970748 232.811316 
L 522.377884 228.765361 
L 522.729668 227.217194 
L 524.136805 223.567324 
L 524.840373 221.033917 
L 525.192157 219.62695 
L 525.543941 218.691212 
L 526.24751 216.09761 
L 526.951078 214.651733 
L 527.302862 214.458077 
L 527.654646 213.528341 
L 528.709999 211.984068 
L 529.413567 210.935652 
L 530.117135 210.161467 
L 530.468919 209.921355 
L 531.172488 209.960939 
L 531.524272 209.854541 
L 533.634977 207.4602 
L 533.986761 206.68704 
L 534.338545 206.197939 
L 534.690329 206.341128 
L 535.042113 206.312334 
L 537.152818 203.087923 
L 537.856386 202.623321 
L 538.20817 201.802235 
L 538.559955 201.788926 
L 538.911739 201.394658 
L 539.615307 199.802682 
L 540.670659 198.691881 
L 541.374228 196.79262 
L 541.726012 195.719656 
L 542.42958 194.575529 
L 543.133148 193.043469 
L 544.188501 189.949045 
L 545.243853 185.134719 
L 545.947422 183.490708 
L 547.354558 177.974911 
L 548.761695 173.073938 
L 549.113479 171.702218 
L 549.465263 169.497922 
L 551.224184 162.274754 
L 551.927752 158.273521 
L 552.983104 153.310891 
L 553.334888 152.687749 
L 555.445593 142.613961 
L 555.797377 141.470558 
L 556.85273 136.243042 
L 560.722355 120.200907 
L 561.425924 117.749838 
L 561.777708 115.76712 
L 562.481276 112.882318 
L 562.83306 112.287986 
L 563.536628 108.959709 
L 563.888413 107.999376 
L 564.240197 106.230424 
L 564.591981 105.477726 
L 564.943765 103.794558 
L 565.295549 102.655786 
L 565.647333 100.896181 
L 566.350902 98.912921 
L 566.702686 97.856172 
L 567.05447 97.192646 
L 567.758038 95.244029 
L 568.461606 93.462922 
L 568.81339 91.953417 
L 569.165175 91.466543 
L 569.516959 90.764105 
L 570.220527 87.985744 
L 571.275879 84.369392 
L 571.627664 83.689336 
L 571.979448 81.923926 
L 572.683016 80.079117 
L 573.0348 78.678224 
L 573.386584 78.3658 
L 573.738368 77.157821 
L 574.090153 76.357382 
L 574.441937 74.890895 
L 575.849073 71.808022 
L 576.200857 71.551483 
L 576.904426 69.397612 
L 577.607994 68.16223 
L 577.959778 67.077385 
L 578.311562 66.932223 
L 578.663346 65.909723 
L 579.015131 65.717148 
L 579.366915 65.684951 
L 579.718699 65.428236 
L 580.422267 63.802668 
L 580.774051 63.825592 
L 581.477619 62.563953 
L 581.829404 62.514447 
L 582.181188 61.704213 
L 582.532972 61.5263 
L 582.884756 61.026938 
L 583.23654 61.764367 
L 583.940108 61.346323 
L 584.291893 60.61477 
L 584.643677 60.325182 
L 585.699029 59.886423 
L 586.402597 59.300714 
L 586.754382 59.39009 
L 587.106166 58.838293 
L 587.809734 59.053012 
L 588.161518 59.28005 
L 588.865086 59.070222 
L 589.216871 59.12188 
L 589.568655 59.440546 
L 589.920439 58.77668 
L 590.272223 59.014749 
L 590.975791 57.587688 
L 591.327575 57.64296 
L 592.031144 58.361447 
L 592.382928 58.218554 
L 592.734712 58.474858 
L 593.43828 57.54081 
L 593.790064 57.332131 
L 594.141848 57.313572 
L 594.493633 57.18299 
L 594.845417 56.7171 
L 595.197201 56.684101 
L 595.548985 56.533494 
L 595.900769 55.862666 
L 596.252553 56.631266 
L 596.604337 55.95315 
L 597.307906 56.0334 
L 597.65969 56.669691 
L 598.011474 56.459501 
L 598.363258 55.8 
L 598.715042 56.086442 
L 599.066826 56.096619 
L 599.418611 56.275753 
L 599.770395 56.897188 
L 600.122179 57.190025 
L 600.825747 56.939119 
L 601.177531 57.365016 
L 601.529315 57.019327 
L 601.881099 57.32573 
L 602.232884 57.317202 
L 602.584668 57.525658 
L 602.936452 57.972955 
L 603.288236 57.580599 
L 603.64002 57.657235 
L 603.991804 58.028698 
L 604.343588 57.971351 
L 606.102509 58.831066 
L 606.454293 58.683858 
L 606.806077 58.096026 
L 607.509646 58.530035 
L 607.86143 58.437909 
L 608.213214 59.228932 
L 609.620351 60.911418 
L 609.972135 61.010919 
L 610.323919 60.575388 
L 610.675703 60.724813 
L 611.027487 60.752844 
L 611.379271 60.610641 
L 611.731055 60.805905 
L 612.082839 61.23497 
L 612.786408 62.504697 
L 613.489976 62.914887 
L 613.84176 62.245637 
L 614.193544 62.746591 
L 614.545328 63.046978 
L 614.897113 62.69921 
L 615.248897 61.990807 
L 615.600681 62.951823 
L 615.952465 62.752008 
L 616.304249 63.079964 
L 616.656033 62.951008 
L 617.007817 62.574181 
L 617.359602 62.52282 
L 617.711386 61.484614 
L 618.06317 62.101913 
L 618.766738 60.664692 
L 619.118522 61.222273 
L 619.470306 61.039319 
L 619.822091 61.378197 
L 620.173875 61.144806 
L 620.525659 60.663971 
L 620.877443 61.198536 
L 621.581011 61.668263 
L 621.932795 59.981254 
L 622.284579 58.910185 
L 622.636364 59.439672 
L 622.636364 59.439672 
" clip-path="url(#peb82784237)" style="fill: none; stroke: #1f77b4; stroke-width: 1.5; stroke-linecap: square"/>
   </g>
   <g id="patch_3">
    <path d="M 90 320.4 
L 90 43.2 
" style="fill: none; stroke: #000000; stroke-width: 0.8; stroke-linejoin: miter; stroke-linecap: square"/>
   </g>
   <g id="patch_4">
    <path d="M 648 320.4 
L 648 43.2 
" style="fill: none; stroke: #000000; stroke-width: 0.8; stroke-linejoin: miter; stroke-linecap: square"/>
   </g>
   <g id="patch_5">
    <path d="M 90 320.4 
L 648 320.4 
" style="fill: none; stroke: #000000; stroke-width: 0.8; stroke-linejoin: miter; stroke-linecap: square"/>
   </g>
   <g id="patch_6">
    <path d="M 90 43.2 
L 648 43.2 
" style="fill: none; stroke: #000000; stroke-width: 0.8; stroke-linejoin: miter; stroke-linecap: square"/>
   </g>
   <g id="text_17">
    <!-- Model Training -->
    <g transform="translate(325.40625 37.2) scale(0.12 -0.12)">
     <defs>
      <path id="DejaVuSans-4d" d="M 628 4666 
L 1569 4666 
L 2759 1491 
L 3956 4666 
L 4897 4666 
L 4897 0 
L 4281 0 
L 4281 4097 
L 3078 897 
L 2444 897 
L 1241 4097 
L 1241 0 
L 628 0 
L 628 4666 
z
" transform="scale(0.015625)"/>
      <path id="DejaVuSans-6c" d="M 603 4863 
L 1178 4863 
L 1178 0 
L 603 0 
L 603 4863 
z
" transform="scale(0.015625)"/>
      <path id="DejaVuSans-20" transform="scale(0.015625)"/>
      <path id="DejaVuSans-54" d="M -19 4666 
L 3928 4666 
L 3928 4134 
L 2272 4134 
L 2272 0 
L 1638 0 
L 1638 4134 
L -19 4134 
L -19 4666 
z
" transform="scale(0.015625)"/>
      <path id="DejaVuSans-6e" d="M 3513 2113 
L 3513 0 
L 2938 0 
L 2938 2094 
Q 2938 2591 2744 2837 
Q 2550 3084 2163 3084 
Q 1697 3084 1428 2787 
Q 1159 2491 1159 1978 
L 1159 0 
L 581 0 
L 581 3500 
L 1159 3500 
L 1159 2956 
Q 1366 3272 1645 3428 
Q 1925 3584 2291 3584 
Q 2894 3584 3203 3211 
Q 3513 2838 3513 2113 
z
" transform="scale(0.015625)"/>
      <path id="DejaVuSans-67" d="M 2906 1791 
Q 2906 2416 2648 2759 
Q 2391 3103 1925 3103 
Q 1463 3103 1205 2759 
Q 947 2416 947 1791 
Q 947 1169 1205 825 
Q 1463 481 1925 481 
Q 2391 481 2648 825 
Q 2906 1169 2906 1791 
z
M 3481 434 
Q 3481 -459 3084 -895 
Q 2688 -1331 1869 -1331 
Q 1566 -1331 1297 -1286 
Q 1028 -1241 775 -1147 
L 775 -588 
Q 1028 -725 1275 -790 
Q 1522 -856 1778 -856 
Q 2344 -856 2625 -561 
Q 2906 -266 2906 331 
L 2906 616 
Q 2728 306 2450 153 
Q 2172 0 1784 0 
Q 1141 0 747 490 
Q 353 981 353 1791 
Q 353 2603 747 3093 
Q 1141 3584 1784 3584 
Q 2172 3584 2450 3431 
Q 2728 3278 2906 2969 
L 2906 3500 
L 3481 3500 
L 3481 434 
z
" transform="scale(0.015625)"/>
     </defs>
     <use xlink:href="#DejaVuSans-4d"/>
     <use xlink:href="#DejaVuSans-6f" x="86.279297"/>
     <use xlink:href="#DejaVuSans-64" x="147.460938"/>
     <use xlink:href="#DejaVuSans-65" x="210.9375"/>
     <use xlink:href="#DejaVuSans-6c" x="272.460938"/>
     <use xlink:href="#DejaVuSans-20" x="300.244141"/>
     <use xlink:href="#DejaVuSans-54" x="332.03125"/>
     <use xlink:href="#DejaVuSans-72" x="378.365234"/>
     <use xlink:href="#DejaVuSans-61" x="419.478516"/>
     <use xlink:href="#DejaVuSans-69" x="480.757812"/>
     <use xlink:href="#DejaVuSans-6e" x="508.541016"/>
     <use xlink:href="#DejaVuSans-69" x="571.919922"/>
     <use xlink:href="#DejaVuSans-6e" x="599.703125"/>
     <use xlink:href="#DejaVuSans-67" x="663.082031"/>
    </g>
   </g>
   <g id="legend_1">
    <g id="patch_7">
     <path d="M 97 65.878125 
L 206.426562 65.878125 
Q 208.426562 65.878125 208.426562 63.878125 
L 208.426562 50.2 
Q 208.426562 48.2 206.426562 48.2 
L 97 48.2 
Q 95 48.2 95 50.2 
L 95 63.878125 
Q 95 65.878125 97 65.878125 
z
" style="fill: #ffffff; opacity: 0.8; stroke: #cccccc; stroke-linejoin: miter"/>
    </g>
    <g id="line2d_30">
     <path d="M 99 56.298437 
L 109 56.298437 
L 119 56.298437 
" style="fill: none; stroke: #1f77b4; stroke-width: 1.5; stroke-linecap: square"/>
    </g>
    <g id="text_18">
     <!-- Average Return -->
     <g transform="translate(127 59.798437) scale(0.1 -0.1)">
      <defs>
       <path id="DejaVuSans-41" d="M 2188 4044 
L 1331 1722 
L 3047 1722 
L 2188 4044 
z
M 1831 4666 
L 2547 4666 
L 4325 0 
L 3669 0 
L 3244 1197 
L 1141 1197 
L 716 0 
L 50 0 
L 1831 4666 
z
" transform="scale(0.015625)"/>
       <path id="DejaVuSans-76" d="M 191 3500 
L 800 3500 
L 1894 563 
L 2988 3500 
L 3597 3500 
L 2284 0 
L 1503 0 
L 191 3500 
z
" transform="scale(0.015625)"/>
       <path id="DejaVuSans-74" d="M 1172 4494 
L 1172 3500 
L 2356 3500 
L 2356 3053 
L 1172 3053 
L 1172 1153 
Q 1172 725 1289 603 
Q 1406 481 1766 481 
L 2356 481 
L 2356 0 
L 1766 0 
Q 1100 0 847 248 
Q 594 497 594 1153 
L 594 3053 
L 172 3053 
L 172 3500 
L 594 3500 
L 594 4494 
L 1172 4494 
z
" transform="scale(0.015625)"/>
       <path id="DejaVuSans-75" d="M 544 1381 
L 544 3500 
L 1119 3500 
L 1119 1403 
Q 1119 906 1312 657 
Q 1506 409 1894 409 
Q 2359 409 2629 706 
Q 2900 1003 2900 1516 
L 2900 3500 
L 3475 3500 
L 3475 0 
L 2900 0 
L 2900 538 
Q 2691 219 2414 64 
Q 2138 -91 1772 -91 
Q 1169 -91 856 284 
Q 544 659 544 1381 
z
M 1991 3584 
L 1991 3584 
z
" transform="scale(0.015625)"/>
      </defs>
      <use xlink:href="#DejaVuSans-41"/>
      <use xlink:href="#DejaVuSans-76" x="62.533203"/>
      <use xlink:href="#DejaVuSans-65" x="121.712891"/>
      <use xlink:href="#DejaVuSans-72" x="183.236328"/>
      <use xlink:href="#DejaVuSans-61" x="224.349609"/>
      <use xlink:href="#DejaVuSans-67" x="285.628906"/>
      <use xlink:href="#DejaVuSans-65" x="349.105469"/>
      <use xlink:href="#DejaVuSans-20" x="410.628906"/>
      <use xlink:href="#DejaVuSans-52" x="442.416016"/>
      <use xlink:href="#DejaVuSans-65" x="507.398438"/>
      <use xlink:href="#DejaVuSans-74" x="568.921875"/>
      <use xlink:href="#DejaVuSans-75" x="608.130859"/>
      <use xlink:href="#DejaVuSans-72" x="671.509766"/>
      <use xlink:href="#DejaVuSans-6e" x="710.873047"/>
     </g>
    </g>
   </g>
  </g>
 </g>
 <defs>
  <clipPath id="peb82784237">
   <rect x="90" y="43.2" width="558" height="277.2"/>
  </clipPath>
 </defs>
</svg>
