<?xml version="1.0" encoding="utf-8" standalone="no"?>
<!DOCTYPE svg PUBLIC "-//W3C//DTD SVG 1.1//EN"
  "http://www.w3.org/Graphics/SVG/1.1/DTD/svg11.dtd">
<svg xmlns:xlink="http://www.w3.org/1999/xlink" width="720pt" height="360pt" viewBox="0 0 720 360" xmlns="http://www.w3.org/2000/svg" version="1.1">
 <metadata>
  <rdf:RDF xmlns:dc="http://purl.org/dc/elements/1.1/" xmlns:cc="http://creativecommons.org/ns#" xmlns:rdf="http://www.w3.org/1999/02/22-rdf-syntax-ns#">
   <cc:Work>
    <dc:type rdf:resource="http://purl.org/dc/dcmitype/StillImage"/>
    <dc:date>2024-05-21T02:54:02.852369</dc:date>
    <dc:format>image/svg+xml</dc:format>
    <dc:creator>
     <cc:Agent>
      <dc:title>Matplotlib v3.8.4, https://matplotlib.org/</dc:title>
     </cc:Agent>
    </dc:creator>
   </cc:Work>
  </rdf:RDF>
 </metadata>
 <defs>
  <style type="text/css">*{stroke-linejoin: round; stroke-linecap: butt}</style>
 </defs>
 <g id="figure_1">
  <g id="patch_1">
   <path d="M 0 360 
L 720 360 
L 720 0 
L 0 0 
z
" style="fill: #ffffff"/>
  </g>
  <g id="axes_1">
   <g id="patch_2">
    <path d="M 90 320.4 
L 648 320.4 
L 648 43.2 
L 90 43.2 
z
" style="fill: #ffffff"/>
   </g>
   <g id="matplotlib.axis_1">
    <g id="xtick_1">
     <g id="line2d_1">
      <path d="M 115.363636 320.4 
L 115.363636 43.2 
" clip-path="url(#p25a2b1e6b7)" style="fill: none; stroke: #b0b0b0; stroke-width: 0.8; stroke-linecap: square"/>
     </g>
     <g id="line2d_2">
      <defs>
       <path id="m801e451ba1" d="M 0 0 
L 0 3.5 
" style="stroke: #000000; stroke-width: 0.8"/>
      </defs>
      <g>
       <use xlink:href="#m801e451ba1" x="115.363636" y="320.4" style="stroke: #000000; stroke-width: 0.8"/>
      </g>
     </g>
     <g id="text_1">
      <!-- 0 -->
      <g transform="translate(112.182386 334.998438) scale(0.1 -0.1)">
       <defs>
        <path id="DejaVuSans-30" d="M 2034 4250 
Q 1547 4250 1301 3770 
Q 1056 3291 1056 2328 
Q 1056 1369 1301 889 
Q 1547 409 2034 409 
Q 2525 409 2770 889 
Q 3016 1369 3016 2328 
Q 3016 3291 2770 3770 
Q 2525 4250 2034 4250 
z
M 2034 4750 
Q 2819 4750 3233 4129 
Q 3647 3509 3647 2328 
Q 3647 1150 3233 529 
Q 2819 -91 2034 -91 
Q 1250 -91 836 529 
Q 422 1150 422 2328 
Q 422 3509 836 4129 
Q 1250 4750 2034 4750 
z
" transform="scale(0.015625)"/>
       </defs>
       <use xlink:href="#DejaVuSans-30"/>
      </g>
     </g>
    </g>
    <g id="xtick_2">
     <g id="line2d_3">
      <path d="M 183.408268 320.4 
L 183.408268 43.2 
" clip-path="url(#p25a2b1e6b7)" style="fill: none; stroke: #b0b0b0; stroke-width: 0.8; stroke-linecap: square"/>
     </g>
     <g id="line2d_4">
      <g>
       <use xlink:href="#m801e451ba1" x="183.408268" y="320.4" style="stroke: #000000; stroke-width: 0.8"/>
      </g>
     </g>
     <g id="text_2">
      <!-- 200 -->
      <g transform="translate(173.864518 334.998438) scale(0.1 -0.1)">
       <defs>
        <path id="DejaVuSans-32" d="M 1228 531 
L 3431 531 
L 3431 0 
L 469 0 
L 469 531 
Q 828 903 1448 1529 
Q 2069 2156 2228 2338 
Q 2531 2678 2651 2914 
Q 2772 3150 2772 3378 
Q 2772 3750 2511 3984 
Q 2250 4219 1831 4219 
Q 1534 4219 1204 4116 
Q 875 4013 500 3803 
L 500 4441 
Q 881 4594 1212 4672 
Q 1544 4750 1819 4750 
Q 2544 4750 2975 4387 
Q 3406 4025 3406 3419 
Q 3406 3131 3298 2873 
Q 3191 2616 2906 2266 
Q 2828 2175 2409 1742 
Q 1991 1309 1228 531 
z
" transform="scale(0.015625)"/>
       </defs>
       <use xlink:href="#DejaVuSans-32"/>
       <use xlink:href="#DejaVuSans-30" x="63.623047"/>
       <use xlink:href="#DejaVuSans-30" x="127.246094"/>
      </g>
     </g>
    </g>
    <g id="xtick_3">
     <g id="line2d_5">
      <path d="M 251.452899 320.4 
L 251.452899 43.2 
" clip-path="url(#p25a2b1e6b7)" style="fill: none; stroke: #b0b0b0; stroke-width: 0.8; stroke-linecap: square"/>
     </g>
     <g id="line2d_6">
      <g>
       <use xlink:href="#m801e451ba1" x="251.452899" y="320.4" style="stroke: #000000; stroke-width: 0.8"/>
      </g>
     </g>
     <g id="text_3">
      <!-- 400 -->
      <g transform="translate(241.909149 334.998438) scale(0.1 -0.1)">
       <defs>
        <path id="DejaVuSans-34" d="M 2419 4116 
L 825 1625 
L 2419 1625 
L 2419 4116 
z
M 2253 4666 
L 3047 4666 
L 3047 1625 
L 3713 1625 
L 3713 1100 
L 3047 1100 
L 3047 0 
L 2419 0 
L 2419 1100 
L 313 1100 
L 313 1709 
L 2253 4666 
z
" transform="scale(0.015625)"/>
       </defs>
       <use xlink:href="#DejaVuSans-34"/>
       <use xlink:href="#DejaVuSans-30" x="63.623047"/>
       <use xlink:href="#DejaVuSans-30" x="127.246094"/>
      </g>
     </g>
    </g>
    <g id="xtick_4">
     <g id="line2d_7">
      <path d="M 319.497531 320.4 
L 319.497531 43.2 
" clip-path="url(#p25a2b1e6b7)" style="fill: none; stroke: #b0b0b0; stroke-width: 0.8; stroke-linecap: square"/>
     </g>
     <g id="line2d_8">
      <g>
       <use xlink:href="#m801e451ba1" x="319.497531" y="320.4" style="stroke: #000000; stroke-width: 0.8"/>
      </g>
     </g>
     <g id="text_4">
      <!-- 600 -->
      <g transform="translate(309.953781 334.998438) scale(0.1 -0.1)">
       <defs>
        <path id="DejaVuSans-36" d="M 2113 2584 
Q 1688 2584 1439 2293 
Q 1191 2003 1191 1497 
Q 1191 994 1439 701 
Q 1688 409 2113 409 
Q 2538 409 2786 701 
Q 3034 994 3034 1497 
Q 3034 2003 2786 2293 
Q 2538 2584 2113 2584 
z
M 3366 4563 
L 3366 3988 
Q 3128 4100 2886 4159 
Q 2644 4219 2406 4219 
Q 1781 4219 1451 3797 
Q 1122 3375 1075 2522 
Q 1259 2794 1537 2939 
Q 1816 3084 2150 3084 
Q 2853 3084 3261 2657 
Q 3669 2231 3669 1497 
Q 3669 778 3244 343 
Q 2819 -91 2113 -91 
Q 1303 -91 875 529 
Q 447 1150 447 2328 
Q 447 3434 972 4092 
Q 1497 4750 2381 4750 
Q 2619 4750 2861 4703 
Q 3103 4656 3366 4563 
z
" transform="scale(0.015625)"/>
       </defs>
       <use xlink:href="#DejaVuSans-36"/>
       <use xlink:href="#DejaVuSans-30" x="63.623047"/>
       <use xlink:href="#DejaVuSans-30" x="127.246094"/>
      </g>
     </g>
    </g>
    <g id="xtick_5">
     <g id="line2d_9">
      <path d="M 387.542162 320.4 
L 387.542162 43.2 
" clip-path="url(#p25a2b1e6b7)" style="fill: none; stroke: #b0b0b0; stroke-width: 0.8; stroke-linecap: square"/>
     </g>
     <g id="line2d_10">
      <g>
       <use xlink:href="#m801e451ba1" x="387.542162" y="320.4" style="stroke: #000000; stroke-width: 0.8"/>
      </g>
     </g>
     <g id="text_5">
      <!-- 800 -->
      <g transform="translate(377.998412 334.998438) scale(0.1 -0.1)">
       <defs>
        <path id="DejaVuSans-38" d="M 2034 2216 
Q 1584 2216 1326 1975 
Q 1069 1734 1069 1313 
Q 1069 891 1326 650 
Q 1584 409 2034 409 
Q 2484 409 2743 651 
Q 3003 894 3003 1313 
Q 3003 1734 2745 1975 
Q 2488 2216 2034 2216 
z
M 1403 2484 
Q 997 2584 770 2862 
Q 544 3141 544 3541 
Q 544 4100 942 4425 
Q 1341 4750 2034 4750 
Q 2731 4750 3128 4425 
Q 3525 4100 3525 3541 
Q 3525 3141 3298 2862 
Q 3072 2584 2669 2484 
Q 3125 2378 3379 2068 
Q 3634 1759 3634 1313 
Q 3634 634 3220 271 
Q 2806 -91 2034 -91 
Q 1263 -91 848 271 
Q 434 634 434 1313 
Q 434 1759 690 2068 
Q 947 2378 1403 2484 
z
M 1172 3481 
Q 1172 3119 1398 2916 
Q 1625 2713 2034 2713 
Q 2441 2713 2670 2916 
Q 2900 3119 2900 3481 
Q 2900 3844 2670 4047 
Q 2441 4250 2034 4250 
Q 1625 4250 1398 4047 
Q 1172 3844 1172 3481 
z
" transform="scale(0.015625)"/>
       </defs>
       <use xlink:href="#DejaVuSans-38"/>
       <use xlink:href="#DejaVuSans-30" x="63.623047"/>
       <use xlink:href="#DejaVuSans-30" x="127.246094"/>
      </g>
     </g>
    </g>
    <g id="xtick_6">
     <g id="line2d_11">
      <path d="M 455.586793 320.4 
L 455.586793 43.2 
" clip-path="url(#p25a2b1e6b7)" style="fill: none; stroke: #b0b0b0; stroke-width: 0.8; stroke-linecap: square"/>
     </g>
     <g id="line2d_12">
      <g>
       <use xlink:href="#m801e451ba1" x="455.586793" y="320.4" style="stroke: #000000; stroke-width: 0.8"/>
      </g>
     </g>
     <g id="text_6">
      <!-- 1000 -->
      <g transform="translate(442.861793 334.998438) scale(0.1 -0.1)">
       <defs>
        <path id="DejaVuSans-31" d="M 794 531 
L 1825 531 
L 1825 4091 
L 703 3866 
L 703 4441 
L 1819 4666 
L 2450 4666 
L 2450 531 
L 3481 531 
L 3481 0 
L 794 0 
L 794 531 
z
" transform="scale(0.015625)"/>
       </defs>
       <use xlink:href="#DejaVuSans-31"/>
       <use xlink:href="#DejaVuSans-30" x="63.623047"/>
       <use xlink:href="#DejaVuSans-30" x="127.246094"/>
       <use xlink:href="#DejaVuSans-30" x="190.869141"/>
      </g>
     </g>
    </g>
    <g id="xtick_7">
     <g id="line2d_13">
      <path d="M 523.631425 320.4 
L 523.631425 43.2 
" clip-path="url(#p25a2b1e6b7)" style="fill: none; stroke: #b0b0b0; stroke-width: 0.8; stroke-linecap: square"/>
     </g>
     <g id="line2d_14">
      <g>
       <use xlink:href="#m801e451ba1" x="523.631425" y="320.4" style="stroke: #000000; stroke-width: 0.8"/>
      </g>
     </g>
     <g id="text_7">
      <!-- 1200 -->
      <g transform="translate(510.906425 334.998438) scale(0.1 -0.1)">
       <use xlink:href="#DejaVuSans-31"/>
       <use xlink:href="#DejaVuSans-32" x="63.623047"/>
       <use xlink:href="#DejaVuSans-30" x="127.246094"/>
       <use xlink:href="#DejaVuSans-30" x="190.869141"/>
      </g>
     </g>
    </g>
    <g id="xtick_8">
     <g id="line2d_15">
      <path d="M 591.676056 320.4 
L 591.676056 43.2 
" clip-path="url(#p25a2b1e6b7)" style="fill: none; stroke: #b0b0b0; stroke-width: 0.8; stroke-linecap: square"/>
     </g>
     <g id="line2d_16">
      <g>
       <use xlink:href="#m801e451ba1" x="591.676056" y="320.4" style="stroke: #000000; stroke-width: 0.8"/>
      </g>
     </g>
     <g id="text_8">
      <!-- 1400 -->
      <g transform="translate(578.951056 334.998438) scale(0.1 -0.1)">
       <use xlink:href="#DejaVuSans-31"/>
       <use xlink:href="#DejaVuSans-34" x="63.623047"/>
       <use xlink:href="#DejaVuSans-30" x="127.246094"/>
       <use xlink:href="#DejaVuSans-30" x="190.869141"/>
      </g>
     </g>
    </g>
    <g id="text_9">
     <!-- Episodes -->
     <g transform="translate(346.757812 348.676562) scale(0.1 -0.1)">
      <defs>
       <path id="DejaVuSans-45" d="M 628 4666 
L 3578 4666 
L 3578 4134 
L 1259 4134 
L 1259 2753 
L 3481 2753 
L 3481 2222 
L 1259 2222 
L 1259 531 
L 3634 531 
L 3634 0 
L 628 0 
L 628 4666 
z
" transform="scale(0.015625)"/>
       <path id="DejaVuSans-70" d="M 1159 525 
L 1159 -1331 
L 581 -1331 
L 581 3500 
L 1159 3500 
L 1159 2969 
Q 1341 3281 1617 3432 
Q 1894 3584 2278 3584 
Q 2916 3584 3314 3078 
Q 3713 2572 3713 1747 
Q 3713 922 3314 415 
Q 2916 -91 2278 -91 
Q 1894 -91 1617 61 
Q 1341 213 1159 525 
z
M 3116 1747 
Q 3116 2381 2855 2742 
Q 2594 3103 2138 3103 
Q 1681 3103 1420 2742 
Q 1159 2381 1159 1747 
Q 1159 1113 1420 752 
Q 1681 391 2138 391 
Q 2594 391 2855 752 
Q 3116 1113 3116 1747 
z
" transform="scale(0.015625)"/>
       <path id="DejaVuSans-69" d="M 603 3500 
L 1178 3500 
L 1178 0 
L 603 0 
L 603 3500 
z
M 603 4863 
L 1178 4863 
L 1178 4134 
L 603 4134 
L 603 4863 
z
" transform="scale(0.015625)"/>
       <path id="DejaVuSans-73" d="M 2834 3397 
L 2834 2853 
Q 2591 2978 2328 3040 
Q 2066 3103 1784 3103 
Q 1356 3103 1142 2972 
Q 928 2841 928 2578 
Q 928 2378 1081 2264 
Q 1234 2150 1697 2047 
L 1894 2003 
Q 2506 1872 2764 1633 
Q 3022 1394 3022 966 
Q 3022 478 2636 193 
Q 2250 -91 1575 -91 
Q 1294 -91 989 -36 
Q 684 19 347 128 
L 347 722 
Q 666 556 975 473 
Q 1284 391 1588 391 
Q 1994 391 2212 530 
Q 2431 669 2431 922 
Q 2431 1156 2273 1281 
Q 2116 1406 1581 1522 
L 1381 1569 
Q 847 1681 609 1914 
Q 372 2147 372 2553 
Q 372 3047 722 3315 
Q 1072 3584 1716 3584 
Q 2034 3584 2315 3537 
Q 2597 3491 2834 3397 
z
" transform="scale(0.015625)"/>
       <path id="DejaVuSans-6f" d="M 1959 3097 
Q 1497 3097 1228 2736 
Q 959 2375 959 1747 
Q 959 1119 1226 758 
Q 1494 397 1959 397 
Q 2419 397 2687 759 
Q 2956 1122 2956 1747 
Q 2956 2369 2687 2733 
Q 2419 3097 1959 3097 
z
M 1959 3584 
Q 2709 3584 3137 3096 
Q 3566 2609 3566 1747 
Q 3566 888 3137 398 
Q 2709 -91 1959 -91 
Q 1206 -91 779 398 
Q 353 888 353 1747 
Q 353 2609 779 3096 
Q 1206 3584 1959 3584 
z
" transform="scale(0.015625)"/>
       <path id="DejaVuSans-64" d="M 2906 2969 
L 2906 4863 
L 3481 4863 
L 3481 0 
L 2906 0 
L 2906 525 
Q 2725 213 2448 61 
Q 2172 -91 1784 -91 
Q 1150 -91 751 415 
Q 353 922 353 1747 
Q 353 2572 751 3078 
Q 1150 3584 1784 3584 
Q 2172 3584 2448 3432 
Q 2725 3281 2906 2969 
z
M 947 1747 
Q 947 1113 1208 752 
Q 1469 391 1925 391 
Q 2381 391 2643 752 
Q 2906 1113 2906 1747 
Q 2906 2381 2643 2742 
Q 2381 3103 1925 3103 
Q 1469 3103 1208 2742 
Q 947 2381 947 1747 
z
" transform="scale(0.015625)"/>
       <path id="DejaVuSans-65" d="M 3597 1894 
L 3597 1613 
L 953 1613 
Q 991 1019 1311 708 
Q 1631 397 2203 397 
Q 2534 397 2845 478 
Q 3156 559 3463 722 
L 3463 178 
Q 3153 47 2828 -22 
Q 2503 -91 2169 -91 
Q 1331 -91 842 396 
Q 353 884 353 1716 
Q 353 2575 817 3079 
Q 1281 3584 2069 3584 
Q 2775 3584 3186 3129 
Q 3597 2675 3597 1894 
z
M 3022 2063 
Q 3016 2534 2758 2815 
Q 2500 3097 2075 3097 
Q 1594 3097 1305 2825 
Q 1016 2553 972 2059 
L 3022 2063 
z
" transform="scale(0.015625)"/>
      </defs>
      <use xlink:href="#DejaVuSans-45"/>
      <use xlink:href="#DejaVuSans-70" x="63.183594"/>
      <use xlink:href="#DejaVuSans-69" x="126.660156"/>
      <use xlink:href="#DejaVuSans-73" x="154.443359"/>
      <use xlink:href="#DejaVuSans-6f" x="206.542969"/>
      <use xlink:href="#DejaVuSans-64" x="267.724609"/>
      <use xlink:href="#DejaVuSans-65" x="331.201172"/>
      <use xlink:href="#DejaVuSans-73" x="392.724609"/>
     </g>
    </g>
   </g>
   <g id="matplotlib.axis_2">
    <g id="ytick_1">
     <g id="line2d_17">
      <path d="M 90 292.934702 
L 648 292.934702 
" clip-path="url(#p25a2b1e6b7)" style="fill: none; stroke: #b0b0b0; stroke-width: 0.8; stroke-linecap: square"/>
     </g>
     <g id="line2d_18">
      <defs>
       <path id="meb50c4d6c6" d="M 0 0 
L -3.5 0 
" style="stroke: #000000; stroke-width: 0.8"/>
      </defs>
      <g>
       <use xlink:href="#meb50c4d6c6" x="90" y="292.934702" style="stroke: #000000; stroke-width: 0.8"/>
      </g>
     </g>
     <g id="text_10">
      <!-- 5000 -->
      <g transform="translate(57.55 296.733921) scale(0.1 -0.1)">
       <defs>
        <path id="DejaVuSans-35" d="M 691 4666 
L 3169 4666 
L 3169 4134 
L 1269 4134 
L 1269 2991 
Q 1406 3038 1543 3061 
Q 1681 3084 1819 3084 
Q 2600 3084 3056 2656 
Q 3513 2228 3513 1497 
Q 3513 744 3044 326 
Q 2575 -91 1722 -91 
Q 1428 -91 1123 -41 
Q 819 9 494 109 
L 494 744 
Q 775 591 1075 516 
Q 1375 441 1709 441 
Q 2250 441 2565 725 
Q 2881 1009 2881 1497 
Q 2881 1984 2565 2268 
Q 2250 2553 1709 2553 
Q 1456 2553 1204 2497 
Q 953 2441 691 2322 
L 691 4666 
z
" transform="scale(0.015625)"/>
       </defs>
       <use xlink:href="#DejaVuSans-35"/>
       <use xlink:href="#DejaVuSans-30" x="63.623047"/>
       <use xlink:href="#DejaVuSans-30" x="127.246094"/>
       <use xlink:href="#DejaVuSans-30" x="190.869141"/>
      </g>
     </g>
    </g>
    <g id="ytick_2">
     <g id="line2d_19">
      <path d="M 90 254.872121 
L 648 254.872121 
" clip-path="url(#p25a2b1e6b7)" style="fill: none; stroke: #b0b0b0; stroke-width: 0.8; stroke-linecap: square"/>
     </g>
     <g id="line2d_20">
      <g>
       <use xlink:href="#meb50c4d6c6" x="90" y="254.872121" style="stroke: #000000; stroke-width: 0.8"/>
      </g>
     </g>
     <g id="text_11">
      <!-- 7500 -->
      <g transform="translate(57.55 258.67134) scale(0.1 -0.1)">
       <defs>
        <path id="DejaVuSans-37" d="M 525 4666 
L 3525 4666 
L 3525 4397 
L 1831 0 
L 1172 0 
L 2766 4134 
L 525 4134 
L 525 4666 
z
" transform="scale(0.015625)"/>
       </defs>
       <use xlink:href="#DejaVuSans-37"/>
       <use xlink:href="#DejaVuSans-35" x="63.623047"/>
       <use xlink:href="#DejaVuSans-30" x="127.246094"/>
       <use xlink:href="#DejaVuSans-30" x="190.869141"/>
      </g>
     </g>
    </g>
    <g id="ytick_3">
     <g id="line2d_21">
      <path d="M 90 216.80954 
L 648 216.80954 
" clip-path="url(#p25a2b1e6b7)" style="fill: none; stroke: #b0b0b0; stroke-width: 0.8; stroke-linecap: square"/>
     </g>
     <g id="line2d_22">
      <g>
       <use xlink:href="#meb50c4d6c6" x="90" y="216.80954" style="stroke: #000000; stroke-width: 0.8"/>
      </g>
     </g>
     <g id="text_12">
      <!-- 10000 -->
      <g transform="translate(51.1875 220.608758) scale(0.1 -0.1)">
       <use xlink:href="#DejaVuSans-31"/>
       <use xlink:href="#DejaVuSans-30" x="63.623047"/>
       <use xlink:href="#DejaVuSans-30" x="127.246094"/>
       <use xlink:href="#DejaVuSans-30" x="190.869141"/>
       <use xlink:href="#DejaVuSans-30" x="254.492188"/>
      </g>
     </g>
    </g>
    <g id="ytick_4">
     <g id="line2d_23">
      <path d="M 90 178.746958 
L 648 178.746958 
" clip-path="url(#p25a2b1e6b7)" style="fill: none; stroke: #b0b0b0; stroke-width: 0.8; stroke-linecap: square"/>
     </g>
     <g id="line2d_24">
      <g>
       <use xlink:href="#meb50c4d6c6" x="90" y="178.746958" style="stroke: #000000; stroke-width: 0.8"/>
      </g>
     </g>
     <g id="text_13">
      <!-- 12500 -->
      <g transform="translate(51.1875 182.546177) scale(0.1 -0.1)">
       <use xlink:href="#DejaVuSans-31"/>
       <use xlink:href="#DejaVuSans-32" x="63.623047"/>
       <use xlink:href="#DejaVuSans-35" x="127.246094"/>
       <use xlink:href="#DejaVuSans-30" x="190.869141"/>
       <use xlink:href="#DejaVuSans-30" x="254.492188"/>
      </g>
     </g>
    </g>
    <g id="ytick_5">
     <g id="line2d_25">
      <path d="M 90 140.684377 
L 648 140.684377 
" clip-path="url(#p25a2b1e6b7)" style="fill: none; stroke: #b0b0b0; stroke-width: 0.8; stroke-linecap: square"/>
     </g>
     <g id="line2d_26">
      <g>
       <use xlink:href="#meb50c4d6c6" x="90" y="140.684377" style="stroke: #000000; stroke-width: 0.8"/>
      </g>
     </g>
     <g id="text_14">
      <!-- 15000 -->
      <g transform="translate(51.1875 144.483596) scale(0.1 -0.1)">
       <use xlink:href="#DejaVuSans-31"/>
       <use xlink:href="#DejaVuSans-35" x="63.623047"/>
       <use xlink:href="#DejaVuSans-30" x="127.246094"/>
       <use xlink:href="#DejaVuSans-30" x="190.869141"/>
       <use xlink:href="#DejaVuSans-30" x="254.492188"/>
      </g>
     </g>
    </g>
    <g id="ytick_6">
     <g id="line2d_27">
      <path d="M 90 102.621796 
L 648 102.621796 
" clip-path="url(#p25a2b1e6b7)" style="fill: none; stroke: #b0b0b0; stroke-width: 0.8; stroke-linecap: square"/>
     </g>
     <g id="line2d_28">
      <g>
       <use xlink:href="#meb50c4d6c6" x="90" y="102.621796" style="stroke: #000000; stroke-width: 0.8"/>
      </g>
     </g>
     <g id="text_15">
      <!-- 17500 -->
      <g transform="translate(51.1875 106.421015) scale(0.1 -0.1)">
       <use xlink:href="#DejaVuSans-31"/>
       <use xlink:href="#DejaVuSans-37" x="63.623047"/>
       <use xlink:href="#DejaVuSans-35" x="127.246094"/>
       <use xlink:href="#DejaVuSans-30" x="190.869141"/>
       <use xlink:href="#DejaVuSans-30" x="254.492188"/>
      </g>
     </g>
    </g>
    <g id="ytick_7">
     <g id="line2d_29">
      <path d="M 90 64.559215 
L 648 64.559215 
" clip-path="url(#p25a2b1e6b7)" style="fill: none; stroke: #b0b0b0; stroke-width: 0.8; stroke-linecap: square"/>
     </g>
     <g id="line2d_30">
      <g>
       <use xlink:href="#meb50c4d6c6" x="90" y="64.559215" style="stroke: #000000; stroke-width: 0.8"/>
      </g>
     </g>
     <g id="text_16">
      <!-- 20000 -->
      <g transform="translate(51.1875 68.358434) scale(0.1 -0.1)">
       <use xlink:href="#DejaVuSans-32"/>
       <use xlink:href="#DejaVuSans-30" x="63.623047"/>
       <use xlink:href="#DejaVuSans-30" x="127.246094"/>
       <use xlink:href="#DejaVuSans-30" x="190.869141"/>
       <use xlink:href="#DejaVuSans-30" x="254.492188"/>
      </g>
     </g>
    </g>
    <g id="text_17">
     <!-- Rewards -->
     <g transform="translate(45.107812 203.025781) rotate(-90) scale(0.1 -0.1)">
      <defs>
       <path id="DejaVuSans-52" d="M 2841 2188 
Q 3044 2119 3236 1894 
Q 3428 1669 3622 1275 
L 4263 0 
L 3584 0 
L 2988 1197 
Q 2756 1666 2539 1819 
Q 2322 1972 1947 1972 
L 1259 1972 
L 1259 0 
L 628 0 
L 628 4666 
L 2053 4666 
Q 2853 4666 3247 4331 
Q 3641 3997 3641 3322 
Q 3641 2881 3436 2590 
Q 3231 2300 2841 2188 
z
M 1259 4147 
L 1259 2491 
L 2053 2491 
Q 2509 2491 2742 2702 
Q 2975 2913 2975 3322 
Q 2975 3731 2742 3939 
Q 2509 4147 2053 4147 
L 1259 4147 
z
" transform="scale(0.015625)"/>
       <path id="DejaVuSans-77" d="M 269 3500 
L 844 3500 
L 1563 769 
L 2278 3500 
L 2956 3500 
L 3675 769 
L 4391 3500 
L 4966 3500 
L 4050 0 
L 3372 0 
L 2619 2869 
L 1863 0 
L 1184 0 
L 269 3500 
z
" transform="scale(0.015625)"/>
       <path id="DejaVuSans-61" d="M 2194 1759 
Q 1497 1759 1228 1600 
Q 959 1441 959 1056 
Q 959 750 1161 570 
Q 1363 391 1709 391 
Q 2188 391 2477 730 
Q 2766 1069 2766 1631 
L 2766 1759 
L 2194 1759 
z
M 3341 1997 
L 3341 0 
L 2766 0 
L 2766 531 
Q 2569 213 2275 61 
Q 1981 -91 1556 -91 
Q 1019 -91 701 211 
Q 384 513 384 1019 
Q 384 1609 779 1909 
Q 1175 2209 1959 2209 
L 2766 2209 
L 2766 2266 
Q 2766 2663 2505 2880 
Q 2244 3097 1772 3097 
Q 1472 3097 1187 3025 
Q 903 2953 641 2809 
L 641 3341 
Q 956 3463 1253 3523 
Q 1550 3584 1831 3584 
Q 2591 3584 2966 3190 
Q 3341 2797 3341 1997 
z
" transform="scale(0.015625)"/>
       <path id="DejaVuSans-72" d="M 2631 2963 
Q 2534 3019 2420 3045 
Q 2306 3072 2169 3072 
Q 1681 3072 1420 2755 
Q 1159 2438 1159 1844 
L 1159 0 
L 581 0 
L 581 3500 
L 1159 3500 
L 1159 2956 
Q 1341 3275 1631 3429 
Q 1922 3584 2338 3584 
Q 2397 3584 2469 3576 
Q 2541 3569 2628 3553 
L 2631 2963 
z
" transform="scale(0.015625)"/>
      </defs>
      <use xlink:href="#DejaVuSans-52"/>
      <use xlink:href="#DejaVuSans-65" x="64.982422"/>
      <use xlink:href="#DejaVuSans-77" x="126.505859"/>
      <use xlink:href="#DejaVuSans-61" x="208.292969"/>
      <use xlink:href="#DejaVuSans-72" x="269.572266"/>
      <use xlink:href="#DejaVuSans-64" x="308.935547"/>
      <use xlink:href="#DejaVuSans-73" x="372.412109"/>
     </g>
    </g>
   </g>
   <g id="line2d_31">
    <path d="M 115.363636 295.78648 
L 115.70386 300.571195 
L 116.044083 287.401316 
L 116.384306 302.718226 
L 116.724529 303.13155 
L 117.064752 298.526174 
L 117.404975 305.204803 
L 117.745198 303.993046 
L 118.085422 300.897308 
L 118.425645 305.567106 
L 118.765868 302.26701 
L 119.106091 303.076092 
L 119.446314 296.370536 
L 119.786537 302.677839 
L 120.126761 296.081579 
L 120.466984 298.370307 
L 120.807207 299.039077 
L 121.14743 297.754098 
L 121.487653 294.267475 
L 121.827876 299.676019 
L 122.1681 296.480443 
L 122.508323 301.220924 
L 122.848546 290.33471 
L 123.188769 295.680933 
L 123.528992 296.651104 
L 123.869215 295.732146 
L 124.209438 292.832955 
L 124.549662 288.402908 
L 124.889885 298.043221 
L 125.230108 298.070187 
L 125.570331 295.537904 
L 125.910554 294.931338 
L 126.250777 291.103731 
L 126.591001 304.424295 
L 126.931224 298.719842 
L 127.271447 296.396942 
L 127.951893 307.104128 
L 128.632339 288.430342 
L 129.312786 306.679783 
L 129.653009 292.458716 
L 129.993232 300.21044 
L 130.333455 299.642416 
L 130.673678 297.407708 
L 131.013902 297.591367 
L 131.354125 290.83722 
L 131.694348 302.421738 
L 132.034571 307.8 
L 132.374794 290.601187 
L 132.715017 294.490016 
L 133.055241 299.912191 
L 133.395464 302.630021 
L 133.735687 293.612148 
L 134.07591 292.991741 
L 134.416133 297.045515 
L 134.756356 288.600049 
L 135.096579 292.361257 
L 135.436803 301.731936 
L 135.777026 301.776585 
L 136.117249 302.165415 
L 136.457472 298.878156 
L 136.797695 290.936577 
L 137.137918 291.991997 
L 137.478142 297.644079 
L 137.818365 293.580284 
L 138.158588 298.364232 
L 138.498811 304.787733 
L 138.839034 290.591873 
L 139.179257 301.135095 
L 139.519481 290.611169 
L 139.859704 295.806921 
L 140.199927 288.973161 
L 140.54015 293.420646 
L 140.880373 302.488068 
L 141.220596 290.006699 
L 141.560819 294.449371 
L 141.901043 290.038789 
L 142.241266 295.207743 
L 142.581489 298.311145 
L 142.921712 299.590798 
L 143.602158 286.564113 
L 144.282605 300.993354 
L 144.622828 284.168749 
L 144.963051 290.498284 
L 145.303274 289.238991 
L 145.643497 296.192624 
L 145.983721 297.990068 
L 146.323944 290.837361 
L 146.664167 292.853231 
L 147.00439 287.886907 
L 147.344613 275.463569 
L 147.684836 288.873086 
L 148.025059 279.643722 
L 148.365283 285.298118 
L 148.705506 287.229076 
L 149.045729 288.321465 
L 149.385952 272.478392 
L 149.726175 286.410139 
L 150.406622 285.756791 
L 150.746845 277.603495 
L 151.087068 290.316792 
L 152.107737 272.587538 
L 152.44796 279.276544 
L 152.788184 270.360231 
L 153.128407 287.265969 
L 153.46863 269.406612 
L 153.808853 280.387898 
L 154.149076 269.155666 
L 154.489299 277.229646 
L 154.829523 272.315144 
L 155.169746 277.775248 
L 155.509969 270.213074 
L 155.850192 268.557909 
L 156.530638 278.642094 
L 156.870862 266.535148 
L 157.211085 286.56922 
L 157.551308 270.993704 
L 157.891531 269.708629 
L 158.231754 278.915007 
L 158.571977 268.548052 
L 158.9122 246.230019 
L 159.252424 279.897425 
L 159.592647 275.302234 
L 159.93287 254.316471 
L 160.613316 276.438665 
L 160.953539 272.451927 
L 161.293763 260.418188 
L 161.633986 265.777372 
L 161.974209 276.040911 
L 162.314432 268.531639 
L 162.654655 268.639039 
L 162.994878 263.36255 
L 163.675325 275.062417 
L 164.015548 266.074142 
L 164.355771 261.292676 
L 164.695994 265.011073 
L 165.036217 265.041776 
L 165.37644 273.372914 
L 165.716664 251.193912 
L 166.056887 263.179882 
L 166.39711 263.549882 
L 166.737333 260.226067 
L 167.077556 269.510514 
L 167.417779 255.091805 
L 167.758003 272.40825 
L 168.098226 244.141994 
L 168.438449 266.378756 
L 168.778672 261.326234 
L 169.118895 266.45171 
L 169.459118 252.928296 
L 169.799342 253.076772 
L 170.139565 262.523841 
L 170.479788 254.476746 
L 171.160234 276.121159 
L 171.500457 268.696609 
L 171.84068 272.004501 
L 172.180904 266.346276 
L 172.521127 266.299237 
L 172.86135 259.675492 
L 173.201573 248.085785 
L 173.541796 277.6593 
L 174.222243 261.436489 
L 174.562466 269.846226 
L 174.902689 262.091546 
L 175.242912 265.460877 
L 175.583135 262.200785 
L 175.923358 265.017321 
L 176.263581 276.919585 
L 176.603805 261.709144 
L 176.944028 271.609221 
L 177.284251 261.721609 
L 177.964697 274.231669 
L 178.30492 272.277917 
L 178.645144 247.399167 
L 178.985367 266.487139 
L 179.32559 271.838041 
L 179.665813 255.999725 
L 180.006036 272.541183 
L 180.346259 265.028803 
L 180.686483 278.73295 
L 181.026706 257.21335 
L 181.366929 271.173246 
L 181.707152 265.347736 
L 182.387598 279.781035 
L 183.068045 262.344059 
L 183.408268 266.036923 
L 183.748491 277.290632 
L 184.088714 260.938091 
L 184.428937 255.851249 
L 185.109384 273.647916 
L 185.449607 260.486098 
L 185.78983 262.523144 
L 186.130053 268.92232 
L 186.470276 258.023195 
L 186.810499 269.594981 
L 187.150723 269.1218 
L 187.490946 266.076825 
L 187.831169 271.819866 
L 188.171392 275.065716 
L 188.511615 263.586454 
L 189.192061 268.261776 
L 189.532285 269.694737 
L 189.872508 270.147269 
L 190.212731 269.755764 
L 190.552954 271.367524 
L 190.893177 270.125478 
L 191.2334 266.932852 
L 191.573624 272.400796 
L 191.913847 265.094588 
L 192.25407 269.054112 
L 192.594293 257.452351 
L 192.934516 272.872899 
L 193.274739 270.3752 
L 193.614963 274.089062 
L 193.955186 266.861041 
L 194.295409 273.524879 
L 194.635632 273.236079 
L 194.975855 263.025538 
L 195.316078 263.841346 
L 195.656301 267.611508 
L 195.996525 257.058182 
L 196.336748 269.913279 
L 196.676971 262.596129 
L 197.017194 259.152448 
L 197.357417 265.935169 
L 198.037864 263.613224 
L 198.378087 247.927286 
L 198.71831 282.077509 
L 199.058533 265.124658 
L 199.398756 271.364859 
L 199.738979 274.855642 
L 200.079202 264.422149 
L 200.419426 271.464932 
L 200.759649 263.316939 
L 201.099872 267.821867 
L 201.440095 269.255272 
L 201.780318 276.858939 
L 202.120541 258.830756 
L 202.460765 272.296346 
L 203.141211 258.338163 
L 203.481434 277.038436 
L 203.821657 267.590066 
L 204.16188 267.93412 
L 204.502104 259.291155 
L 204.842327 264.227618 
L 205.18255 256.290111 
L 205.522773 274.471876 
L 205.862996 270.725027 
L 206.203219 273.039993 
L 206.543442 267.29765 
L 206.883666 265.9424 
L 207.223889 270.334125 
L 207.564112 276.576198 
L 207.904335 272.547083 
L 208.244558 266.85365 
L 208.584781 265.976467 
L 208.925005 270.439463 
L 209.265228 264.927208 
L 209.605451 273.654926 
L 209.945674 265.410095 
L 210.285897 266.598758 
L 210.62612 266.794558 
L 210.966344 260.424183 
L 211.306567 274.990701 
L 211.64679 283.521096 
L 211.987013 262.239863 
L 212.327236 260.15286 
L 212.667459 272.939381 
L 213.007682 261.32855 
L 213.347906 271.115074 
L 213.688129 270.700413 
L 214.028352 267.472453 
L 214.708798 257.865362 
L 215.049021 271.027625 
L 215.389245 272.098293 
L 215.729468 270.217748 
L 216.069691 273.616642 
L 216.750137 260.97904 
L 217.09036 264.87373 
L 217.430584 276.573406 
L 217.770807 276.888564 
L 218.11103 268.87693 
L 218.451253 268.589526 
L 218.791476 266.091447 
L 219.131699 276.297199 
L 219.471922 272.803498 
L 219.812146 267.941257 
L 220.152369 250.229501 
L 220.492592 254.638797 
L 221.173038 271.161066 
L 221.513261 266.75583 
L 221.853485 272.511272 
L 222.193708 252.920747 
L 222.533931 261.505699 
L 222.874154 267.183685 
L 223.214377 266.284742 
L 223.5546 270.136707 
L 223.894823 276.392704 
L 224.235047 258.675651 
L 224.57527 269.918671 
L 224.915493 260.841507 
L 225.255716 262.011265 
L 225.595939 262.70521 
L 225.936162 276.820242 
L 226.276386 272.069715 
L 226.616609 265.315288 
L 226.956832 276.872642 
L 227.297055 269.905096 
L 227.637278 265.89016 
L 227.977501 266.718306 
L 228.317725 270.075362 
L 228.657948 262.299367 
L 228.998171 260.467003 
L 229.678617 265.253753 
L 230.01884 259.701818 
L 230.359063 256.322178 
L 230.699287 264.231614 
L 231.03951 257.932828 
L 231.379733 274.988163 
L 231.719956 270.090429 
L 232.060179 267.429284 
L 232.400402 266.278874 
L 232.740626 261.423199 
L 233.080849 272.242582 
L 233.421072 262.944306 
L 233.761295 270.701777 
L 234.101518 257.5457 
L 234.441741 265.203035 
L 234.781965 268.765629 
L 235.122188 273.979854 
L 235.462411 259.436015 
L 235.802634 273.695146 
L 236.142857 266.585182 
L 236.48308 272.831664 
L 236.823303 268.349827 
L 237.163527 259.727542 
L 237.50375 259.002387 
L 237.843973 265.660547 
L 238.184196 264.967269 
L 238.524419 273.890216 
L 238.864642 276.121191 
L 239.204866 253.528194 
L 239.545089 261.792659 
L 239.885312 256.787081 
L 240.225535 278.032377 
L 240.565758 270.97107 
L 240.905981 261.103409 
L 241.246204 259.966924 
L 241.586428 260.415301 
L 241.926651 258.307745 
L 242.266874 268.903828 
L 242.607097 270.895104 
L 242.94732 263.037369 
L 243.287543 258.403123 
L 243.627767 270.445331 
L 243.96799 273.247466 
L 244.308213 266.422592 
L 244.648436 267.296033 
L 244.988659 281.152049 
L 245.328882 274.526845 
L 245.669106 277.040529 
L 246.009329 276.261452 
L 246.349552 267.047643 
L 246.689775 267.883592 
L 247.029998 270.510101 
L 247.370221 244.540097 
L 247.710444 264.508202 
L 248.050668 276.361049 
L 248.390891 266.474928 
L 248.731114 263.515594 
L 249.071337 272.666124 
L 249.41156 260.300384 
L 250.092007 274.269383 
L 250.43223 274.054393 
L 250.772453 257.053519 
L 251.112676 263.906496 
L 251.452899 260.744257 
L 251.793122 272.728515 
L 252.133346 260.64891 
L 252.473569 256.177096 
L 252.813792 271.08142 
L 253.154015 264.021985 
L 253.494238 268.570812 
L 253.834461 270.527197 
L 254.174684 258.361191 
L 254.514908 269.553207 
L 254.855131 265.189047 
L 255.195354 262.996198 
L 255.535577 270.715226 
L 255.8758 253.671786 
L 256.216023 263.440452 
L 256.556247 264.07781 
L 256.89647 269.970849 
L 257.236693 261.84084 
L 257.576916 266.256004 
L 257.917139 266.267265 
L 258.257362 275.513205 
L 258.597586 281.100792 
L 258.937809 274.809396 
L 259.278032 276.318577 
L 259.618255 251.256969 
L 259.958478 269.624733 
L 260.298701 265.968917 
L 260.638924 266.95052 
L 260.979148 275.919713 
L 261.319371 269.779933 
L 261.659594 256.539991 
L 261.999817 262.957977 
L 262.34004 274.836389 
L 263.020487 268.507818 
L 263.36071 278.161758 
L 263.700933 269.757952 
L 264.041156 257.279991 
L 264.381379 258.799323 
L 264.721602 276.204231 
L 265.061825 269.340311 
L 265.402049 271.709357 
L 265.742272 264.265078 
L 266.082495 266.311132 
L 266.422718 263.456533 
L 266.762941 275.349092 
L 267.443388 262.849594 
L 267.783611 272.988292 
L 268.123834 272.631614 
L 268.464057 263.676947 
L 268.80428 263.600315 
L 269.144503 283.32704 
L 269.484727 262.987539 
L 269.82495 269.729596 
L 270.165173 272.805306 
L 270.505396 256.693828 
L 270.845619 261.670098 
L 271.185842 280.062127 
L 271.526065 271.57839 
L 271.866289 273.218666 
L 272.206512 265.440577 
L 272.546735 252.717747 
L 272.886958 269.545436 
L 273.227181 280.142344 
L 273.567404 264.035157 
L 273.907628 270.557869 
L 274.247851 263.827739 
L 274.588074 260.420598 
L 274.928297 270.874296 
L 275.26852 272.647314 
L 275.608743 271.297498 
L 275.948967 256.61444 
L 276.969636 279.079542 
L 277.309859 262.212136 
L 277.650082 271.125699 
L 277.990305 268.975907 
L 278.330529 270.36849 
L 278.670752 274.26434 
L 279.351198 266.370573 
L 279.691421 262.74803 
L 280.031644 271.249657 
L 280.712091 259.130055 
L 281.052314 268.729089 
L 281.392537 269.68078 
L 282.072983 276.732 
L 282.413207 269.269519 
L 282.75343 267.763632 
L 283.093653 269.787206 
L 283.433876 268.206997 
L 283.774099 262.830689 
L 284.114322 263.783808 
L 284.454545 270.387158 
L 284.794769 269.120404 
L 285.134992 277.624124 
L 285.475215 280.43955 
L 285.815438 271.21023 
L 286.155661 258.832754 
L 286.495884 263.628925 
L 286.836108 271.083291 
L 287.176331 273.247625 
L 287.516554 271.733464 
L 287.856777 281.720704 
L 288.537223 260.980562 
L 288.877446 262.970284 
L 289.21767 266.351446 
L 289.557893 257.386218 
L 289.898116 271.238047 
L 290.238339 277.722357 
L 290.578562 275.184598 
L 290.918785 262.884484 
L 291.259009 263.036703 
L 291.599232 264.337619 
L 291.939455 272.670184 
L 292.279678 258.753108 
L 292.619901 255.810839 
L 292.960124 264.968506 
L 293.300348 270.309067 
L 293.640571 283.697484 
L 293.980794 269.330129 
L 294.321017 268.761918 
L 294.66124 254.042293 
L 295.001463 267.632982 
L 295.341686 273.745293 
L 295.68191 271.794205 
L 296.022133 265.556287 
L 296.362356 248.023584 
L 297.042802 276.571027 
L 297.723249 259.972697 
L 298.063472 265.078824 
L 298.403695 268.08304 
L 298.743918 263.606373 
L 299.084141 269.743362 
L 299.424364 266.41149 
L 299.764588 258.7297 
L 300.445034 275.84086 
L 300.785257 269.555364 
L 301.12548 252.317614 
L 301.465703 260.320399 
L 301.805926 264.029439 
L 302.14615 276.21086 
L 302.486373 269.086972 
L 302.826596 277.832485 
L 303.166819 264.504745 
L 303.507042 263.095573 
L 303.847265 270.474068 
L 304.187489 263.182736 
L 304.527712 269.802168 
L 304.867935 273.31268 
L 305.208158 266.394013 
L 305.548381 264.608466 
L 305.888604 272.643667 
L 306.228828 271.301073 
L 306.569051 271.072761 
L 306.909274 265.626354 
L 307.249497 268.5717 
L 307.58972 278.975219 
L 307.929943 263.653634 
L 308.270166 263.141248 
L 308.61039 269.806165 
L 308.950613 263.241004 
L 309.290836 270.999078 
L 309.631059 260.773058 
L 309.971282 272.76496 
L 310.651729 262.167544 
L 310.991952 273.489132 
L 311.332175 278.442628 
L 311.672398 263.859965 
L 312.012621 265.93926 
L 312.352844 259.496376 
L 312.693067 271.43334 
L 313.033291 258.8967 
L 313.373514 278.691303 
L 313.713737 261.209826 
L 314.05396 268.621118 
L 314.394183 263.351481 
L 314.734406 276.609217 
L 315.07463 266.043647 
L 315.414853 269.46376 
L 315.755076 267.407271 
L 316.095299 280.761115 
L 316.435522 273.531794 
L 316.775745 282.341537 
L 317.115969 256.540499 
L 317.456192 262.343615 
L 317.796415 263.119648 
L 318.136638 265.792656 
L 318.476861 283.092131 
L 318.817084 264.58807 
L 319.157307 263.364707 
L 319.497531 267.136329 
L 319.837754 264.296162 
L 320.177977 274.753063 
L 320.5182 262.255405 
L 320.858423 265.567706 
L 321.198646 267.371079 
L 321.53887 264.243001 
L 321.879093 267.756971 
L 322.219316 259.728303 
L 322.559539 267.385385 
L 322.899762 263.727158 
L 323.239985 269.640371 
L 323.580209 262.272977 
L 323.920432 265.110892 
L 324.260655 274.561133 
L 324.600878 259.393575 
L 324.941101 268.129698 
L 325.281324 268.022267 
L 325.621547 271.333172 
L 325.961771 264.350496 
L 326.642217 279.319399 
L 326.98244 265.51426 
L 327.322663 260.111023 
L 327.662886 268.912265 
L 328.00311 263.574845 
L 328.343333 267.045073 
L 328.683556 260.496248 
L 329.023779 283.838221 
L 329.364002 262.612083 
L 329.704225 278.524399 
L 330.044449 266.356331 
L 330.384672 264.660358 
L 330.724895 260.289473 
L 331.405341 266.322836 
L 331.745564 267.150697 
L 332.085787 258.12165 
L 332.426011 256.002865 
L 332.766234 270.521488 
L 333.106457 275.471146 
L 333.44668 266.915597 
L 333.786903 261.413746 
L 334.127126 261.976724 
L 334.46735 270.071969 
L 334.807573 271.659876 
L 335.147796 268.570939 
L 335.488019 264.418946 
L 336.168465 273.7779 
L 336.508688 256.204533 
L 336.848912 261.442769 
L 337.189135 259.776167 
L 337.529358 276.294661 
L 337.869581 280.281622 
L 338.209804 262.97888 
L 338.550027 271.020996 
L 338.890251 266.425542 
L 339.230474 260.139348 
L 339.570697 257.972286 
L 339.91092 278.040528 
L 340.251143 267.448061 
L 340.591366 266.454755 
L 340.93159 269.745709 
L 341.271813 277.479169 
L 341.612036 282.575463 
L 341.952259 265.605959 
L 342.292482 270.508673 
L 342.632705 271.065402 
L 342.972928 269.699431 
L 343.313152 269.573571 
L 343.653375 264.764966 
L 343.993598 269.036603 
L 344.333821 263.122154 
L 344.674044 263.184005 
L 345.014267 264.121455 
L 345.354491 260.100175 
L 345.694714 268.02344 
L 346.034937 267.295018 
L 346.37516 264.521556 
L 346.715383 252.421652 
L 347.055606 258.957853 
L 347.39583 274.05084 
L 347.736053 282.434156 
L 348.076276 262.640535 
L 348.416499 271.296378 
L 348.756722 272.585114 
L 349.096945 262.708064 
L 349.437168 261.356874 
L 349.777392 263.941007 
L 350.117615 261.81426 
L 350.457838 250.162733 
L 350.798061 265.473565 
L 351.138284 264.226159 
L 351.478507 273.503913 
L 352.158954 268.783138 
L 352.499177 260.410512 
L 352.8394 278.632877 
L 353.179623 269.603164 
L 353.519846 269.122942 
L 353.86007 266.984808 
L 354.200293 258.975965 
L 354.540516 255.38365 
L 354.880739 258.972127 
L 355.220962 263.816288 
L 355.901408 258.364648 
L 356.241632 249.435674 
L 356.581855 272.264056 
L 356.922078 263.439247 
L 357.602524 283.715596 
L 357.942747 267.856441 
L 358.623194 255.080831 
L 358.963417 262.266221 
L 359.30364 264.224541 
L 359.643863 270.330287 
L 359.984086 264.1389 
L 360.664533 273.809175 
L 361.004756 275.902458 
L 361.344979 269.951532 
L 361.685202 274.361082 
L 362.025425 274.062545 
L 362.365648 276.016963 
L 362.705872 264.999178 
L 363.386318 270.405175 
L 363.726541 263.709459 
L 364.066764 261.533104 
L 364.406987 261.844646 
L 365.087434 247.012547 
L 365.427657 269.233926 
L 365.76788 263.844835 
L 366.108103 251.683491 
L 366.448326 275.531919 
L 366.788549 268.37406 
L 367.128773 269.95093 
L 367.468996 267.257685 
L 367.809219 266.359979 
L 368.149442 269.895675 
L 368.489665 250.445601 
L 369.170112 268.51762 
L 369.510335 271.502107 
L 369.850558 270.256953 
L 370.190781 271.879687 
L 370.531004 275.461313 
L 370.871227 261.050122 
L 371.211451 268.313033 
L 371.551674 269.509308 
L 371.891897 261.638379 
L 372.23212 273.090299 
L 372.572343 268.643448 
L 372.912566 262.02094 
L 373.252789 275.489225 
L 373.933236 260.781178 
L 374.273459 268.263869 
L 374.613682 258.024051 
L 374.953905 261.483337 
L 375.294128 260.118477 
L 375.634352 264.928635 
L 375.974575 266.619185 
L 376.314798 271.34605 
L 376.655021 263.165577 
L 376.995244 261.034421 
L 377.335467 271.614518 
L 377.675691 263.33172 
L 378.015914 257.860255 
L 378.356137 268.016113 
L 378.69636 266.279984 
L 379.036583 267.416881 
L 379.376806 267.657659 
L 379.717029 268.047642 
L 380.057253 263.618553 
L 380.397476 272.213433 
L 380.737699 268.823992 
L 381.077922 260.329248 
L 381.418145 271.017602 
L 381.758368 274.376846 
L 382.098592 258.305492 
L 382.779038 279.197821 
L 383.119261 263.164118 
L 383.459484 264.771215 
L 383.799707 263.431539 
L 384.13993 268.500555 
L 384.480154 271.534047 
L 384.820377 268.222888 
L 385.1606 260.149149 
L 385.500823 272.461157 
L 385.841046 266.903766 
L 386.181269 269.870078 
L 386.521493 265.73442 
L 386.861716 266.699053 
L 387.201939 279.673286 
L 387.542162 266.611763 
L 387.882385 272.506546 
L 388.222608 253.755365 
L 388.562832 270.91848 
L 388.903055 275.249843 
L 389.243278 275.637035 
L 389.583501 268.383417 
L 389.923724 264.400771 
L 390.263947 275.993808 
L 390.60417 268.52999 
L 390.944394 257.768747 
L 391.284617 268.831097 
L 391.62484 270.347002 
L 391.965063 268.136613 
L 392.305286 269.852157 
L 392.645509 276.773584 
L 392.985733 272.270558 
L 393.325956 260.82698 
L 393.666179 279.967827 
L 394.006402 261.63175 
L 394.346625 258.751174 
L 394.686848 270.64148 
L 395.027072 265.959085 
L 395.367295 255.343018 
L 395.707518 273.867823 
L 396.047741 261.695378 
L 396.387964 285.283362 
L 396.728187 270.633423 
L 397.06841 267.514227 
L 397.408634 272.092172 
L 397.748857 264.02928 
L 398.08908 261.91078 
L 398.429303 275.616925 
L 398.769526 267.78482 
L 399.109749 270.178353 
L 399.449973 255.057073 
L 399.790196 270.98731 
L 400.130419 266.15885 
L 400.470642 274.350425 
L 401.151088 258.646914 
L 401.831535 258.713745 
L 402.171758 273.16246 
L 402.511981 270.079644 
L 402.852204 264.39392 
L 403.192427 267.632982 
L 403.53265 269.677989 
L 403.872874 264.394808 
L 404.213097 262.476993 
L 404.55332 281.575971 
L 404.893543 259.599081 
L 405.233766 269.296887 
L 405.573989 261.065347 
L 405.914213 268.618105 
L 406.254436 266.054178 
L 406.594659 265.31459 
L 406.934882 268.189235 
L 407.275105 266.274497 
L 407.615328 267.929997 
L 407.955551 265.816382 
L 408.295775 260.625343 
L 408.635998 261.471189 
L 408.976221 268.843626 
L 409.316444 268.572779 
L 409.656667 258.515471 
L 409.99689 263.725287 
L 410.337114 260.510014 
L 410.677337 252.253669 
L 411.01756 263.437153 
L 411.357783 257.289126 
L 411.698006 258.742483 
L 412.038229 263.606436 
L 412.718676 275.742754 
L 413.058899 258.218424 
L 413.399122 275.8977 
L 413.739345 268.665176 
L 414.079568 254.856579 
L 414.419791 268.70216 
L 414.760015 259.503607 
L 415.100238 266.107782 
L 415.440461 259.27095 
L 415.780684 269.14451 
L 416.120907 256.91827 
L 416.46113 263.383897 
L 416.801354 266.683352 
L 417.141577 265.153363 
L 417.4818 276.035328 
L 417.822023 266.392903 
L 418.162246 276.569727 
L 418.502469 273.715509 
L 418.842693 272.720807 
L 419.182916 258.152925 
L 419.523139 259.19603 
L 419.863362 272.345351 
L 420.203585 266.66191 
L 420.543808 273.238268 
L 420.884031 270.893264 
L 421.224255 262.545093 
L 421.904701 271.757855 
L 422.244924 270.312841 
L 422.585147 273.068604 
L 422.92537 268.725156 
L 423.265594 270.20338 
L 423.605817 265.260731 
L 423.94604 256.559086 
L 424.286263 264.673013 
L 424.626486 269.906143 
L 424.966709 258.836561 
L 425.306933 253.7802 
L 425.647156 280.057052 
L 425.987379 268.131855 
L 426.327602 265.731185 
L 426.667825 279.247874 
L 427.008048 250.946505 
L 427.348271 275.556596 
L 428.028718 254.74201 
L 428.368941 268.210899 
L 428.709164 248.747693 
L 429.049387 271.612107 
L 429.38961 264.795067 
L 429.729834 263.559493 
L 430.070057 265.774703 
L 430.41028 276.880191 
L 430.750503 272.151137 
L 431.090726 265.603897 
L 431.430949 269.18086 
L 431.771172 266.666097 
L 432.111396 254.052538 
L 432.451619 272.485263 
L 432.791842 256.855594 
L 433.132065 262.773881 
L 433.472288 274.633801 
L 433.812511 257.982563 
L 434.152735 258.449908 
L 434.492958 270.913564 
L 435.173404 267.055097 
L 435.513627 262.816511 
L 435.85385 269.476955 
L 436.194074 264.130875 
L 436.534297 275.51847 
L 436.87452 262.995215 
L 437.214743 269.824593 
L 437.554966 260.413684 
L 437.895189 263.121614 
L 438.235412 260.782827 
L 438.575636 272.643001 
L 438.915859 270.459477 
L 439.256082 276.141111 
L 439.596305 266.458751 
L 439.936528 278.341984 
L 440.276751 266.135219 
L 440.616975 262.488031 
L 440.957198 271.661494 
L 441.297421 264.346119 
L 441.637644 261.755739 
L 441.977867 268.964284 
L 442.31809 264.519019 
L 442.658314 276.43673 
L 442.998537 273.450562 
L 443.33876 266.657438 
L 444.019206 259.577861 
L 444.359429 261.388784 
L 444.699652 269.956163 
L 445.039876 263.854478 
L 445.380099 278.324888 
L 445.720322 276.408976 
L 446.740991 262.072895 
L 447.081215 275.627488 
L 447.421438 255.155116 
L 447.761661 270.15818 
L 448.101884 263.778574 
L 448.442107 261.988713 
L 448.78233 266.058682 
L 449.122554 276.267542 
L 449.462777 268.01938 
L 449.803 279.28305 
L 450.143223 266.861168 
L 450.483446 262.343108 
L 450.823669 260.034358 
L 451.163892 260.313833 
L 451.504116 275.539817 
L 451.844339 266.42643 
L 452.184562 280.683182 
L 452.524785 272.003613 
L 452.865008 286.713817 
L 453.205231 268.127668 
L 453.545455 256.79647 
L 453.885678 269.840485 
L 454.225901 277.700534 
L 454.566124 258.254679 
L 454.906347 261.460214 
L 455.24657 257.863332 
L 455.586793 272.930595 
L 455.927017 264.341774 
L 456.26724 269.058743 
L 456.607463 267.989945 
L 456.947686 278.253552 
L 457.287909 259.521021 
L 457.628132 273.047225 
L 457.968356 266.179467 
L 458.308579 272.32521 
L 458.648802 267.758461 
L 458.989025 271.423507 
L 459.329248 269.538648 
L 459.669471 251.005978 
L 460.009695 277.828996 
L 460.349918 268.826656 
L 460.690141 268.047325 
L 461.030364 270.121894 
L 461.370587 264.231868 
L 461.71081 281.217485 
L 462.051033 272.706882 
L 462.391257 267.935611 
L 462.73148 260.163803 
L 463.071703 273.698825 
L 463.411926 269.949026 
L 463.752149 262.852924 
L 464.092372 266.343866 
L 464.432596 262.372511 
L 464.772819 268.832587 
L 465.113042 269.133155 
L 465.453265 258.410038 
L 466.133711 269.707932 
L 466.473935 265.817968 
L 466.814158 270.572016 
L 467.154381 264.968284 
L 467.494604 262.0335 
L 467.834827 264.517306 
L 468.515273 265.358076 
L 469.19572 273.202013 
L 469.535943 261.931937 
L 469.876166 271.009545 
L 470.216389 265.799476 
L 470.556612 267.250421 
L 470.896836 263.079333 
L 471.237059 251.878372 
L 471.577282 272.344717 
L 471.917505 259.237042 
L 472.597951 271.638022 
L 472.938175 274.881747 
L 473.278398 270.372663 
L 473.618621 269.275826 
L 473.958844 272.056203 
L 474.299067 265.959465 
L 474.63929 271.51232 
L 474.979513 265.211708 
L 475.319737 272.722171 
L 475.65996 268.759 
L 476.000183 256.499835 
L 476.340406 268.804516 
L 476.680629 267.952476 
L 477.020852 275.838971 
L 477.361076 258.6223 
L 477.701299 273.383667 
L 478.041522 265.814954 
L 478.381745 267.620992 
L 478.721968 262.715233 
L 479.062191 266.509438 
L 479.402414 254.193465 
L 479.742638 264.820442 
L 480.082861 251.892795 
L 480.423084 270.228501 
L 480.763307 257.954778 
L 481.10353 266.867004 
L 481.443753 262.348183 
L 481.783977 271.885492 
L 482.1242 273.894616 
L 482.464423 268.794824 
L 482.804646 268.113037 
L 483.144869 271.324418 
L 483.485092 277.888419 
L 483.825316 257.439854 
L 484.165539 258.13973 
L 484.505762 274.085921 
L 484.845985 271.545688 
L 485.186208 249.975352 
L 485.526431 255.726943 
L 486.206878 271.327318 
L 486.547101 256.441953 
L 486.887324 275.79253 
L 487.227547 273.500315 
L 487.56777 273.708585 
L 487.907993 254.875053 
L 488.248217 260.895429 
L 488.58844 261.769831 
L 488.928663 252.243283 
L 489.268886 268.821993 
L 489.609109 256.416306 
L 489.949332 251.468202 
L 490.289556 267.168582 
L 490.629779 263.933557 
L 490.970002 270.551263 
L 491.650448 259.723677 
L 491.990671 254.160826 
L 492.330894 259.272658 
L 492.671118 259.715457 
L 493.011341 258.111691 
L 493.351564 267.099163 
L 493.691787 271.49429 
L 494.03201 258.449161 
L 494.372233 250.068718 
L 494.712457 269.851994 
L 495.05268 258.628739 
L 495.392903 272.462643 
L 495.733126 256.79265 
L 496.073349 265.341071 
L 496.413572 256.331658 
L 496.753796 256.92963 
L 497.094019 268.828559 
L 497.434242 256.267794 
L 497.774465 270.682877 
L 498.114688 264.891044 
L 498.454911 262.184595 
L 498.795134 272.900499 
L 499.135358 261.158192 
L 499.475581 256.028648 
L 499.815804 264.440578 
L 500.49625 270.147446 
L 500.836473 267.122055 
L 501.176697 270.024105 
L 501.51692 258.015107 
L 501.857143 273.462234 
L 502.197366 269.104386 
L 502.537589 266.279445 
L 502.877812 270.930787 
L 503.218035 259.33702 
L 503.558259 257.763989 
L 503.898482 259.334705 
L 504.238705 276.934303 
L 504.578928 264.846103 
L 504.919151 260.17833 
L 505.259374 266.257019 
L 505.599598 264.948079 
L 505.939821 267.01862 
L 506.280044 263.18705 
L 506.620267 265.485967 
L 506.96049 279.925197 
L 507.300713 260.498436 
L 507.640937 265.241478 
L 507.98116 265.773561 
L 508.321383 258.510396 
L 509.001829 274.991747 
L 509.342052 261.268157 
L 509.682275 265.868305 
L 510.362722 260.669528 
L 510.702945 275.870486 
L 511.043168 266.153965 
L 511.383391 268.12031 
L 511.723614 263.545378 
L 512.063838 270.712246 
L 512.744284 257.44391 
L 513.084507 259.018726 
L 513.42473 248.0904 
L 513.764953 262.119035 
L 514.105177 238.835714 
L 514.4454 247.174029 
L 514.785623 242.010487 
L 515.125846 249.742551 
L 515.466069 239.616241 
L 515.806292 238.428783 
L 516.146515 233.386202 
L 516.486739 230.039841 
L 516.826962 208.496746 
L 517.167185 222.541122 
L 517.507408 226.254624 
L 517.847631 244.019647 
L 518.187854 229.229344 
L 518.528078 232.023335 
L 518.868301 231.292849 
L 519.208524 229.13945 
L 519.548747 231.931188 
L 519.88897 241.711325 
L 520.229193 238.893648 
L 520.569416 219.755756 
L 520.90964 223.66356 
L 521.249863 219.911057 
L 521.590086 221.891053 
L 521.930309 240.152596 
L 522.270532 229.15478 
L 522.610755 232.706803 
L 522.950979 228.469292 
L 523.291202 231.254826 
L 523.631425 227.708831 
L 523.971648 222.197703 
L 524.311871 219.984426 
L 524.992318 234.22385 
L 525.332541 225.859358 
L 525.672764 221.10776 
L 526.012987 218.689463 
L 526.35321 228.016225 
L 526.693433 229.693084 
L 527.033656 229.991449 
L 527.37388 230.892639 
L 527.714103 222.226484 
L 528.054326 227.665364 
L 528.394549 216.953012 
L 528.734772 229.515327 
L 529.074995 221.245896 
L 529.415219 219.196487 
L 530.435888 241.047683 
L 530.776111 228.307241 
L 531.116334 221.229114 
L 531.456558 225.560635 
L 531.796781 225.069799 
L 532.137004 227.367 
L 532.477227 223.863968 
L 532.81745 223.012401 
L 533.157673 220.647716 
L 533.497896 221.307698 
L 533.83812 210.891795 
L 534.178343 221.585603 
L 534.518566 222.38524 
L 534.858789 228.645585 
L 535.199012 214.911798 
L 535.539235 214.353539 
L 535.879459 222.143492 
L 536.219682 207.408866 
L 536.559905 223.097346 
L 536.900128 213.593746 
L 537.240351 221.106494 
L 537.580574 224.963109 
L 537.920798 222.616419 
L 538.261021 199.248017 
L 538.601244 196.070173 
L 538.941467 219.893215 
L 539.28169 219.957669 
L 539.621913 206.019231 
L 540.30236 222.898927 
L 540.642583 219.168504 
L 540.982806 192.337219 
L 541.323029 219.500387 
L 541.663252 213.167115 
L 542.003475 201.111657 
L 542.343699 201.076005 
L 542.683922 208.89489 
L 543.024145 211.138738 
L 543.364368 207.383242 
L 544.044814 192.055878 
L 544.385037 191.872064 
L 544.725261 204.514262 
L 545.065484 203.76905 
L 545.405707 191.276263 
L 545.74593 199.475532 
L 546.086153 184.215056 
L 546.426376 181.969769 
L 546.7666 188.728001 
L 547.106823 179.928595 
L 547.447046 190.038549 
L 547.787269 161.179507 
L 548.127492 195.722031 
L 548.467715 191.279854 
L 548.807939 172.231832 
L 549.148162 186.409063 
L 549.488385 164.947868 
L 549.828608 175.130963 
L 550.168831 178.630084 
L 550.849277 165.612627 
L 551.189501 179.778187 
L 551.529724 172.499788 
L 551.869947 148.481758 
L 552.21017 161.295899 
L 552.550393 151.368505 
L 552.890616 162.656523 
L 553.23084 160.593001 
L 553.571063 183.315592 
L 553.911286 133.692979 
L 554.251509 155.494106 
L 554.591732 165.09401 
L 554.931955 152.481004 
L 555.272179 148.776156 
L 555.612402 173.408346 
L 555.952625 157.945323 
L 556.292848 150.336268 
L 556.633071 166.148507 
L 556.973294 153.350458 
L 557.313517 147.795546 
L 557.653741 159.842036 
L 557.993964 150.754998 
L 558.334187 150.24297 
L 558.67441 142.132772 
L 559.014633 151.293939 
L 559.354856 146.457796 
L 559.69508 155.686739 
L 560.035303 148.71461 
L 560.375526 151.579179 
L 560.715749 135.336961 
L 561.396195 159.852757 
L 562.076642 135.087846 
L 562.416865 154.146732 
L 562.757088 144.887438 
L 563.097311 143.807353 
L 563.437534 133.239241 
L 563.777757 116.62236 
L 564.117981 132.486966 
L 564.458204 132.568329 
L 564.798427 139.565383 
L 565.13865 129.969049 
L 565.478873 135.993132 
L 565.819096 137.307338 
L 566.15932 122.077421 
L 566.499543 137.574442 
L 566.839766 113.919056 
L 567.179989 137.216269 
L 567.520212 108.186165 
L 567.860435 132.88656 
L 568.200658 140.378862 
L 568.540882 134.06891 
L 568.881105 124.351248 
L 569.221328 121.161848 
L 569.561551 120.63707 
L 569.901774 133.261254 
L 570.241997 125.214602 
L 570.582221 128.419313 
L 570.922444 115.986774 
L 571.262667 129.948509 
L 571.60289 109.858571 
L 572.283336 102.519884 
L 572.62356 125.688228 
L 572.963783 120.405554 
L 573.304006 125.604617 
L 573.644229 101.94571 
L 573.984452 121.799723 
L 574.324675 112.255943 
L 574.664898 108.895651 
L 575.005122 139.393072 
L 575.345345 106.312281 
L 575.685568 113.023158 
L 576.025791 97.96208 
L 576.366014 116.572906 
L 576.706237 119.945124 
L 577.386684 128.987397 
L 577.726907 126.007383 
L 578.06713 106.266669 
L 578.407353 122.96872 
L 578.747576 128.15094 
L 579.0878 109.155365 
L 579.428023 114.694073 
L 579.768246 139.608348 
L 580.108469 106.621983 
L 580.448692 126.235853 
L 580.788915 115.451455 
L 581.129138 123.151008 
L 581.469362 106.673114 
L 581.809585 106.343428 
L 582.149808 130.802729 
L 582.490031 113.310974 
L 582.830254 114.10737 
L 583.170477 120.277029 
L 583.510701 108.108612 
L 583.850924 107.448861 
L 584.191147 119.05595 
L 584.53137 135.004298 
L 584.871593 124.580416 
L 585.211816 133.481954 
L 585.55204 107.464467 
L 585.892263 113.819776 
L 586.232486 116.325531 
L 586.572709 117.672629 
L 586.912932 125.105617 
L 587.253155 116.838138 
L 587.593378 115.495259 
L 587.933602 119.237128 
L 588.273825 109.88125 
L 588.614048 111.913253 
L 588.954271 112.429572 
L 589.294494 110.776609 
L 589.634717 121.69467 
L 589.974941 116.768294 
L 590.315164 127.483259 
L 590.99561 97.65685 
L 591.335833 120.913816 
L 591.676056 84.585905 
L 592.016279 111.804774 
L 592.356503 108.322365 
L 592.696726 123.515933 
L 593.036949 113.598569 
L 593.377172 111.376317 
L 593.717395 129.266174 
L 594.057618 104.957411 
L 594.397842 114.879184 
L 594.738065 118.418307 
L 595.078288 105.591756 
L 595.418511 118.219842 
L 595.758734 111.207858 
L 596.098957 107.955284 
L 596.439181 109.216931 
L 596.779404 115.212295 
L 597.119627 134.573747 
L 597.45985 101.574758 
L 598.140296 126.313755 
L 598.480519 129.813165 
L 598.820743 98.699415 
L 599.160966 106.818608 
L 599.501189 123.728037 
L 599.841412 114.477465 
L 600.181635 126.79163 
L 600.521858 130.708365 
L 600.862082 118.098486 
L 601.202305 113.439404 
L 601.542528 131.496134 
L 601.882751 140.069064 
L 602.222974 120.910232 
L 602.563197 118.607478 
L 602.903421 113.509629 
L 603.583867 133.939529 
L 603.92409 110.836748 
L 604.604536 129.004303 
L 604.944759 117.151584 
L 605.284983 116.233165 
L 605.965429 120.262883 
L 606.305652 113.453043 
L 606.645875 129.416965 
L 606.986098 111.414792 
L 607.326322 106.105506 
L 607.666545 122.714081 
L 608.006768 104.261056 
L 608.346991 117.563484 
L 608.687214 113.353097 
L 609.027437 127.758674 
L 609.367661 129.430858 
L 609.707884 128.031677 
L 610.048107 133.207522 
L 610.38833 114.994895 
L 610.728553 113.427192 
L 611.068776 110.391543 
L 611.408999 115.898595 
L 611.749223 113.246807 
L 612.089446 112.692933 
L 612.429669 133.82366 
L 612.769892 138.884017 
L 613.450338 116.976972 
L 613.790562 122.369646 
L 614.130785 110.23511 
L 614.471008 119.792986 
L 614.811231 126.131349 
L 615.491677 104.050602 
L 615.8319 133.648763 
L 616.172124 99.551922 
L 616.512347 135.654851 
L 616.85257 109.787711 
L 617.192793 113.087547 
L 617.533016 128.840486 
L 617.873239 80.341991 
L 618.213463 135.888746 
L 618.553686 107.287761 
L 618.893909 112.009932 
L 619.234132 141.187818 
L 619.574355 111.95398 
L 619.914578 125.833627 
L 620.254802 115.41869 
L 620.595025 116.452977 
L 620.935248 130.277306 
L 621.275471 129.085948 
L 621.615694 136.626145 
L 621.955917 55.8 
L 622.29614 77.281506 
L 622.636364 137.850491 
L 622.636364 137.850491 
" clip-path="url(#p25a2b1e6b7)" style="fill: none; stroke: #1f77b4; stroke-width: 1.5; stroke-linecap: square"/>
   </g>
   <g id="patch_3">
    <path d="M 90 320.4 
L 90 43.2 
" style="fill: none; stroke: #000000; stroke-width: 0.8; stroke-linejoin: miter; stroke-linecap: square"/>
   </g>
   <g id="patch_4">
    <path d="M 648 320.4 
L 648 43.2 
" style="fill: none; stroke: #000000; stroke-width: 0.8; stroke-linejoin: miter; stroke-linecap: square"/>
   </g>
   <g id="patch_5">
    <path d="M 90 320.4 
L 648 320.4 
" style="fill: none; stroke: #000000; stroke-width: 0.8; stroke-linejoin: miter; stroke-linecap: square"/>
   </g>
   <g id="patch_6">
    <path d="M 90 43.2 
L 648 43.2 
" style="fill: none; stroke: #000000; stroke-width: 0.8; stroke-linejoin: miter; stroke-linecap: square"/>
   </g>
   <g id="text_18">
    <!-- Model Training -->
    <g transform="translate(325.40625 37.2) scale(0.12 -0.12)">
     <defs>
      <path id="DejaVuSans-4d" d="M 628 4666 
L 1569 4666 
L 2759 1491 
L 3956 4666 
L 4897 4666 
L 4897 0 
L 4281 0 
L 4281 4097 
L 3078 897 
L 2444 897 
L 1241 4097 
L 1241 0 
L 628 0 
L 628 4666 
z
" transform="scale(0.015625)"/>
      <path id="DejaVuSans-6c" d="M 603 4863 
L 1178 4863 
L 1178 0 
L 603 0 
L 603 4863 
z
" transform="scale(0.015625)"/>
      <path id="DejaVuSans-20" transform="scale(0.015625)"/>
      <path id="DejaVuSans-54" d="M -19 4666 
L 3928 4666 
L 3928 4134 
L 2272 4134 
L 2272 0 
L 1638 0 
L 1638 4134 
L -19 4134 
L -19 4666 
z
" transform="scale(0.015625)"/>
      <path id="DejaVuSans-6e" d="M 3513 2113 
L 3513 0 
L 2938 0 
L 2938 2094 
Q 2938 2591 2744 2837 
Q 2550 3084 2163 3084 
Q 1697 3084 1428 2787 
Q 1159 2491 1159 1978 
L 1159 0 
L 581 0 
L 581 3500 
L 1159 3500 
L 1159 2956 
Q 1366 3272 1645 3428 
Q 1925 3584 2291 3584 
Q 2894 3584 3203 3211 
Q 3513 2838 3513 2113 
z
" transform="scale(0.015625)"/>
      <path id="DejaVuSans-67" d="M 2906 1791 
Q 2906 2416 2648 2759 
Q 2391 3103 1925 3103 
Q 1463 3103 1205 2759 
Q 947 2416 947 1791 
Q 947 1169 1205 825 
Q 1463 481 1925 481 
Q 2391 481 2648 825 
Q 2906 1169 2906 1791 
z
M 3481 434 
Q 3481 -459 3084 -895 
Q 2688 -1331 1869 -1331 
Q 1566 -1331 1297 -1286 
Q 1028 -1241 775 -1147 
L 775 -588 
Q 1028 -725 1275 -790 
Q 1522 -856 1778 -856 
Q 2344 -856 2625 -561 
Q 2906 -266 2906 331 
L 2906 616 
Q 2728 306 2450 153 
Q 2172 0 1784 0 
Q 1141 0 747 490 
Q 353 981 353 1791 
Q 353 2603 747 3093 
Q 1141 3584 1784 3584 
Q 2172 3584 2450 3431 
Q 2728 3278 2906 2969 
L 2906 3500 
L 3481 3500 
L 3481 434 
z
" transform="scale(0.015625)"/>
     </defs>
     <use xlink:href="#DejaVuSans-4d"/>
     <use xlink:href="#DejaVuSans-6f" x="86.279297"/>
     <use xlink:href="#DejaVuSans-64" x="147.460938"/>
     <use xlink:href="#DejaVuSans-65" x="210.9375"/>
     <use xlink:href="#DejaVuSans-6c" x="272.460938"/>
     <use xlink:href="#DejaVuSans-20" x="300.244141"/>
     <use xlink:href="#DejaVuSans-54" x="332.03125"/>
     <use xlink:href="#DejaVuSans-72" x="378.365234"/>
     <use xlink:href="#DejaVuSans-61" x="419.478516"/>
     <use xlink:href="#DejaVuSans-69" x="480.757812"/>
     <use xlink:href="#DejaVuSans-6e" x="508.541016"/>
     <use xlink:href="#DejaVuSans-69" x="571.919922"/>
     <use xlink:href="#DejaVuSans-6e" x="599.703125"/>
     <use xlink:href="#DejaVuSans-67" x="663.082031"/>
    </g>
   </g>
   <g id="legend_1">
    <g id="patch_7">
     <path d="M 97 65.878125 
L 206.426562 65.878125 
Q 208.426562 65.878125 208.426562 63.878125 
L 208.426562 50.2 
Q 208.426562 48.2 206.426562 48.2 
L 97 48.2 
Q 95 48.2 95 50.2 
L 95 63.878125 
Q 95 65.878125 97 65.878125 
z
" style="fill: #ffffff; opacity: 0.8; stroke: #cccccc; stroke-linejoin: miter"/>
    </g>
    <g id="line2d_32">
     <path d="M 99 56.298437 
L 109 56.298437 
L 119 56.298437 
" style="fill: none; stroke: #1f77b4; stroke-width: 1.5; stroke-linecap: square"/>
    </g>
    <g id="text_19">
     <!-- Average Return -->
     <g transform="translate(127 59.798437) scale(0.1 -0.1)">
      <defs>
       <path id="DejaVuSans-41" d="M 2188 4044 
L 1331 1722 
L 3047 1722 
L 2188 4044 
z
M 1831 4666 
L 2547 4666 
L 4325 0 
L 3669 0 
L 3244 1197 
L 1141 1197 
L 716 0 
L 50 0 
L 1831 4666 
z
" transform="scale(0.015625)"/>
       <path id="DejaVuSans-76" d="M 191 3500 
L 800 3500 
L 1894 563 
L 2988 3500 
L 3597 3500 
L 2284 0 
L 1503 0 
L 191 3500 
z
" transform="scale(0.015625)"/>
       <path id="DejaVuSans-74" d="M 1172 4494 
L 1172 3500 
L 2356 3500 
L 2356 3053 
L 1172 3053 
L 1172 1153 
Q 1172 725 1289 603 
Q 1406 481 1766 481 
L 2356 481 
L 2356 0 
L 1766 0 
Q 1100 0 847 248 
Q 594 497 594 1153 
L 594 3053 
L 172 3053 
L 172 3500 
L 594 3500 
L 594 4494 
L 1172 4494 
z
" transform="scale(0.015625)"/>
       <path id="DejaVuSans-75" d="M 544 1381 
L 544 3500 
L 1119 3500 
L 1119 1403 
Q 1119 906 1312 657 
Q 1506 409 1894 409 
Q 2359 409 2629 706 
Q 2900 1003 2900 1516 
L 2900 3500 
L 3475 3500 
L 3475 0 
L 2900 0 
L 2900 538 
Q 2691 219 2414 64 
Q 2138 -91 1772 -91 
Q 1169 -91 856 284 
Q 544 659 544 1381 
z
M 1991 3584 
L 1991 3584 
z
" transform="scale(0.015625)"/>
      </defs>
      <use xlink:href="#DejaVuSans-41"/>
      <use xlink:href="#DejaVuSans-76" x="62.533203"/>
      <use xlink:href="#DejaVuSans-65" x="121.712891"/>
      <use xlink:href="#DejaVuSans-72" x="183.236328"/>
      <use xlink:href="#DejaVuSans-61" x="224.349609"/>
      <use xlink:href="#DejaVuSans-67" x="285.628906"/>
      <use xlink:href="#DejaVuSans-65" x="349.105469"/>
      <use xlink:href="#DejaVuSans-20" x="410.628906"/>
      <use xlink:href="#DejaVuSans-52" x="442.416016"/>
      <use xlink:href="#DejaVuSans-65" x="507.398438"/>
      <use xlink:href="#DejaVuSans-74" x="568.921875"/>
      <use xlink:href="#DejaVuSans-75" x="608.130859"/>
      <use xlink:href="#DejaVuSans-72" x="671.509766"/>
      <use xlink:href="#DejaVuSans-6e" x="710.873047"/>
     </g>
    </g>
   </g>
  </g>
 </g>
 <defs>
  <clipPath id="p25a2b1e6b7">
   <rect x="90" y="43.2" width="558" height="277.2"/>
  </clipPath>
 </defs>
</svg>
