<?xml version="1.0" encoding="utf-8" standalone="no"?>
<!DOCTYPE svg PUBLIC "-//W3C//DTD SVG 1.1//EN"
  "http://www.w3.org/Graphics/SVG/1.1/DTD/svg11.dtd">
<svg xmlns:xlink="http://www.w3.org/1999/xlink" width="720pt" height="360pt" viewBox="0 0 720 360" xmlns="http://www.w3.org/2000/svg" version="1.1">
 <metadata>
  <rdf:RDF xmlns:dc="http://purl.org/dc/elements/1.1/" xmlns:cc="http://creativecommons.org/ns#" xmlns:rdf="http://www.w3.org/1999/02/22-rdf-syntax-ns#">
   <cc:Work>
    <dc:type rdf:resource="http://purl.org/dc/dcmitype/StillImage"/>
    <dc:date>2024-05-20T13:33:43.161429</dc:date>
    <dc:format>image/svg+xml</dc:format>
    <dc:creator>
     <cc:Agent>
      <dc:title>Matplotlib v3.8.4, https://matplotlib.org/</dc:title>
     </cc:Agent>
    </dc:creator>
   </cc:Work>
  </rdf:RDF>
 </metadata>
 <defs>
  <style type="text/css">*{stroke-linejoin: round; stroke-linecap: butt}</style>
 </defs>
 <g id="figure_1">
  <g id="patch_1">
   <path d="M 0 360 
L 720 360 
L 720 0 
L 0 0 
z
" style="fill: #ffffff"/>
  </g>
  <g id="axes_1">
   <g id="patch_2">
    <path d="M 90 320.4 
L 648 320.4 
L 648 43.2 
L 90 43.2 
z
" style="fill: #ffffff"/>
   </g>
   <g id="matplotlib.axis_1">
    <g id="xtick_1">
     <g id="line2d_1">
      <path d="M 115.363636 320.4 
L 115.363636 43.2 
" clip-path="url(#pa9cf23c5e5)" style="fill: none; stroke: #b0b0b0; stroke-width: 0.8; stroke-linecap: square"/>
     </g>
     <g id="line2d_2">
      <defs>
       <path id="m7f7abcc0c1" d="M 0 0 
L 0 3.5 
" style="stroke: #000000; stroke-width: 0.8"/>
      </defs>
      <g>
       <use xlink:href="#m7f7abcc0c1" x="115.363636" y="320.4" style="stroke: #000000; stroke-width: 0.8"/>
      </g>
     </g>
     <g id="text_1">
      <!-- 0 -->
      <g transform="translate(112.182386 334.998438) scale(0.1 -0.1)">
       <defs>
        <path id="DejaVuSans-30" d="M 2034 4250 
Q 1547 4250 1301 3770 
Q 1056 3291 1056 2328 
Q 1056 1369 1301 889 
Q 1547 409 2034 409 
Q 2525 409 2770 889 
Q 3016 1369 3016 2328 
Q 3016 3291 2770 3770 
Q 2525 4250 2034 4250 
z
M 2034 4750 
Q 2819 4750 3233 4129 
Q 3647 3509 3647 2328 
Q 3647 1150 3233 529 
Q 2819 -91 2034 -91 
Q 1250 -91 836 529 
Q 422 1150 422 2328 
Q 422 3509 836 4129 
Q 1250 4750 2034 4750 
z
" transform="scale(0.015625)"/>
       </defs>
       <use xlink:href="#DejaVuSans-30"/>
      </g>
     </g>
    </g>
    <g id="xtick_2">
     <g id="line2d_3">
      <path d="M 217.021498 320.4 
L 217.021498 43.2 
" clip-path="url(#pa9cf23c5e5)" style="fill: none; stroke: #b0b0b0; stroke-width: 0.8; stroke-linecap: square"/>
     </g>
     <g id="line2d_4">
      <g>
       <use xlink:href="#m7f7abcc0c1" x="217.021498" y="320.4" style="stroke: #000000; stroke-width: 0.8"/>
      </g>
     </g>
     <g id="text_2">
      <!-- 100 -->
      <g transform="translate(207.477748 334.998438) scale(0.1 -0.1)">
       <defs>
        <path id="DejaVuSans-31" d="M 794 531 
L 1825 531 
L 1825 4091 
L 703 3866 
L 703 4441 
L 1819 4666 
L 2450 4666 
L 2450 531 
L 3481 531 
L 3481 0 
L 794 0 
L 794 531 
z
" transform="scale(0.015625)"/>
       </defs>
       <use xlink:href="#DejaVuSans-31"/>
       <use xlink:href="#DejaVuSans-30" x="63.623047"/>
       <use xlink:href="#DejaVuSans-30" x="127.246094"/>
      </g>
     </g>
    </g>
    <g id="xtick_3">
     <g id="line2d_5">
      <path d="M 318.679359 320.4 
L 318.679359 43.2 
" clip-path="url(#pa9cf23c5e5)" style="fill: none; stroke: #b0b0b0; stroke-width: 0.8; stroke-linecap: square"/>
     </g>
     <g id="line2d_6">
      <g>
       <use xlink:href="#m7f7abcc0c1" x="318.679359" y="320.4" style="stroke: #000000; stroke-width: 0.8"/>
      </g>
     </g>
     <g id="text_3">
      <!-- 200 -->
      <g transform="translate(309.135609 334.998438) scale(0.1 -0.1)">
       <defs>
        <path id="DejaVuSans-32" d="M 1228 531 
L 3431 531 
L 3431 0 
L 469 0 
L 469 531 
Q 828 903 1448 1529 
Q 2069 2156 2228 2338 
Q 2531 2678 2651 2914 
Q 2772 3150 2772 3378 
Q 2772 3750 2511 3984 
Q 2250 4219 1831 4219 
Q 1534 4219 1204 4116 
Q 875 4013 500 3803 
L 500 4441 
Q 881 4594 1212 4672 
Q 1544 4750 1819 4750 
Q 2544 4750 2975 4387 
Q 3406 4025 3406 3419 
Q 3406 3131 3298 2873 
Q 3191 2616 2906 2266 
Q 2828 2175 2409 1742 
Q 1991 1309 1228 531 
z
" transform="scale(0.015625)"/>
       </defs>
       <use xlink:href="#DejaVuSans-32"/>
       <use xlink:href="#DejaVuSans-30" x="63.623047"/>
       <use xlink:href="#DejaVuSans-30" x="127.246094"/>
      </g>
     </g>
    </g>
    <g id="xtick_4">
     <g id="line2d_7">
      <path d="M 420.33722 320.4 
L 420.33722 43.2 
" clip-path="url(#pa9cf23c5e5)" style="fill: none; stroke: #b0b0b0; stroke-width: 0.8; stroke-linecap: square"/>
     </g>
     <g id="line2d_8">
      <g>
       <use xlink:href="#m7f7abcc0c1" x="420.33722" y="320.4" style="stroke: #000000; stroke-width: 0.8"/>
      </g>
     </g>
     <g id="text_4">
      <!-- 300 -->
      <g transform="translate(410.79347 334.998438) scale(0.1 -0.1)">
       <defs>
        <path id="DejaVuSans-33" d="M 2597 2516 
Q 3050 2419 3304 2112 
Q 3559 1806 3559 1356 
Q 3559 666 3084 287 
Q 2609 -91 1734 -91 
Q 1441 -91 1130 -33 
Q 819 25 488 141 
L 488 750 
Q 750 597 1062 519 
Q 1375 441 1716 441 
Q 2309 441 2620 675 
Q 2931 909 2931 1356 
Q 2931 1769 2642 2001 
Q 2353 2234 1838 2234 
L 1294 2234 
L 1294 2753 
L 1863 2753 
Q 2328 2753 2575 2939 
Q 2822 3125 2822 3475 
Q 2822 3834 2567 4026 
Q 2313 4219 1838 4219 
Q 1578 4219 1281 4162 
Q 984 4106 628 3988 
L 628 4550 
Q 988 4650 1302 4700 
Q 1616 4750 1894 4750 
Q 2613 4750 3031 4423 
Q 3450 4097 3450 3541 
Q 3450 3153 3228 2886 
Q 3006 2619 2597 2516 
z
" transform="scale(0.015625)"/>
       </defs>
       <use xlink:href="#DejaVuSans-33"/>
       <use xlink:href="#DejaVuSans-30" x="63.623047"/>
       <use xlink:href="#DejaVuSans-30" x="127.246094"/>
      </g>
     </g>
    </g>
    <g id="xtick_5">
     <g id="line2d_9">
      <path d="M 521.995081 320.4 
L 521.995081 43.2 
" clip-path="url(#pa9cf23c5e5)" style="fill: none; stroke: #b0b0b0; stroke-width: 0.8; stroke-linecap: square"/>
     </g>
     <g id="line2d_10">
      <g>
       <use xlink:href="#m7f7abcc0c1" x="521.995081" y="320.4" style="stroke: #000000; stroke-width: 0.8"/>
      </g>
     </g>
     <g id="text_5">
      <!-- 400 -->
      <g transform="translate(512.451331 334.998438) scale(0.1 -0.1)">
       <defs>
        <path id="DejaVuSans-34" d="M 2419 4116 
L 825 1625 
L 2419 1625 
L 2419 4116 
z
M 2253 4666 
L 3047 4666 
L 3047 1625 
L 3713 1625 
L 3713 1100 
L 3047 1100 
L 3047 0 
L 2419 0 
L 2419 1100 
L 313 1100 
L 313 1709 
L 2253 4666 
z
" transform="scale(0.015625)"/>
       </defs>
       <use xlink:href="#DejaVuSans-34"/>
       <use xlink:href="#DejaVuSans-30" x="63.623047"/>
       <use xlink:href="#DejaVuSans-30" x="127.246094"/>
      </g>
     </g>
    </g>
    <g id="xtick_6">
     <g id="line2d_11">
      <path d="M 623.652942 320.4 
L 623.652942 43.2 
" clip-path="url(#pa9cf23c5e5)" style="fill: none; stroke: #b0b0b0; stroke-width: 0.8; stroke-linecap: square"/>
     </g>
     <g id="line2d_12">
      <g>
       <use xlink:href="#m7f7abcc0c1" x="623.652942" y="320.4" style="stroke: #000000; stroke-width: 0.8"/>
      </g>
     </g>
     <g id="text_6">
      <!-- 500 -->
      <g transform="translate(614.109192 334.998438) scale(0.1 -0.1)">
       <defs>
        <path id="DejaVuSans-35" d="M 691 4666 
L 3169 4666 
L 3169 4134 
L 1269 4134 
L 1269 2991 
Q 1406 3038 1543 3061 
Q 1681 3084 1819 3084 
Q 2600 3084 3056 2656 
Q 3513 2228 3513 1497 
Q 3513 744 3044 326 
Q 2575 -91 1722 -91 
Q 1428 -91 1123 -41 
Q 819 9 494 109 
L 494 744 
Q 775 591 1075 516 
Q 1375 441 1709 441 
Q 2250 441 2565 725 
Q 2881 1009 2881 1497 
Q 2881 1984 2565 2268 
Q 2250 2553 1709 2553 
Q 1456 2553 1204 2497 
Q 953 2441 691 2322 
L 691 4666 
z
" transform="scale(0.015625)"/>
       </defs>
       <use xlink:href="#DejaVuSans-35"/>
       <use xlink:href="#DejaVuSans-30" x="63.623047"/>
       <use xlink:href="#DejaVuSans-30" x="127.246094"/>
      </g>
     </g>
    </g>
    <g id="text_7">
     <!-- Episodes -->
     <g transform="translate(346.757812 348.676562) scale(0.1 -0.1)">
      <defs>
       <path id="DejaVuSans-45" d="M 628 4666 
L 3578 4666 
L 3578 4134 
L 1259 4134 
L 1259 2753 
L 3481 2753 
L 3481 2222 
L 1259 2222 
L 1259 531 
L 3634 531 
L 3634 0 
L 628 0 
L 628 4666 
z
" transform="scale(0.015625)"/>
       <path id="DejaVuSans-70" d="M 1159 525 
L 1159 -1331 
L 581 -1331 
L 581 3500 
L 1159 3500 
L 1159 2969 
Q 1341 3281 1617 3432 
Q 1894 3584 2278 3584 
Q 2916 3584 3314 3078 
Q 3713 2572 3713 1747 
Q 3713 922 3314 415 
Q 2916 -91 2278 -91 
Q 1894 -91 1617 61 
Q 1341 213 1159 525 
z
M 3116 1747 
Q 3116 2381 2855 2742 
Q 2594 3103 2138 3103 
Q 1681 3103 1420 2742 
Q 1159 2381 1159 1747 
Q 1159 1113 1420 752 
Q 1681 391 2138 391 
Q 2594 391 2855 752 
Q 3116 1113 3116 1747 
z
" transform="scale(0.015625)"/>
       <path id="DejaVuSans-69" d="M 603 3500 
L 1178 3500 
L 1178 0 
L 603 0 
L 603 3500 
z
M 603 4863 
L 1178 4863 
L 1178 4134 
L 603 4134 
L 603 4863 
z
" transform="scale(0.015625)"/>
       <path id="DejaVuSans-73" d="M 2834 3397 
L 2834 2853 
Q 2591 2978 2328 3040 
Q 2066 3103 1784 3103 
Q 1356 3103 1142 2972 
Q 928 2841 928 2578 
Q 928 2378 1081 2264 
Q 1234 2150 1697 2047 
L 1894 2003 
Q 2506 1872 2764 1633 
Q 3022 1394 3022 966 
Q 3022 478 2636 193 
Q 2250 -91 1575 -91 
Q 1294 -91 989 -36 
Q 684 19 347 128 
L 347 722 
Q 666 556 975 473 
Q 1284 391 1588 391 
Q 1994 391 2212 530 
Q 2431 669 2431 922 
Q 2431 1156 2273 1281 
Q 2116 1406 1581 1522 
L 1381 1569 
Q 847 1681 609 1914 
Q 372 2147 372 2553 
Q 372 3047 722 3315 
Q 1072 3584 1716 3584 
Q 2034 3584 2315 3537 
Q 2597 3491 2834 3397 
z
" transform="scale(0.015625)"/>
       <path id="DejaVuSans-6f" d="M 1959 3097 
Q 1497 3097 1228 2736 
Q 959 2375 959 1747 
Q 959 1119 1226 758 
Q 1494 397 1959 397 
Q 2419 397 2687 759 
Q 2956 1122 2956 1747 
Q 2956 2369 2687 2733 
Q 2419 3097 1959 3097 
z
M 1959 3584 
Q 2709 3584 3137 3096 
Q 3566 2609 3566 1747 
Q 3566 888 3137 398 
Q 2709 -91 1959 -91 
Q 1206 -91 779 398 
Q 353 888 353 1747 
Q 353 2609 779 3096 
Q 1206 3584 1959 3584 
z
" transform="scale(0.015625)"/>
       <path id="DejaVuSans-64" d="M 2906 2969 
L 2906 4863 
L 3481 4863 
L 3481 0 
L 2906 0 
L 2906 525 
Q 2725 213 2448 61 
Q 2172 -91 1784 -91 
Q 1150 -91 751 415 
Q 353 922 353 1747 
Q 353 2572 751 3078 
Q 1150 3584 1784 3584 
Q 2172 3584 2448 3432 
Q 2725 3281 2906 2969 
z
M 947 1747 
Q 947 1113 1208 752 
Q 1469 391 1925 391 
Q 2381 391 2643 752 
Q 2906 1113 2906 1747 
Q 2906 2381 2643 2742 
Q 2381 3103 1925 3103 
Q 1469 3103 1208 2742 
Q 947 2381 947 1747 
z
" transform="scale(0.015625)"/>
       <path id="DejaVuSans-65" d="M 3597 1894 
L 3597 1613 
L 953 1613 
Q 991 1019 1311 708 
Q 1631 397 2203 397 
Q 2534 397 2845 478 
Q 3156 559 3463 722 
L 3463 178 
Q 3153 47 2828 -22 
Q 2503 -91 2169 -91 
Q 1331 -91 842 396 
Q 353 884 353 1716 
Q 353 2575 817 3079 
Q 1281 3584 2069 3584 
Q 2775 3584 3186 3129 
Q 3597 2675 3597 1894 
z
M 3022 2063 
Q 3016 2534 2758 2815 
Q 2500 3097 2075 3097 
Q 1594 3097 1305 2825 
Q 1016 2553 972 2059 
L 3022 2063 
z
" transform="scale(0.015625)"/>
      </defs>
      <use xlink:href="#DejaVuSans-45"/>
      <use xlink:href="#DejaVuSans-70" x="63.183594"/>
      <use xlink:href="#DejaVuSans-69" x="126.660156"/>
      <use xlink:href="#DejaVuSans-73" x="154.443359"/>
      <use xlink:href="#DejaVuSans-6f" x="206.542969"/>
      <use xlink:href="#DejaVuSans-64" x="267.724609"/>
      <use xlink:href="#DejaVuSans-65" x="331.201172"/>
      <use xlink:href="#DejaVuSans-73" x="392.724609"/>
     </g>
    </g>
   </g>
   <g id="matplotlib.axis_2">
    <g id="ytick_1">
     <g id="line2d_13">
      <path d="M 90 286.685483 
L 648 286.685483 
" clip-path="url(#pa9cf23c5e5)" style="fill: none; stroke: #b0b0b0; stroke-width: 0.8; stroke-linecap: square"/>
     </g>
     <g id="line2d_14">
      <defs>
       <path id="me45559267e" d="M 0 0 
L -3.5 0 
" style="stroke: #000000; stroke-width: 0.8"/>
      </defs>
      <g>
       <use xlink:href="#me45559267e" x="90" y="286.685483" style="stroke: #000000; stroke-width: 0.8"/>
      </g>
     </g>
     <g id="text_8">
      <!-- 1500 -->
      <g transform="translate(57.55 290.484702) scale(0.1 -0.1)">
       <use xlink:href="#DejaVuSans-31"/>
       <use xlink:href="#DejaVuSans-35" x="63.623047"/>
       <use xlink:href="#DejaVuSans-30" x="127.246094"/>
       <use xlink:href="#DejaVuSans-30" x="190.869141"/>
      </g>
     </g>
    </g>
    <g id="ytick_2">
     <g id="line2d_15">
      <path d="M 90 242.164743 
L 648 242.164743 
" clip-path="url(#pa9cf23c5e5)" style="fill: none; stroke: #b0b0b0; stroke-width: 0.8; stroke-linecap: square"/>
     </g>
     <g id="line2d_16">
      <g>
       <use xlink:href="#me45559267e" x="90" y="242.164743" style="stroke: #000000; stroke-width: 0.8"/>
      </g>
     </g>
     <g id="text_9">
      <!-- 2000 -->
      <g transform="translate(57.55 245.963962) scale(0.1 -0.1)">
       <use xlink:href="#DejaVuSans-32"/>
       <use xlink:href="#DejaVuSans-30" x="63.623047"/>
       <use xlink:href="#DejaVuSans-30" x="127.246094"/>
       <use xlink:href="#DejaVuSans-30" x="190.869141"/>
      </g>
     </g>
    </g>
    <g id="ytick_3">
     <g id="line2d_17">
      <path d="M 90 197.644004 
L 648 197.644004 
" clip-path="url(#pa9cf23c5e5)" style="fill: none; stroke: #b0b0b0; stroke-width: 0.8; stroke-linecap: square"/>
     </g>
     <g id="line2d_18">
      <g>
       <use xlink:href="#me45559267e" x="90" y="197.644004" style="stroke: #000000; stroke-width: 0.8"/>
      </g>
     </g>
     <g id="text_10">
      <!-- 2500 -->
      <g transform="translate(57.55 201.443222) scale(0.1 -0.1)">
       <use xlink:href="#DejaVuSans-32"/>
       <use xlink:href="#DejaVuSans-35" x="63.623047"/>
       <use xlink:href="#DejaVuSans-30" x="127.246094"/>
       <use xlink:href="#DejaVuSans-30" x="190.869141"/>
      </g>
     </g>
    </g>
    <g id="ytick_4">
     <g id="line2d_19">
      <path d="M 90 153.123264 
L 648 153.123264 
" clip-path="url(#pa9cf23c5e5)" style="fill: none; stroke: #b0b0b0; stroke-width: 0.8; stroke-linecap: square"/>
     </g>
     <g id="line2d_20">
      <g>
       <use xlink:href="#me45559267e" x="90" y="153.123264" style="stroke: #000000; stroke-width: 0.8"/>
      </g>
     </g>
     <g id="text_11">
      <!-- 3000 -->
      <g transform="translate(57.55 156.922483) scale(0.1 -0.1)">
       <use xlink:href="#DejaVuSans-33"/>
       <use xlink:href="#DejaVuSans-30" x="63.623047"/>
       <use xlink:href="#DejaVuSans-30" x="127.246094"/>
       <use xlink:href="#DejaVuSans-30" x="190.869141"/>
      </g>
     </g>
    </g>
    <g id="ytick_5">
     <g id="line2d_21">
      <path d="M 90 108.602525 
L 648 108.602525 
" clip-path="url(#pa9cf23c5e5)" style="fill: none; stroke: #b0b0b0; stroke-width: 0.8; stroke-linecap: square"/>
     </g>
     <g id="line2d_22">
      <g>
       <use xlink:href="#me45559267e" x="90" y="108.602525" style="stroke: #000000; stroke-width: 0.8"/>
      </g>
     </g>
     <g id="text_12">
      <!-- 3500 -->
      <g transform="translate(57.55 112.401743) scale(0.1 -0.1)">
       <use xlink:href="#DejaVuSans-33"/>
       <use xlink:href="#DejaVuSans-35" x="63.623047"/>
       <use xlink:href="#DejaVuSans-30" x="127.246094"/>
       <use xlink:href="#DejaVuSans-30" x="190.869141"/>
      </g>
     </g>
    </g>
    <g id="ytick_6">
     <g id="line2d_23">
      <path d="M 90 64.081785 
L 648 64.081785 
" clip-path="url(#pa9cf23c5e5)" style="fill: none; stroke: #b0b0b0; stroke-width: 0.8; stroke-linecap: square"/>
     </g>
     <g id="line2d_24">
      <g>
       <use xlink:href="#me45559267e" x="90" y="64.081785" style="stroke: #000000; stroke-width: 0.8"/>
      </g>
     </g>
     <g id="text_13">
      <!-- 4000 -->
      <g transform="translate(57.55 67.881004) scale(0.1 -0.1)">
       <use xlink:href="#DejaVuSans-34"/>
       <use xlink:href="#DejaVuSans-30" x="63.623047"/>
       <use xlink:href="#DejaVuSans-30" x="127.246094"/>
       <use xlink:href="#DejaVuSans-30" x="190.869141"/>
      </g>
     </g>
    </g>
    <g id="text_14">
     <!-- Rewards -->
     <g transform="translate(51.470312 203.025781) rotate(-90) scale(0.1 -0.1)">
      <defs>
       <path id="DejaVuSans-52" d="M 2841 2188 
Q 3044 2119 3236 1894 
Q 3428 1669 3622 1275 
L 4263 0 
L 3584 0 
L 2988 1197 
Q 2756 1666 2539 1819 
Q 2322 1972 1947 1972 
L 1259 1972 
L 1259 0 
L 628 0 
L 628 4666 
L 2053 4666 
Q 2853 4666 3247 4331 
Q 3641 3997 3641 3322 
Q 3641 2881 3436 2590 
Q 3231 2300 2841 2188 
z
M 1259 4147 
L 1259 2491 
L 2053 2491 
Q 2509 2491 2742 2702 
Q 2975 2913 2975 3322 
Q 2975 3731 2742 3939 
Q 2509 4147 2053 4147 
L 1259 4147 
z
" transform="scale(0.015625)"/>
       <path id="DejaVuSans-77" d="M 269 3500 
L 844 3500 
L 1563 769 
L 2278 3500 
L 2956 3500 
L 3675 769 
L 4391 3500 
L 4966 3500 
L 4050 0 
L 3372 0 
L 2619 2869 
L 1863 0 
L 1184 0 
L 269 3500 
z
" transform="scale(0.015625)"/>
       <path id="DejaVuSans-61" d="M 2194 1759 
Q 1497 1759 1228 1600 
Q 959 1441 959 1056 
Q 959 750 1161 570 
Q 1363 391 1709 391 
Q 2188 391 2477 730 
Q 2766 1069 2766 1631 
L 2766 1759 
L 2194 1759 
z
M 3341 1997 
L 3341 0 
L 2766 0 
L 2766 531 
Q 2569 213 2275 61 
Q 1981 -91 1556 -91 
Q 1019 -91 701 211 
Q 384 513 384 1019 
Q 384 1609 779 1909 
Q 1175 2209 1959 2209 
L 2766 2209 
L 2766 2266 
Q 2766 2663 2505 2880 
Q 2244 3097 1772 3097 
Q 1472 3097 1187 3025 
Q 903 2953 641 2809 
L 641 3341 
Q 956 3463 1253 3523 
Q 1550 3584 1831 3584 
Q 2591 3584 2966 3190 
Q 3341 2797 3341 1997 
z
" transform="scale(0.015625)"/>
       <path id="DejaVuSans-72" d="M 2631 2963 
Q 2534 3019 2420 3045 
Q 2306 3072 2169 3072 
Q 1681 3072 1420 2755 
Q 1159 2438 1159 1844 
L 1159 0 
L 581 0 
L 581 3500 
L 1159 3500 
L 1159 2956 
Q 1341 3275 1631 3429 
Q 1922 3584 2338 3584 
Q 2397 3584 2469 3576 
Q 2541 3569 2628 3553 
L 2631 2963 
z
" transform="scale(0.015625)"/>
      </defs>
      <use xlink:href="#DejaVuSans-52"/>
      <use xlink:href="#DejaVuSans-65" x="64.982422"/>
      <use xlink:href="#DejaVuSans-77" x="126.505859"/>
      <use xlink:href="#DejaVuSans-61" x="208.292969"/>
      <use xlink:href="#DejaVuSans-72" x="269.572266"/>
      <use xlink:href="#DejaVuSans-64" x="308.935547"/>
      <use xlink:href="#DejaVuSans-73" x="372.412109"/>
     </g>
    </g>
   </g>
   <g id="line2d_25">
    <path d="M 115.363636 267.599336 
L 116.380215 263.554163 
L 117.396794 251.898801 
L 118.413372 248.444712 
L 119.429951 280.805221 
L 120.446529 303.484258 
L 121.463108 251.007278 
L 122.479687 240.287783 
L 123.496265 254.709606 
L 124.512844 291.868346 
L 125.529422 259.07372 
L 126.546001 259.597501 
L 127.56258 247.160752 
L 128.579158 241.549615 
L 129.595737 272.346042 
L 130.612316 246.822805 
L 131.628894 250.081485 
L 132.645473 275.305399 
L 133.662051 249.432524 
L 134.67863 260.612534 
L 135.695209 266.138154 
L 136.711787 260.730037 
L 137.728366 243.584465 
L 138.744944 274.933545 
L 139.761523 270.484863 
L 140.778102 275.152147 
L 141.79468 247.938672 
L 142.811259 256.302781 
L 143.827837 257.421192 
L 144.844416 266.865031 
L 145.860995 253.245796 
L 146.877573 307.8 
L 147.894152 268.823948 
L 148.910731 222.114369 
L 149.927309 263.404669 
L 150.943888 261.384267 
L 151.960466 251.664303 
L 152.977045 238.31862 
L 153.993624 245.183647 
L 155.010202 245.304754 
L 156.026781 273.053338 
L 157.043359 256.963596 
L 158.059938 270.643163 
L 159.076517 245.776833 
L 160.093095 264.538522 
L 161.109674 273.667676 
L 162.126253 261.684716 
L 163.142831 279.698271 
L 164.15941 275.813783 
L 165.175988 233.505459 
L 166.192567 237.602851 
L 167.209146 263.441757 
L 168.225724 233.327906 
L 169.242303 231.528195 
L 170.258881 279.481064 
L 171.27546 250.780222 
L 172.292039 272.187958 
L 174.325196 235.323085 
L 175.341774 207.08134 
L 176.358353 268.885959 
L 177.374932 280.140855 
L 178.39151 228.702171 
L 179.408089 263.221649 
L 180.424668 248.553695 
L 181.441246 289.83779 
L 182.457825 251.12857 
L 183.474403 239.033319 
L 184.490982 257.505371 
L 185.507561 245.888506 
L 186.524139 225.01187 
L 187.540718 214.24918 
L 188.557296 290.456151 
L 189.573875 256.501879 
L 190.590454 227.523179 
L 191.607032 249.133219 
L 192.623611 267.515197 
L 193.640189 230.38164 
L 194.656768 266.250291 
L 195.673347 237.110341 
L 196.689925 228.056293 
L 197.706504 251.343829 
L 198.723083 216.101216 
L 199.739661 222.969626 
L 200.75624 218.624694 
L 201.772818 215.397841 
L 202.789397 240.789847 
L 203.805976 255.052967 
L 204.822554 223.598495 
L 205.839133 233.103501 
L 206.855711 237.803614 
L 207.87229 245.539256 
L 208.888869 188.94591 
L 209.905447 195.582177 
L 210.922026 203.71006 
L 211.938604 239.483376 
L 212.955183 200.025678 
L 213.971762 221.464613 
L 214.98834 225.01501 
L 216.004919 233.023469 
L 217.021498 246.261473 
L 218.038076 218.607389 
L 219.054655 237.737076 
L 220.071233 233.270453 
L 221.087812 192.7737 
L 222.104391 215.962274 
L 223.120969 217.879581 
L 225.154126 209.365572 
L 226.170705 248.202869 
L 229.220441 183.449387 
L 230.237019 153.727951 
L 231.253598 210.692555 
L 232.270177 231.024382 
L 233.286755 202.535958 
L 234.303334 200.93663 
L 235.319913 200.739388 
L 236.336491 221.009839 
L 237.35307 198.589778 
L 238.369648 219.948682 
L 239.386227 203.83819 
L 240.402806 216.190284 
L 241.419384 177.223838 
L 242.435963 224.213637 
L 243.452541 204.158262 
L 244.46912 179.281663 
L 245.485699 219.341292 
L 246.502277 191.586056 
L 247.518856 180.462046 
L 248.535435 193.794404 
L 249.552013 167.276195 
L 250.568592 160.380781 
L 251.58517 223.479548 
L 252.601749 223.488531 
L 253.618328 178.313417 
L 254.634906 196.037653 
L 255.651485 196.700403 
L 256.668063 151.307613 
L 257.684642 186.1757 
L 258.701221 162.863607 
L 259.717799 239.956329 
L 260.734378 202.364501 
L 261.750956 190.478391 
L 262.767535 225.257807 
L 263.784114 206.228901 
L 264.800692 215.269791 
L 265.817271 171.411642 
L 266.83385 151.420187 
L 267.850428 176.468323 
L 268.867007 182.771109 
L 269.883585 191.284958 
L 270.900164 195.622762 
L 271.916743 164.602195 
L 272.933321 155.404396 
L 273.9499 166.536435 
L 274.966478 211.477525 
L 275.983057 166.17534 
L 276.999636 185.748619 
L 278.016214 166.673151 
L 279.032793 184.267509 
L 280.049371 193.812252 
L 281.06595 192.949848 
L 282.082529 155.829754 
L 283.099107 185.41731 
L 284.115686 184.759331 
L 285.132265 191.729423 
L 286.148843 202.533308 
L 287.165422 179.193867 
L 288.182 102.317124 
L 289.198579 234.575812 
L 291.231736 134.931904 
L 292.248315 182.682253 
L 293.264893 179.168453 
L 294.281472 138.316965 
L 295.298051 179.508295 
L 296.314629 185.267424 
L 297.331208 174.271914 
L 298.347786 196.966732 
L 299.364365 204.333245 
L 300.380944 209.132581 
L 301.397522 194.025952 
L 302.414101 183.940335 
L 303.43068 189.334579 
L 304.447258 201.687971 
L 305.463837 188.449914 
L 306.480415 201.963072 
L 307.496994 200.779191 
L 308.513573 181.347372 
L 309.530151 206.809525 
L 310.54673 144.483644 
L 311.563308 183.060308 
L 312.579887 186.544612 
L 313.596466 129.425988 
L 314.613044 189.020336 
L 315.629623 179.598449 
L 316.646201 153.717245 
L 317.66278 183.924752 
L 318.679359 203.220968 
L 319.695937 159.782454 
L 320.712516 200.298367 
L 321.729095 180.965607 
L 322.745673 145.977129 
L 323.762252 151.867408 
L 324.77883 187.12264 
L 325.795409 140.45767 
L 326.811988 133.446581 
L 328.845145 126.177829 
L 329.861723 169.256467 
L 330.878302 121.596273 
L 331.894881 130.423067 
L 332.911459 198.961818 
L 333.928038 134.294145 
L 334.944617 130.100662 
L 335.961195 166.694113 
L 336.977774 153.161107 
L 337.994352 142.733237 
L 339.010931 173.152959 
L 340.02751 117.777136 
L 341.044088 139.090142 
L 342.060667 110.363134 
L 343.077245 152.738902 
L 344.093824 150.241845 
L 345.110403 125.56066 
L 346.126981 134.965852 
L 347.14356 167.268616 
L 348.160138 123.017969 
L 349.176717 146.270595 
L 350.193296 149.715202 
L 351.209874 110.15333 
L 352.226453 159.003897 
L 353.243032 100.729217 
L 355.276189 152.897136 
L 356.292767 132.973548 
L 357.309346 98.826698 
L 358.325925 104.618475 
L 359.342503 115.515482 
L 360.359082 118.759004 
L 361.37566 153.131426 
L 362.392239 68.635329 
L 363.408818 162.285261 
L 364.425396 98.06224 
L 365.441975 103.252059 
L 366.458553 123.22128 
L 367.475132 112.693239 
L 368.491711 117.805703 
L 369.508289 139.265998 
L 370.524868 170.249465 
L 371.541447 133.77789 
L 372.558025 124.69807 
L 373.574604 96.861849 
L 374.591182 85.126924 
L 375.607761 118.583518 
L 376.62434 125.757108 
L 377.640918 98.054634 
L 378.657497 128.49402 
L 379.674075 102.89645 
L 380.690654 103.052087 
L 381.707233 108.077551 
L 382.723811 148.380878 
L 383.74039 68.258201 
L 384.756968 71.116989 
L 385.773547 133.138832 
L 386.790126 105.689384 
L 387.806704 129.848007 
L 388.823283 107.025748 
L 389.839862 96.366185 
L 390.85644 126.924107 
L 392.889597 150.05022 
L 393.906176 121.857091 
L 394.922755 143.467458 
L 395.939333 121.312083 
L 396.955912 132.635376 
L 397.97249 151.740339 
L 398.989069 165.486674 
L 400.005648 149.933168 
L 401.022226 140.44116 
L 402.038805 163.198122 
L 403.055383 133.798481 
L 404.071962 127.343344 
L 405.088541 148.391266 
L 406.105119 139.685792 
L 407.121698 147.580989 
L 408.138277 117.156814 
L 409.154855 162.118123 
L 410.171434 109.819425 
L 411.188012 148.683062 
L 412.204591 121.256617 
L 413.22117 126.716158 
L 415.254327 187.53019 
L 416.270905 151.121315 
L 417.287484 150.111807 
L 418.304063 144.429106 
L 419.320641 165.355708 
L 420.33722 139.46931 
L 421.353799 74.080401 
L 422.370377 90.49594 
L 423.386956 111.157644 
L 424.403534 99.526786 
L 425.420113 155.36377 
L 426.436692 147.685241 
L 427.45327 130.63621 
L 428.469849 131.485443 
L 430.503006 96.997452 
L 431.519585 112.1627 
L 432.536163 142.305837 
L 433.552742 126.048347 
L 434.56932 159.227243 
L 436.602478 119.942142 
L 437.619056 127.645714 
L 438.635635 90.465888 
L 439.652214 129.02122 
L 440.668792 128.403495 
L 441.685371 140.867818 
L 442.701949 163.258967 
L 443.718528 151.016135 
L 444.735107 143.137633 
L 445.751685 127.215904 
L 446.768264 126.540858 
L 447.784842 97.188149 
L 448.801421 126.133308 
L 449.818 108.235971 
L 450.834578 177.873642 
L 451.851157 169.385206 
L 452.867735 55.8 
L 453.884314 162.514543 
L 454.900893 132.025999 
L 455.917471 136.969841 
L 456.93405 178.710261 
L 457.950629 139.112773 
L 458.967207 130.983471 
L 459.983786 137.745801 
L 461.000364 125.507235 
L 462.016943 88.332417 
L 463.033522 151.658346 
L 464.0501 147.883544 
L 465.066679 134.884787 
L 466.083257 179.755014 
L 467.099836 154.208086 
L 468.116415 170.726765 
L 469.132993 191.992467 
L 470.149572 191.677854 
L 471.16615 171.17327 
L 472.182729 205.181365 
L 473.199308 196.937422 
L 474.215886 181.368334 
L 475.232465 171.047128 
L 476.249044 111.821003 
L 477.265622 197.775525 
L 478.282201 192.110076 
L 479.298779 172.733537 
L 480.315358 179.726076 
L 481.331937 147.493617 
L 482.348515 201.920777 
L 483.365094 195.441711 
L 484.381672 194.141706 
L 485.398251 142.985706 
L 486.41483 178.649045 
L 487.431408 136.230241 
L 488.447987 221.24352 
L 490.481144 145.242722 
L 491.497723 216.517644 
L 492.514301 215.076841 
L 493.53088 177.512096 
L 494.547459 193.995715 
L 495.564037 233.579661 
L 496.580616 142.953429 
L 497.597194 167.136909 
L 498.613773 201.227923 
L 499.630352 156.543941 
L 500.64693 160.281643 
L 501.663509 188.778255 
L 502.680087 165.605952 
L 503.696666 161.293562 
L 504.713245 168.977842 
L 505.729823 162.926545 
L 506.746402 175.960177 
L 507.762981 141.303379 
L 508.779559 188.580323 
L 509.796138 149.054811 
L 510.812716 133.080213 
L 511.829295 168.66397 
L 512.845874 150.821171 
L 513.862452 176.966532 
L 514.879031 196.192257 
L 515.895609 178.822676 
L 516.912188 147.451322 
L 517.928767 154.568148 
L 518.945345 211.723688 
L 519.961924 175.747591 
L 520.978502 194.793934 
L 521.995081 218.070861 
L 523.01166 150.468159 
L 524.028238 173.625807 
L 525.044817 212.11009 
L 526.061396 124.823842 
L 527.077974 192.200787 
L 528.094553 152.531138 
L 529.111131 206.480628 
L 530.12771 181.12347 
L 531.144289 133.498151 
L 532.160867 171.185885 
L 533.177446 197.863639 
L 534.194024 181.299142 
L 535.210603 220.224552 
L 536.227182 178.50732 
L 537.24376 152.569166 
L 538.260339 192.778072 
L 539.276917 211.306491 
L 540.293496 181.622659 
L 541.310075 210.420528 
L 542.326653 173.352561 
L 543.343232 173.182454 
L 544.359811 174.862927 
L 545.376389 168.663228 
L 546.392968 170.791505 
L 547.409546 189.485764 
L 548.426125 161.461628 
L 549.442704 186.884083 
L 550.459282 152.513701 
L 551.475861 144.0581 
L 552.492439 153.398365 
L 553.509018 212.916658 
L 554.525597 179.309992 
L 555.542175 186.302902 
L 556.558754 148.51073 
L 557.575332 144.354719 
L 558.591911 175.191267 
L 559.60849 152.621664 
L 560.625068 240.593532 
L 561.641647 214.445945 
L 562.658226 176.723523 
L 563.674804 118.900357 
L 564.691383 217.41418 
L 565.707961 208.08523 
L 566.72454 157.514493 
L 567.741119 221.067478 
L 568.757697 217.672771 
L 569.774276 185.19415 
L 570.790854 140.390704 
L 571.807433 179.897109 
L 572.824012 178.489327 
L 573.84059 159.557624 
L 574.857169 154.941751 
L 575.873747 159.253584 
L 576.890326 183.496426 
L 577.906905 147.462452 
L 578.923483 153.714277 
L 579.940062 140.499037 
L 580.956641 152.514629 
L 581.973219 177.883288 
L 582.989798 193.991819 
L 584.006376 134.117917 
L 586.039534 184.315793 
L 587.056112 181.950814 
L 588.072691 175.482322 
L 589.089269 190.057855 
L 590.105848 208.917953 
L 591.122427 189.096949 
L 592.139005 192.241968 
L 593.155584 205.872549 
L 594.172163 105.794935 
L 595.188741 187.153804 
L 596.20532 251.528382 
L 597.221898 176.837236 
L 598.238477 191.025439 
L 599.255056 195.050114 
L 600.271634 156.672866 
L 601.288213 165.448831 
L 602.304791 201.543649 
L 603.32137 167.38066 
L 604.337949 172.74207 
L 605.354527 161.326952 
L 606.371106 216.145896 
L 607.387684 191.662086 
L 608.404263 179.771709 
L 609.420842 200.715193 
L 610.43742 173.352004 
L 611.453999 201.937632 
L 612.470578 210.496585 
L 613.487156 220.546214 
L 614.503735 116.347093 
L 615.520313 162.847892 
L 616.536892 170.598025 
L 617.553471 203.534654 
L 618.570049 146.951577 
L 619.586628 188.439526 
L 620.603206 130.395427 
L 621.619785 202.387132 
L 622.636364 192.882882 
L 622.636364 192.882882 
" clip-path="url(#pa9cf23c5e5)" style="fill: none; stroke: #1f77b4; stroke-width: 1.5; stroke-linecap: square"/>
   </g>
   <g id="patch_3">
    <path d="M 90 320.4 
L 90 43.2 
" style="fill: none; stroke: #000000; stroke-width: 0.8; stroke-linejoin: miter; stroke-linecap: square"/>
   </g>
   <g id="patch_4">
    <path d="M 648 320.4 
L 648 43.2 
" style="fill: none; stroke: #000000; stroke-width: 0.8; stroke-linejoin: miter; stroke-linecap: square"/>
   </g>
   <g id="patch_5">
    <path d="M 90 320.4 
L 648 320.4 
" style="fill: none; stroke: #000000; stroke-width: 0.8; stroke-linejoin: miter; stroke-linecap: square"/>
   </g>
   <g id="patch_6">
    <path d="M 90 43.2 
L 648 43.2 
" style="fill: none; stroke: #000000; stroke-width: 0.8; stroke-linejoin: miter; stroke-linecap: square"/>
   </g>
   <g id="text_15">
    <!-- Model Training -->
    <g transform="translate(325.40625 37.2) scale(0.12 -0.12)">
     <defs>
      <path id="DejaVuSans-4d" d="M 628 4666 
L 1569 4666 
L 2759 1491 
L 3956 4666 
L 4897 4666 
L 4897 0 
L 4281 0 
L 4281 4097 
L 3078 897 
L 2444 897 
L 1241 4097 
L 1241 0 
L 628 0 
L 628 4666 
z
" transform="scale(0.015625)"/>
      <path id="DejaVuSans-6c" d="M 603 4863 
L 1178 4863 
L 1178 0 
L 603 0 
L 603 4863 
z
" transform="scale(0.015625)"/>
      <path id="DejaVuSans-20" transform="scale(0.015625)"/>
      <path id="DejaVuSans-54" d="M -19 4666 
L 3928 4666 
L 3928 4134 
L 2272 4134 
L 2272 0 
L 1638 0 
L 1638 4134 
L -19 4134 
L -19 4666 
z
" transform="scale(0.015625)"/>
      <path id="DejaVuSans-6e" d="M 3513 2113 
L 3513 0 
L 2938 0 
L 2938 2094 
Q 2938 2591 2744 2837 
Q 2550 3084 2163 3084 
Q 1697 3084 1428 2787 
Q 1159 2491 1159 1978 
L 1159 0 
L 581 0 
L 581 3500 
L 1159 3500 
L 1159 2956 
Q 1366 3272 1645 3428 
Q 1925 3584 2291 3584 
Q 2894 3584 3203 3211 
Q 3513 2838 3513 2113 
z
" transform="scale(0.015625)"/>
      <path id="DejaVuSans-67" d="M 2906 1791 
Q 2906 2416 2648 2759 
Q 2391 3103 1925 3103 
Q 1463 3103 1205 2759 
Q 947 2416 947 1791 
Q 947 1169 1205 825 
Q 1463 481 1925 481 
Q 2391 481 2648 825 
Q 2906 1169 2906 1791 
z
M 3481 434 
Q 3481 -459 3084 -895 
Q 2688 -1331 1869 -1331 
Q 1566 -1331 1297 -1286 
Q 1028 -1241 775 -1147 
L 775 -588 
Q 1028 -725 1275 -790 
Q 1522 -856 1778 -856 
Q 2344 -856 2625 -561 
Q 2906 -266 2906 331 
L 2906 616 
Q 2728 306 2450 153 
Q 2172 0 1784 0 
Q 1141 0 747 490 
Q 353 981 353 1791 
Q 353 2603 747 3093 
Q 1141 3584 1784 3584 
Q 2172 3584 2450 3431 
Q 2728 3278 2906 2969 
L 2906 3500 
L 3481 3500 
L 3481 434 
z
" transform="scale(0.015625)"/>
     </defs>
     <use xlink:href="#DejaVuSans-4d"/>
     <use xlink:href="#DejaVuSans-6f" x="86.279297"/>
     <use xlink:href="#DejaVuSans-64" x="147.460938"/>
     <use xlink:href="#DejaVuSans-65" x="210.9375"/>
     <use xlink:href="#DejaVuSans-6c" x="272.460938"/>
     <use xlink:href="#DejaVuSans-20" x="300.244141"/>
     <use xlink:href="#DejaVuSans-54" x="332.03125"/>
     <use xlink:href="#DejaVuSans-72" x="378.365234"/>
     <use xlink:href="#DejaVuSans-61" x="419.478516"/>
     <use xlink:href="#DejaVuSans-69" x="480.757812"/>
     <use xlink:href="#DejaVuSans-6e" x="508.541016"/>
     <use xlink:href="#DejaVuSans-69" x="571.919922"/>
     <use xlink:href="#DejaVuSans-6e" x="599.703125"/>
     <use xlink:href="#DejaVuSans-67" x="663.082031"/>
    </g>
   </g>
   <g id="legend_1">
    <g id="patch_7">
     <path d="M 531.573437 65.878125 
L 641 65.878125 
Q 643 65.878125 643 63.878125 
L 643 50.2 
Q 643 48.2 641 48.2 
L 531.573437 48.2 
Q 529.573437 48.2 529.573437 50.2 
L 529.573437 63.878125 
Q 529.573437 65.878125 531.573437 65.878125 
z
" style="fill: #ffffff; opacity: 0.8; stroke: #cccccc; stroke-linejoin: miter"/>
    </g>
    <g id="line2d_26">
     <path d="M 533.573437 56.298437 
L 543.573437 56.298437 
L 553.573437 56.298437 
" style="fill: none; stroke: #1f77b4; stroke-width: 1.5; stroke-linecap: square"/>
    </g>
    <g id="text_16">
     <!-- Average Return -->
     <g transform="translate(561.573437 59.798437) scale(0.1 -0.1)">
      <defs>
       <path id="DejaVuSans-41" d="M 2188 4044 
L 1331 1722 
L 3047 1722 
L 2188 4044 
z
M 1831 4666 
L 2547 4666 
L 4325 0 
L 3669 0 
L 3244 1197 
L 1141 1197 
L 716 0 
L 50 0 
L 1831 4666 
z
" transform="scale(0.015625)"/>
       <path id="DejaVuSans-76" d="M 191 3500 
L 800 3500 
L 1894 563 
L 2988 3500 
L 3597 3500 
L 2284 0 
L 1503 0 
L 191 3500 
z
" transform="scale(0.015625)"/>
       <path id="DejaVuSans-74" d="M 1172 4494 
L 1172 3500 
L 2356 3500 
L 2356 3053 
L 1172 3053 
L 1172 1153 
Q 1172 725 1289 603 
Q 1406 481 1766 481 
L 2356 481 
L 2356 0 
L 1766 0 
Q 1100 0 847 248 
Q 594 497 594 1153 
L 594 3053 
L 172 3053 
L 172 3500 
L 594 3500 
L 594 4494 
L 1172 4494 
z
" transform="scale(0.015625)"/>
       <path id="DejaVuSans-75" d="M 544 1381 
L 544 3500 
L 1119 3500 
L 1119 1403 
Q 1119 906 1312 657 
Q 1506 409 1894 409 
Q 2359 409 2629 706 
Q 2900 1003 2900 1516 
L 2900 3500 
L 3475 3500 
L 3475 0 
L 2900 0 
L 2900 538 
Q 2691 219 2414 64 
Q 2138 -91 1772 -91 
Q 1169 -91 856 284 
Q 544 659 544 1381 
z
M 1991 3584 
L 1991 3584 
z
" transform="scale(0.015625)"/>
      </defs>
      <use xlink:href="#DejaVuSans-41"/>
      <use xlink:href="#DejaVuSans-76" x="62.533203"/>
      <use xlink:href="#DejaVuSans-65" x="121.712891"/>
      <use xlink:href="#DejaVuSans-72" x="183.236328"/>
      <use xlink:href="#DejaVuSans-61" x="224.349609"/>
      <use xlink:href="#DejaVuSans-67" x="285.628906"/>
      <use xlink:href="#DejaVuSans-65" x="349.105469"/>
      <use xlink:href="#DejaVuSans-20" x="410.628906"/>
      <use xlink:href="#DejaVuSans-52" x="442.416016"/>
      <use xlink:href="#DejaVuSans-65" x="507.398438"/>
      <use xlink:href="#DejaVuSans-74" x="568.921875"/>
      <use xlink:href="#DejaVuSans-75" x="608.130859"/>
      <use xlink:href="#DejaVuSans-72" x="671.509766"/>
      <use xlink:href="#DejaVuSans-6e" x="710.873047"/>
     </g>
    </g>
   </g>
  </g>
 </g>
 <defs>
  <clipPath id="pa9cf23c5e5">
   <rect x="90" y="43.2" width="558" height="277.2"/>
  </clipPath>
 </defs>
</svg>
