<?xml version="1.0" encoding="utf-8" standalone="no"?>
<!DOCTYPE svg PUBLIC "-//W3C//DTD SVG 1.1//EN"
  "http://www.w3.org/Graphics/SVG/1.1/DTD/svg11.dtd">
<svg xmlns:xlink="http://www.w3.org/1999/xlink" width="720pt" height="360pt" viewBox="0 0 720 360" xmlns="http://www.w3.org/2000/svg" version="1.1">
 <metadata>
  <rdf:RDF xmlns:dc="http://purl.org/dc/elements/1.1/" xmlns:cc="http://creativecommons.org/ns#" xmlns:rdf="http://www.w3.org/1999/02/22-rdf-syntax-ns#">
   <cc:Work>
    <dc:type rdf:resource="http://purl.org/dc/dcmitype/StillImage"/>
    <dc:date>2024-05-21T03:10:13.079938</dc:date>
    <dc:format>image/svg+xml</dc:format>
    <dc:creator>
     <cc:Agent>
      <dc:title>Matplotlib v3.8.4, https://matplotlib.org/</dc:title>
     </cc:Agent>
    </dc:creator>
   </cc:Work>
  </rdf:RDF>
 </metadata>
 <defs>
  <style type="text/css">*{stroke-linejoin: round; stroke-linecap: butt}</style>
 </defs>
 <g id="figure_1">
  <g id="patch_1">
   <path d="M 0 360 
L 720 360 
L 720 0 
L 0 0 
z
" style="fill: #ffffff"/>
  </g>
  <g id="axes_1">
   <g id="patch_2">
    <path d="M 90 320.4 
L 648 320.4 
L 648 43.2 
L 90 43.2 
z
" style="fill: #ffffff"/>
   </g>
   <g id="matplotlib.axis_1">
    <g id="xtick_1">
     <g id="line2d_1">
      <path d="M 115.363636 320.4 
L 115.363636 43.2 
" clip-path="url(#p3be54cfa1b)" style="fill: none; stroke: #b0b0b0; stroke-width: 0.8; stroke-linecap: square"/>
     </g>
     <g id="line2d_2">
      <defs>
       <path id="md88baba18e" d="M 0 0 
L 0 3.5 
" style="stroke: #000000; stroke-width: 0.8"/>
      </defs>
      <g>
       <use xlink:href="#md88baba18e" x="115.363636" y="320.4" style="stroke: #000000; stroke-width: 0.8"/>
      </g>
     </g>
     <g id="text_1">
      <!-- 0 -->
      <g transform="translate(112.182386 334.998438) scale(0.1 -0.1)">
       <defs>
        <path id="DejaVuSans-30" d="M 2034 4250 
Q 1547 4250 1301 3770 
Q 1056 3291 1056 2328 
Q 1056 1369 1301 889 
Q 1547 409 2034 409 
Q 2525 409 2770 889 
Q 3016 1369 3016 2328 
Q 3016 3291 2770 3770 
Q 2525 4250 2034 4250 
z
M 2034 4750 
Q 2819 4750 3233 4129 
Q 3647 3509 3647 2328 
Q 3647 1150 3233 529 
Q 2819 -91 2034 -91 
Q 1250 -91 836 529 
Q 422 1150 422 2328 
Q 422 3509 836 4129 
Q 1250 4750 2034 4750 
z
" transform="scale(0.015625)"/>
       </defs>
       <use xlink:href="#DejaVuSans-30"/>
      </g>
     </g>
    </g>
    <g id="xtick_2">
     <g id="line2d_3">
      <path d="M 204.202993 320.4 
L 204.202993 43.2 
" clip-path="url(#p3be54cfa1b)" style="fill: none; stroke: #b0b0b0; stroke-width: 0.8; stroke-linecap: square"/>
     </g>
     <g id="line2d_4">
      <g>
       <use xlink:href="#md88baba18e" x="204.202993" y="320.4" style="stroke: #000000; stroke-width: 0.8"/>
      </g>
     </g>
     <g id="text_2">
      <!-- 200 -->
      <g transform="translate(194.659243 334.998438) scale(0.1 -0.1)">
       <defs>
        <path id="DejaVuSans-32" d="M 1228 531 
L 3431 531 
L 3431 0 
L 469 0 
L 469 531 
Q 828 903 1448 1529 
Q 2069 2156 2228 2338 
Q 2531 2678 2651 2914 
Q 2772 3150 2772 3378 
Q 2772 3750 2511 3984 
Q 2250 4219 1831 4219 
Q 1534 4219 1204 4116 
Q 875 4013 500 3803 
L 500 4441 
Q 881 4594 1212 4672 
Q 1544 4750 1819 4750 
Q 2544 4750 2975 4387 
Q 3406 4025 3406 3419 
Q 3406 3131 3298 2873 
Q 3191 2616 2906 2266 
Q 2828 2175 2409 1742 
Q 1991 1309 1228 531 
z
" transform="scale(0.015625)"/>
       </defs>
       <use xlink:href="#DejaVuSans-32"/>
       <use xlink:href="#DejaVuSans-30" x="63.623047"/>
       <use xlink:href="#DejaVuSans-30" x="127.246094"/>
      </g>
     </g>
    </g>
    <g id="xtick_3">
     <g id="line2d_5">
      <path d="M 293.04235 320.4 
L 293.04235 43.2 
" clip-path="url(#p3be54cfa1b)" style="fill: none; stroke: #b0b0b0; stroke-width: 0.8; stroke-linecap: square"/>
     </g>
     <g id="line2d_6">
      <g>
       <use xlink:href="#md88baba18e" x="293.04235" y="320.4" style="stroke: #000000; stroke-width: 0.8"/>
      </g>
     </g>
     <g id="text_3">
      <!-- 400 -->
      <g transform="translate(283.4986 334.998438) scale(0.1 -0.1)">
       <defs>
        <path id="DejaVuSans-34" d="M 2419 4116 
L 825 1625 
L 2419 1625 
L 2419 4116 
z
M 2253 4666 
L 3047 4666 
L 3047 1625 
L 3713 1625 
L 3713 1100 
L 3047 1100 
L 3047 0 
L 2419 0 
L 2419 1100 
L 313 1100 
L 313 1709 
L 2253 4666 
z
" transform="scale(0.015625)"/>
       </defs>
       <use xlink:href="#DejaVuSans-34"/>
       <use xlink:href="#DejaVuSans-30" x="63.623047"/>
       <use xlink:href="#DejaVuSans-30" x="127.246094"/>
      </g>
     </g>
    </g>
    <g id="xtick_4">
     <g id="line2d_7">
      <path d="M 381.881707 320.4 
L 381.881707 43.2 
" clip-path="url(#p3be54cfa1b)" style="fill: none; stroke: #b0b0b0; stroke-width: 0.8; stroke-linecap: square"/>
     </g>
     <g id="line2d_8">
      <g>
       <use xlink:href="#md88baba18e" x="381.881707" y="320.4" style="stroke: #000000; stroke-width: 0.8"/>
      </g>
     </g>
     <g id="text_4">
      <!-- 600 -->
      <g transform="translate(372.337957 334.998438) scale(0.1 -0.1)">
       <defs>
        <path id="DejaVuSans-36" d="M 2113 2584 
Q 1688 2584 1439 2293 
Q 1191 2003 1191 1497 
Q 1191 994 1439 701 
Q 1688 409 2113 409 
Q 2538 409 2786 701 
Q 3034 994 3034 1497 
Q 3034 2003 2786 2293 
Q 2538 2584 2113 2584 
z
M 3366 4563 
L 3366 3988 
Q 3128 4100 2886 4159 
Q 2644 4219 2406 4219 
Q 1781 4219 1451 3797 
Q 1122 3375 1075 2522 
Q 1259 2794 1537 2939 
Q 1816 3084 2150 3084 
Q 2853 3084 3261 2657 
Q 3669 2231 3669 1497 
Q 3669 778 3244 343 
Q 2819 -91 2113 -91 
Q 1303 -91 875 529 
Q 447 1150 447 2328 
Q 447 3434 972 4092 
Q 1497 4750 2381 4750 
Q 2619 4750 2861 4703 
Q 3103 4656 3366 4563 
z
" transform="scale(0.015625)"/>
       </defs>
       <use xlink:href="#DejaVuSans-36"/>
       <use xlink:href="#DejaVuSans-30" x="63.623047"/>
       <use xlink:href="#DejaVuSans-30" x="127.246094"/>
      </g>
     </g>
    </g>
    <g id="xtick_5">
     <g id="line2d_9">
      <path d="M 470.721064 320.4 
L 470.721064 43.2 
" clip-path="url(#p3be54cfa1b)" style="fill: none; stroke: #b0b0b0; stroke-width: 0.8; stroke-linecap: square"/>
     </g>
     <g id="line2d_10">
      <g>
       <use xlink:href="#md88baba18e" x="470.721064" y="320.4" style="stroke: #000000; stroke-width: 0.8"/>
      </g>
     </g>
     <g id="text_5">
      <!-- 800 -->
      <g transform="translate(461.177314 334.998438) scale(0.1 -0.1)">
       <defs>
        <path id="DejaVuSans-38" d="M 2034 2216 
Q 1584 2216 1326 1975 
Q 1069 1734 1069 1313 
Q 1069 891 1326 650 
Q 1584 409 2034 409 
Q 2484 409 2743 651 
Q 3003 894 3003 1313 
Q 3003 1734 2745 1975 
Q 2488 2216 2034 2216 
z
M 1403 2484 
Q 997 2584 770 2862 
Q 544 3141 544 3541 
Q 544 4100 942 4425 
Q 1341 4750 2034 4750 
Q 2731 4750 3128 4425 
Q 3525 4100 3525 3541 
Q 3525 3141 3298 2862 
Q 3072 2584 2669 2484 
Q 3125 2378 3379 2068 
Q 3634 1759 3634 1313 
Q 3634 634 3220 271 
Q 2806 -91 2034 -91 
Q 1263 -91 848 271 
Q 434 634 434 1313 
Q 434 1759 690 2068 
Q 947 2378 1403 2484 
z
M 1172 3481 
Q 1172 3119 1398 2916 
Q 1625 2713 2034 2713 
Q 2441 2713 2670 2916 
Q 2900 3119 2900 3481 
Q 2900 3844 2670 4047 
Q 2441 4250 2034 4250 
Q 1625 4250 1398 4047 
Q 1172 3844 1172 3481 
z
" transform="scale(0.015625)"/>
       </defs>
       <use xlink:href="#DejaVuSans-38"/>
       <use xlink:href="#DejaVuSans-30" x="63.623047"/>
       <use xlink:href="#DejaVuSans-30" x="127.246094"/>
      </g>
     </g>
    </g>
    <g id="xtick_6">
     <g id="line2d_11">
      <path d="M 559.56042 320.4 
L 559.56042 43.2 
" clip-path="url(#p3be54cfa1b)" style="fill: none; stroke: #b0b0b0; stroke-width: 0.8; stroke-linecap: square"/>
     </g>
     <g id="line2d_12">
      <g>
       <use xlink:href="#md88baba18e" x="559.56042" y="320.4" style="stroke: #000000; stroke-width: 0.8"/>
      </g>
     </g>
     <g id="text_6">
      <!-- 1000 -->
      <g transform="translate(546.83542 334.998438) scale(0.1 -0.1)">
       <defs>
        <path id="DejaVuSans-31" d="M 794 531 
L 1825 531 
L 1825 4091 
L 703 3866 
L 703 4441 
L 1819 4666 
L 2450 4666 
L 2450 531 
L 3481 531 
L 3481 0 
L 794 0 
L 794 531 
z
" transform="scale(0.015625)"/>
       </defs>
       <use xlink:href="#DejaVuSans-31"/>
       <use xlink:href="#DejaVuSans-30" x="63.623047"/>
       <use xlink:href="#DejaVuSans-30" x="127.246094"/>
       <use xlink:href="#DejaVuSans-30" x="190.869141"/>
      </g>
     </g>
    </g>
    <g id="text_7">
     <!-- Episodes -->
     <g transform="translate(346.757812 348.676562) scale(0.1 -0.1)">
      <defs>
       <path id="DejaVuSans-45" d="M 628 4666 
L 3578 4666 
L 3578 4134 
L 1259 4134 
L 1259 2753 
L 3481 2753 
L 3481 2222 
L 1259 2222 
L 1259 531 
L 3634 531 
L 3634 0 
L 628 0 
L 628 4666 
z
" transform="scale(0.015625)"/>
       <path id="DejaVuSans-70" d="M 1159 525 
L 1159 -1331 
L 581 -1331 
L 581 3500 
L 1159 3500 
L 1159 2969 
Q 1341 3281 1617 3432 
Q 1894 3584 2278 3584 
Q 2916 3584 3314 3078 
Q 3713 2572 3713 1747 
Q 3713 922 3314 415 
Q 2916 -91 2278 -91 
Q 1894 -91 1617 61 
Q 1341 213 1159 525 
z
M 3116 1747 
Q 3116 2381 2855 2742 
Q 2594 3103 2138 3103 
Q 1681 3103 1420 2742 
Q 1159 2381 1159 1747 
Q 1159 1113 1420 752 
Q 1681 391 2138 391 
Q 2594 391 2855 752 
Q 3116 1113 3116 1747 
z
" transform="scale(0.015625)"/>
       <path id="DejaVuSans-69" d="M 603 3500 
L 1178 3500 
L 1178 0 
L 603 0 
L 603 3500 
z
M 603 4863 
L 1178 4863 
L 1178 4134 
L 603 4134 
L 603 4863 
z
" transform="scale(0.015625)"/>
       <path id="DejaVuSans-73" d="M 2834 3397 
L 2834 2853 
Q 2591 2978 2328 3040 
Q 2066 3103 1784 3103 
Q 1356 3103 1142 2972 
Q 928 2841 928 2578 
Q 928 2378 1081 2264 
Q 1234 2150 1697 2047 
L 1894 2003 
Q 2506 1872 2764 1633 
Q 3022 1394 3022 966 
Q 3022 478 2636 193 
Q 2250 -91 1575 -91 
Q 1294 -91 989 -36 
Q 684 19 347 128 
L 347 722 
Q 666 556 975 473 
Q 1284 391 1588 391 
Q 1994 391 2212 530 
Q 2431 669 2431 922 
Q 2431 1156 2273 1281 
Q 2116 1406 1581 1522 
L 1381 1569 
Q 847 1681 609 1914 
Q 372 2147 372 2553 
Q 372 3047 722 3315 
Q 1072 3584 1716 3584 
Q 2034 3584 2315 3537 
Q 2597 3491 2834 3397 
z
" transform="scale(0.015625)"/>
       <path id="DejaVuSans-6f" d="M 1959 3097 
Q 1497 3097 1228 2736 
Q 959 2375 959 1747 
Q 959 1119 1226 758 
Q 1494 397 1959 397 
Q 2419 397 2687 759 
Q 2956 1122 2956 1747 
Q 2956 2369 2687 2733 
Q 2419 3097 1959 3097 
z
M 1959 3584 
Q 2709 3584 3137 3096 
Q 3566 2609 3566 1747 
Q 3566 888 3137 398 
Q 2709 -91 1959 -91 
Q 1206 -91 779 398 
Q 353 888 353 1747 
Q 353 2609 779 3096 
Q 1206 3584 1959 3584 
z
" transform="scale(0.015625)"/>
       <path id="DejaVuSans-64" d="M 2906 2969 
L 2906 4863 
L 3481 4863 
L 3481 0 
L 2906 0 
L 2906 525 
Q 2725 213 2448 61 
Q 2172 -91 1784 -91 
Q 1150 -91 751 415 
Q 353 922 353 1747 
Q 353 2572 751 3078 
Q 1150 3584 1784 3584 
Q 2172 3584 2448 3432 
Q 2725 3281 2906 2969 
z
M 947 1747 
Q 947 1113 1208 752 
Q 1469 391 1925 391 
Q 2381 391 2643 752 
Q 2906 1113 2906 1747 
Q 2906 2381 2643 2742 
Q 2381 3103 1925 3103 
Q 1469 3103 1208 2742 
Q 947 2381 947 1747 
z
" transform="scale(0.015625)"/>
       <path id="DejaVuSans-65" d="M 3597 1894 
L 3597 1613 
L 953 1613 
Q 991 1019 1311 708 
Q 1631 397 2203 397 
Q 2534 397 2845 478 
Q 3156 559 3463 722 
L 3463 178 
Q 3153 47 2828 -22 
Q 2503 -91 2169 -91 
Q 1331 -91 842 396 
Q 353 884 353 1716 
Q 353 2575 817 3079 
Q 1281 3584 2069 3584 
Q 2775 3584 3186 3129 
Q 3597 2675 3597 1894 
z
M 3022 2063 
Q 3016 2534 2758 2815 
Q 2500 3097 2075 3097 
Q 1594 3097 1305 2825 
Q 1016 2553 972 2059 
L 3022 2063 
z
" transform="scale(0.015625)"/>
      </defs>
      <use xlink:href="#DejaVuSans-45"/>
      <use xlink:href="#DejaVuSans-70" x="63.183594"/>
      <use xlink:href="#DejaVuSans-69" x="126.660156"/>
      <use xlink:href="#DejaVuSans-73" x="154.443359"/>
      <use xlink:href="#DejaVuSans-6f" x="206.542969"/>
      <use xlink:href="#DejaVuSans-64" x="267.724609"/>
      <use xlink:href="#DejaVuSans-65" x="331.201172"/>
      <use xlink:href="#DejaVuSans-73" x="392.724609"/>
     </g>
    </g>
   </g>
   <g id="matplotlib.axis_2">
    <g id="ytick_1">
     <g id="line2d_13">
      <path d="M 90 269.485513 
L 648 269.485513 
" clip-path="url(#p3be54cfa1b)" style="fill: none; stroke: #b0b0b0; stroke-width: 0.8; stroke-linecap: square"/>
     </g>
     <g id="line2d_14">
      <defs>
       <path id="mea46b85155" d="M 0 0 
L -3.5 0 
" style="stroke: #000000; stroke-width: 0.8"/>
      </defs>
      <g>
       <use xlink:href="#mea46b85155" x="90" y="269.485513" style="stroke: #000000; stroke-width: 0.8"/>
      </g>
     </g>
     <g id="text_8">
      <!-- 5000 -->
      <g transform="translate(57.55 273.284731) scale(0.1 -0.1)">
       <defs>
        <path id="DejaVuSans-35" d="M 691 4666 
L 3169 4666 
L 3169 4134 
L 1269 4134 
L 1269 2991 
Q 1406 3038 1543 3061 
Q 1681 3084 1819 3084 
Q 2600 3084 3056 2656 
Q 3513 2228 3513 1497 
Q 3513 744 3044 326 
Q 2575 -91 1722 -91 
Q 1428 -91 1123 -41 
Q 819 9 494 109 
L 494 744 
Q 775 591 1075 516 
Q 1375 441 1709 441 
Q 2250 441 2565 725 
Q 2881 1009 2881 1497 
Q 2881 1984 2565 2268 
Q 2250 2553 1709 2553 
Q 1456 2553 1204 2497 
Q 953 2441 691 2322 
L 691 4666 
z
" transform="scale(0.015625)"/>
       </defs>
       <use xlink:href="#DejaVuSans-35"/>
       <use xlink:href="#DejaVuSans-30" x="63.623047"/>
       <use xlink:href="#DejaVuSans-30" x="127.246094"/>
       <use xlink:href="#DejaVuSans-30" x="190.869141"/>
      </g>
     </g>
    </g>
    <g id="ytick_2">
     <g id="line2d_15">
      <path d="M 90 215.329158 
L 648 215.329158 
" clip-path="url(#p3be54cfa1b)" style="fill: none; stroke: #b0b0b0; stroke-width: 0.8; stroke-linecap: square"/>
     </g>
     <g id="line2d_16">
      <g>
       <use xlink:href="#mea46b85155" x="90" y="215.329158" style="stroke: #000000; stroke-width: 0.8"/>
      </g>
     </g>
     <g id="text_9">
      <!-- 5500 -->
      <g transform="translate(57.55 219.128377) scale(0.1 -0.1)">
       <use xlink:href="#DejaVuSans-35"/>
       <use xlink:href="#DejaVuSans-35" x="63.623047"/>
       <use xlink:href="#DejaVuSans-30" x="127.246094"/>
       <use xlink:href="#DejaVuSans-30" x="190.869141"/>
      </g>
     </g>
    </g>
    <g id="ytick_3">
     <g id="line2d_17">
      <path d="M 90 161.172803 
L 648 161.172803 
" clip-path="url(#p3be54cfa1b)" style="fill: none; stroke: #b0b0b0; stroke-width: 0.8; stroke-linecap: square"/>
     </g>
     <g id="line2d_18">
      <g>
       <use xlink:href="#mea46b85155" x="90" y="161.172803" style="stroke: #000000; stroke-width: 0.8"/>
      </g>
     </g>
     <g id="text_10">
      <!-- 6000 -->
      <g transform="translate(57.55 164.972022) scale(0.1 -0.1)">
       <use xlink:href="#DejaVuSans-36"/>
       <use xlink:href="#DejaVuSans-30" x="63.623047"/>
       <use xlink:href="#DejaVuSans-30" x="127.246094"/>
       <use xlink:href="#DejaVuSans-30" x="190.869141"/>
      </g>
     </g>
    </g>
    <g id="ytick_4">
     <g id="line2d_19">
      <path d="M 90 107.016448 
L 648 107.016448 
" clip-path="url(#p3be54cfa1b)" style="fill: none; stroke: #b0b0b0; stroke-width: 0.8; stroke-linecap: square"/>
     </g>
     <g id="line2d_20">
      <g>
       <use xlink:href="#mea46b85155" x="90" y="107.016448" style="stroke: #000000; stroke-width: 0.8"/>
      </g>
     </g>
     <g id="text_11">
      <!-- 6500 -->
      <g transform="translate(57.55 110.815667) scale(0.1 -0.1)">
       <use xlink:href="#DejaVuSans-36"/>
       <use xlink:href="#DejaVuSans-35" x="63.623047"/>
       <use xlink:href="#DejaVuSans-30" x="127.246094"/>
       <use xlink:href="#DejaVuSans-30" x="190.869141"/>
      </g>
     </g>
    </g>
    <g id="ytick_5">
     <g id="line2d_21">
      <path d="M 90 52.860093 
L 648 52.860093 
" clip-path="url(#p3be54cfa1b)" style="fill: none; stroke: #b0b0b0; stroke-width: 0.8; stroke-linecap: square"/>
     </g>
     <g id="line2d_22">
      <g>
       <use xlink:href="#mea46b85155" x="90" y="52.860093" style="stroke: #000000; stroke-width: 0.8"/>
      </g>
     </g>
     <g id="text_12">
      <!-- 7000 -->
      <g transform="translate(57.55 56.659312) scale(0.1 -0.1)">
       <defs>
        <path id="DejaVuSans-37" d="M 525 4666 
L 3525 4666 
L 3525 4397 
L 1831 0 
L 1172 0 
L 2766 4134 
L 525 4134 
L 525 4666 
z
" transform="scale(0.015625)"/>
       </defs>
       <use xlink:href="#DejaVuSans-37"/>
       <use xlink:href="#DejaVuSans-30" x="63.623047"/>
       <use xlink:href="#DejaVuSans-30" x="127.246094"/>
       <use xlink:href="#DejaVuSans-30" x="190.869141"/>
      </g>
     </g>
    </g>
    <g id="text_13">
     <!-- Rewards -->
     <g transform="translate(51.470312 203.025781) rotate(-90) scale(0.1 -0.1)">
      <defs>
       <path id="DejaVuSans-52" d="M 2841 2188 
Q 3044 2119 3236 1894 
Q 3428 1669 3622 1275 
L 4263 0 
L 3584 0 
L 2988 1197 
Q 2756 1666 2539 1819 
Q 2322 1972 1947 1972 
L 1259 1972 
L 1259 0 
L 628 0 
L 628 4666 
L 2053 4666 
Q 2853 4666 3247 4331 
Q 3641 3997 3641 3322 
Q 3641 2881 3436 2590 
Q 3231 2300 2841 2188 
z
M 1259 4147 
L 1259 2491 
L 2053 2491 
Q 2509 2491 2742 2702 
Q 2975 2913 2975 3322 
Q 2975 3731 2742 3939 
Q 2509 4147 2053 4147 
L 1259 4147 
z
" transform="scale(0.015625)"/>
       <path id="DejaVuSans-77" d="M 269 3500 
L 844 3500 
L 1563 769 
L 2278 3500 
L 2956 3500 
L 3675 769 
L 4391 3500 
L 4966 3500 
L 4050 0 
L 3372 0 
L 2619 2869 
L 1863 0 
L 1184 0 
L 269 3500 
z
" transform="scale(0.015625)"/>
       <path id="DejaVuSans-61" d="M 2194 1759 
Q 1497 1759 1228 1600 
Q 959 1441 959 1056 
Q 959 750 1161 570 
Q 1363 391 1709 391 
Q 2188 391 2477 730 
Q 2766 1069 2766 1631 
L 2766 1759 
L 2194 1759 
z
M 3341 1997 
L 3341 0 
L 2766 0 
L 2766 531 
Q 2569 213 2275 61 
Q 1981 -91 1556 -91 
Q 1019 -91 701 211 
Q 384 513 384 1019 
Q 384 1609 779 1909 
Q 1175 2209 1959 2209 
L 2766 2209 
L 2766 2266 
Q 2766 2663 2505 2880 
Q 2244 3097 1772 3097 
Q 1472 3097 1187 3025 
Q 903 2953 641 2809 
L 641 3341 
Q 956 3463 1253 3523 
Q 1550 3584 1831 3584 
Q 2591 3584 2966 3190 
Q 3341 2797 3341 1997 
z
" transform="scale(0.015625)"/>
       <path id="DejaVuSans-72" d="M 2631 2963 
Q 2534 3019 2420 3045 
Q 2306 3072 2169 3072 
Q 1681 3072 1420 2755 
Q 1159 2438 1159 1844 
L 1159 0 
L 581 0 
L 581 3500 
L 1159 3500 
L 1159 2956 
Q 1341 3275 1631 3429 
Q 1922 3584 2338 3584 
Q 2397 3584 2469 3576 
Q 2541 3569 2628 3553 
L 2631 2963 
z
" transform="scale(0.015625)"/>
      </defs>
      <use xlink:href="#DejaVuSans-52"/>
      <use xlink:href="#DejaVuSans-65" x="64.982422"/>
      <use xlink:href="#DejaVuSans-77" x="126.505859"/>
      <use xlink:href="#DejaVuSans-61" x="208.292969"/>
      <use xlink:href="#DejaVuSans-72" x="269.572266"/>
      <use xlink:href="#DejaVuSans-64" x="308.935547"/>
      <use xlink:href="#DejaVuSans-73" x="372.412109"/>
     </g>
    </g>
   </g>
   <g id="line2d_23">
    <path d="M 115.363636 307.622943 
L 116.25203 306.019923 
L 116.696227 307.8 
L 117.140423 307.78745 
L 117.58462 306.433007 
L 118.028817 305.645554 
L 118.473014 304.484631 
L 118.917211 302.294479 
L 119.361407 301.079949 
L 119.805604 300.534271 
L 120.693998 300.334919 
L 121.138195 300.691709 
L 121.582391 299.021134 
L 122.026588 298.439259 
L 122.470785 298.335929 
L 122.914982 297.559239 
L 123.359178 297.646051 
L 123.803375 299.142898 
L 124.247572 297.850384 
L 124.691769 298.512659 
L 125.135966 297.003078 
L 125.580162 297.781677 
L 126.024359 296.827279 
L 126.468556 296.367642 
L 126.912753 297.32889 
L 127.35695 296.926764 
L 127.801146 297.787069 
L 128.245343 296.64818 
L 128.68954 296.240904 
L 129.133737 296.635488 
L 129.577933 297.298447 
L 130.02213 297.506828 
L 130.466327 294.965638 
L 130.910524 294.28708 
L 131.354721 294.941068 
L 132.243114 290.100264 
L 132.687311 288.916186 
L 133.131508 290.020622 
L 133.575705 290.14664 
L 134.019901 287.892542 
L 134.464098 287.948675 
L 134.908295 286.195253 
L 135.352492 282.755028 
L 135.796688 281.540702 
L 136.240885 278.987068 
L 136.685082 278.198951 
L 137.129279 276.037303 
L 138.017672 270.687295 
L 138.461869 269.537671 
L 139.350263 265.169478 
L 139.794459 262.891729 
L 140.238656 262.511131 
L 141.12705 259.290641 
L 142.015443 253.282182 
L 142.45964 248.812187 
L 142.903837 246.692258 
L 143.348034 242.498976 
L 143.792231 240.998085 
L 145.124821 231.818607 
L 145.569018 228.889157 
L 146.013214 223.969791 
L 147.790002 211.179989 
L 148.234198 210.83795 
L 148.678395 207.646991 
L 149.122592 202.983054 
L 149.566789 201.404901 
L 150.010986 197.719599 
L 150.455182 191.486382 
L 150.899379 189.307993 
L 151.343576 186.03423 
L 151.787773 179.59249 
L 152.231969 175.890626 
L 152.676166 174.449953 
L 153.120363 171.391049 
L 153.56456 165.617917 
L 154.89715 157.997826 
L 155.341347 154.077436 
L 155.785544 149.15055 
L 157.118134 140.325771 
L 157.562331 138.309502 
L 158.006528 134.914357 
L 158.894921 131.140011 
L 159.339118 126.012841 
L 159.783315 122.435636 
L 160.227512 121.165266 
L 160.671708 117.439734 
L 161.115905 115.081539 
L 161.560102 110.718451 
L 162.004299 109.979259 
L 162.448495 103.409398 
L 163.336889 98.385964 
L 163.781086 97.512943 
L 164.225283 93.764051 
L 164.669479 91.304919 
L 165.113676 87.78455 
L 166.00207 83.714299 
L 166.446267 84.705366 
L 166.890463 83.491265 
L 167.33466 83.447066 
L 167.778857 81.820924 
L 168.223054 81.264054 
L 168.66725 80.000242 
L 169.111447 76.23917 
L 169.555644 76.099335 
L 169.999841 76.639064 
L 170.444038 73.063119 
L 170.888234 72.899853 
L 171.332431 71.816076 
L 171.776628 69.90179 
L 172.220825 68.998685 
L 172.665021 71.671788 
L 173.109218 71.248094 
L 173.553415 69.314036 
L 173.997612 71.77449 
L 174.441809 71.087414 
L 174.886005 69.997161 
L 175.330202 70.250387 
L 175.774399 71.937818 
L 176.218596 69.322923 
L 176.662793 67.96359 
L 177.106989 68.434032 
L 177.551186 66.63568 
L 177.995383 67.941638 
L 178.43958 67.459421 
L 178.883776 67.981673 
L 179.327973 66.720938 
L 179.77217 68.12677 
L 180.216367 68.174671 
L 181.10476 70.091801 
L 181.548957 72.911461 
L 181.993154 72.792538 
L 182.437351 73.1464 
L 182.881548 75.574388 
L 183.325744 74.354683 
L 183.769941 74.462738 
L 184.214138 73.306915 
L 184.658335 77.505089 
L 185.102531 76.666667 
L 185.546728 76.836966 
L 185.990925 77.188491 
L 186.435122 77.913405 
L 186.879319 80.263656 
L 187.323515 81.202429 
L 187.767712 82.852916 
L 188.211909 83.57983 
L 188.656106 83.429659 
L 189.544499 81.833549 
L 189.988696 82.106091 
L 190.432893 82.589211 
L 190.87709 84.07916 
L 191.321286 87.162417 
L 191.765483 86.267208 
L 192.20968 86.23832 
L 192.653877 87.020356 
L 193.54227 87.811106 
L 193.986467 88.32236 
L 194.430664 87.646742 
L 194.874861 88.764452 
L 195.319057 87.833301 
L 195.763254 89.594746 
L 196.207451 88.919163 
L 196.651648 90.598561 
L 197.095845 91.233143 
L 197.984238 88.438332 
L 198.428435 91.314192 
L 198.872632 89.972617 
L 199.316829 89.698758 
L 199.761025 90.63731 
L 200.205222 88.732329 
L 200.649419 88.861288 
L 201.093616 86.876381 
L 201.537812 87.786971 
L 201.982009 84.47948 
L 202.426206 86.859832 
L 203.3146 84.668783 
L 203.758796 85.215771 
L 204.202993 85.511447 
L 204.64719 86.283757 
L 205.091387 84.295547 
L 205.535584 85.274987 
L 206.423977 88.971221 
L 206.868174 86.863 
L 207.312371 88.543391 
L 207.756567 88.923094 
L 208.200764 87.417155 
L 208.644961 90.122689 
L 209.533355 89.668439 
L 210.421748 87.622714 
L 210.865945 84.951276 
L 211.310142 86.50008 
L 212.198535 87.866914 
L 212.642732 87.525851 
L 213.086929 86.927572 
L 213.531126 87.009863 
L 213.975322 87.750966 
L 214.419519 88.095517 
L 214.863716 88.084248 
L 215.307913 87.170179 
L 215.75211 87.930661 
L 216.196306 87.343475 
L 216.640503 89.648817 
L 217.0847 88.586991 
L 217.528897 88.04967 
L 218.41729 86.095938 
L 218.861487 86.304499 
L 219.305684 87.767876 
L 219.749881 87.656088 
L 220.194077 87.131282 
L 221.082471 88.496942 
L 221.526668 88.667937 
L 222.415061 91.004824 
L 222.859258 90.502722 
L 223.303455 89.518539 
L 223.747652 90.573478 
L 224.191848 94.012587 
L 224.636045 92.325151 
L 225.080242 93.533411 
L 225.524439 92.858939 
L 225.968636 90.884543 
L 226.412832 90.948795 
L 226.857029 91.675641 
L 227.301226 93.606644 
L 227.745423 93.756761 
L 228.189619 93.662037 
L 228.633816 92.130012 
L 229.078013 94.61518 
L 229.52221 94.687339 
L 229.966407 95.078537 
L 230.410603 93.924817 
L 230.8548 90.737743 
L 231.298997 90.081458 
L 231.743194 90.540596 
L 232.631587 92.781306 
L 233.075784 92.301905 
L 233.519981 90.457046 
L 233.964178 89.953175 
L 234.408374 88.992022 
L 234.852571 89.39597 
L 235.296768 90.882864 
L 235.740965 89.224068 
L 236.185162 88.276819 
L 236.629358 86.611322 
L 237.073555 85.922336 
L 237.517752 85.456893 
L 238.406146 87.381019 
L 238.850342 86.194435 
L 239.294539 87.825354 
L 239.738736 88.295788 
L 240.182933 88.167108 
L 240.627129 89.062651 
L 241.071326 88.363285 
L 241.515523 85.343806 
L 241.95972 85.091559 
L 242.403917 85.528267 
L 242.848113 84.434737 
L 243.29231 84.203282 
L 243.736507 82.098514 
L 244.180704 81.178117 
L 244.6249 79.820797 
L 245.513294 83.350392 
L 245.957491 82.838411 
L 246.401688 82.01041 
L 246.845884 80.7591 
L 247.290081 80.563596 
L 247.734278 80.039972 
L 248.178475 81.423346 
L 248.622672 80.380697 
L 249.066868 78.762893 
L 249.511065 77.607142 
L 249.955262 78.333198 
L 250.399459 77.030815 
L 250.843655 78.112687 
L 251.287852 76.730838 
L 252.176246 76.792978 
L 252.620443 78.144382 
L 253.064639 78.765244 
L 253.508836 79.146992 
L 253.953033 78.265724 
L 254.39723 79.280822 
L 254.841427 79.794449 
L 255.72982 79.921708 
L 256.174017 78.442454 
L 256.618214 80.113936 
L 257.06241 80.232651 
L 257.506607 78.057253 
L 257.950804 78.240979 
L 258.395001 76.888817 
L 258.839198 76.528307 
L 259.727591 78.674275 
L 260.615985 74.768699 
L 261.060181 75.498614 
L 261.948575 74.487316 
L 262.392772 74.687347 
L 262.836969 76.741015 
L 263.281165 77.374382 
L 264.169559 81.719063 
L 265.057953 82.637541 
L 265.502149 84.175369 
L 265.946346 82.498986 
L 266.390543 82.53834 
L 266.83474 85.160351 
L 267.723133 83.013584 
L 268.16733 83.758695 
L 268.611527 82.908061 
L 269.055724 83.707278 
L 269.49992 83.995656 
L 269.944117 85.576426 
L 270.388314 83.634519 
L 270.832511 84.539548 
L 271.276708 83.905142 
L 271.720904 84.468991 
L 272.165101 82.572233 
L 273.053495 81.736659 
L 273.497691 81.371961 
L 273.941888 80.765717 
L 274.386085 81.075518 
L 274.830282 80.88111 
L 275.274479 82.382306 
L 275.718675 82.31522 
L 276.162872 82.034771 
L 276.607069 81.583026 
L 277.051266 78.388871 
L 277.495463 79.799211 
L 277.939659 80.124347 
L 278.383856 82.000166 
L 278.828053 79.696395 
L 279.27225 79.025524 
L 279.716446 79.76025 
L 280.160643 81.972212 
L 281.049037 87.263288 
L 281.493234 88.318276 
L 281.93743 85.524115 
L 282.825824 87.53786 
L 283.270021 87.04061 
L 284.158414 87.898515 
L 284.602611 86.368119 
L 285.046808 83.779423 
L 285.491005 83.823466 
L 285.935201 83.016865 
L 286.379398 81.91366 
L 286.823595 83.495003 
L 287.267792 83.761691 
L 287.711989 81.87928 
L 288.600382 85.572256 
L 289.044579 84.573328 
L 289.488776 85.318095 
L 289.932972 85.424734 
L 290.377169 84.52053 
L 290.821366 84.969595 
L 291.265563 86.151787 
L 291.70976 85.276174 
L 292.153956 83.681928 
L 292.598153 85.949166 
L 293.04235 87.190596 
L 293.486547 87.607867 
L 293.930744 86.309084 
L 294.37494 89.535783 
L 294.819137 90.504789 
L 295.263334 90.312448 
L 295.707531 91.562161 
L 296.595924 88.612065 
L 297.040121 91.699727 
L 297.484318 91.987875 
L 297.928515 93.130348 
L 298.372711 93.47814 
L 298.816908 90.917416 
L 299.705302 95.552342 
L 300.593695 95.629796 
L 301.037892 95.912497 
L 301.482089 95.082221 
L 301.926286 95.737721 
L 302.370482 95.329955 
L 302.814679 93.935119 
L 303.258876 91.346297 
L 303.703073 89.651526 
L 304.14727 92.733934 
L 304.591466 94.079187 
L 305.035663 93.544663 
L 305.47986 94.138718 
L 305.924057 93.150737 
L 306.368253 93.234478 
L 306.81245 95.756341 
L 307.256647 96.747059 
L 308.145041 94.315551 
L 308.589237 94.705667 
L 309.477631 91.395549 
L 310.366025 94.572794 
L 310.810221 94.225856 
L 311.254418 95.277563 
L 311.698615 94.930417 
L 312.587008 95.922784 
L 313.031205 96.598691 
L 313.475402 94.817543 
L 313.919599 94.201244 
L 314.363796 95.273706 
L 314.807992 94.723374 
L 315.252189 95.43372 
L 315.696386 97.818744 
L 316.140583 98.901501 
L 316.584779 95.416395 
L 317.91737 95.763194 
L 318.361567 97.90307 
L 318.805763 100.755918 
L 320.138354 96.406626 
L 320.582551 96.536226 
L 321.026747 97.200468 
L 321.470944 97.441296 
L 321.915141 97.096975 
L 322.359338 98.683344 
L 322.803534 97.591556 
L 323.247731 97.479006 
L 323.691928 98.036329 
L 324.136125 98.291852 
L 325.024518 94.111472 
L 325.468715 95.300109 
L 325.912912 96.139831 
L 326.357109 97.673138 
L 326.801306 96.285968 
L 327.245502 97.217887 
L 327.689699 94.787219 
L 328.133896 94.596144 
L 328.578093 95.076604 
L 329.022289 94.725147 
L 329.466486 94.104122 
L 329.910683 91.493669 
L 330.35488 91.752085 
L 330.799077 92.509222 
L 331.243273 92.803052 
L 331.68747 92.922945 
L 332.131667 92.403577 
L 332.575864 92.176247 
L 333.02006 90.730732 
L 333.464257 89.736371 
L 333.908454 89.329724 
L 334.352651 88.044355 
L 334.796848 87.715015 
L 335.685241 89.757982 
L 336.573635 86.694222 
L 337.017832 85.969867 
L 337.462028 85.768784 
L 337.906225 84.153513 
L 338.794619 85.902767 
L 339.683012 85.740199 
L 340.127209 84.308142 
L 340.571406 84.033353 
L 341.015603 82.837039 
L 341.459799 82.275551 
L 341.903996 82.791737 
L 342.348193 84.16809 
L 342.79239 84.872334 
L 343.236587 86.819689 
L 343.680783 86.021243 
L 344.12498 84.719266 
L 344.569177 85.258605 
L 345.45757 85.382916 
L 345.901767 86.160994 
L 346.345964 84.819387 
L 346.790161 86.561773 
L 347.234358 87.26781 
L 347.678554 88.377108 
L 348.122751 88.049399 
L 348.566948 84.986067 
L 349.011145 85.57782 
L 349.899538 88.352097 
L 350.343735 88.11111 
L 350.787932 86.08374 
L 351.232129 86.032395 
L 351.676325 85.084853 
L 352.120522 89.44833 
L 352.564719 88.971054 
L 353.008916 87.839922 
L 353.453113 87.236805 
L 353.897309 89.603889 
L 354.785703 89.937619 
L 355.2299 90.47842 
L 355.674096 92.046052 
L 356.118293 93.059146 
L 356.56249 96.418695 
L 357.89508 92.027151 
L 358.339277 93.944413 
L 358.783474 97.18443 
L 359.227671 97.263913 
L 359.671868 95.436132 
L 360.116064 95.158589 
L 360.560261 93.232609 
L 361.004458 94.690764 
L 361.448655 94.571223 
L 361.892851 93.873134 
L 362.337048 94.469062 
L 363.669639 91.939197 
L 364.113835 92.334304 
L 364.558032 91.065642 
L 365.002229 90.829353 
L 365.446426 89.577299 
L 365.890623 89.503957 
L 366.334819 90.356148 
L 366.779016 87.570025 
L 367.66741 88.901373 
L 368.555803 89.276501 
L 369 89.398149 
L 369.444197 92.036967 
L 370.33259 89.882027 
L 370.776787 90.841682 
L 371.665181 87.809382 
L 372.109377 87.330785 
L 372.553574 89.877492 
L 372.997771 90.320802 
L 373.886165 92.391109 
L 374.330361 90.394753 
L 374.774558 90.263803 
L 375.218755 89.502766 
L 375.662952 89.925537 
L 376.995542 85.537347 
L 377.439739 85.980446 
L 378.328132 84.286408 
L 378.772329 81.308751 
L 379.216526 82.082231 
L 380.10492 84.396963 
L 380.549116 84.792264 
L 380.993313 82.135399 
L 381.43751 82.87674 
L 381.881707 84.358354 
L 382.325904 82.802952 
L 382.7701 82.396965 
L 383.214297 80.266016 
L 384.102691 84.357086 
L 384.546887 83.732154 
L 384.991084 84.696543 
L 385.435281 84.507104 
L 385.879478 84.565588 
L 386.323675 83.22627 
L 386.767871 85.262811 
L 387.212068 84.950884 
L 388.544658 86.620515 
L 388.988855 89.91889 
L 389.433052 89.559806 
L 389.877249 89.913578 
L 390.321446 89.875479 
L 390.765642 90.636538 
L 391.209839 90.312065 
L 391.654036 88.241225 
L 392.54243 89.170823 
L 392.986626 88.355793 
L 393.430823 88.433566 
L 393.87502 87.445429 
L 394.319217 88.516416 
L 394.763413 86.162609 
L 395.20761 86.434294 
L 395.651807 82.720332 
L 396.096004 81.667659 
L 396.540201 83.00376 
L 396.984397 86.154558 
L 397.428594 86.064663 
L 399.205381 88.95988 
L 399.649578 88.023593 
L 400.537972 83.696821 
L 400.982168 84.274462 
L 401.426365 84.594517 
L 401.870562 85.082822 
L 402.758956 85.05045 
L 403.203152 84.48012 
L 403.647349 85.737108 
L 404.091546 85.143116 
L 404.535743 86.981178 
L 404.97994 87.769713 
L 405.424136 87.655858 
L 406.31253 81.648623 
L 406.756727 81.767772 
L 408.089317 77.618131 
L 408.533514 79.651599 
L 408.977711 77.574093 
L 409.421907 78.693645 
L 409.866104 81.149559 
L 410.310301 80.880749 
L 410.754498 78.596542 
L 411.198694 74.68454 
L 411.642891 74.209354 
L 412.087088 73.315233 
L 412.531285 73.210639 
L 412.975482 72.419473 
L 413.419678 72.408606 
L 414.308072 74.672328 
L 414.752269 75.644028 
L 415.640662 78.648772 
L 416.084859 80.913451 
L 416.529056 80.483151 
L 416.973253 80.498126 
L 417.417449 81.335261 
L 417.861646 82.941317 
L 418.305843 83.30773 
L 418.75004 81.571004 
L 419.194237 77.547105 
L 419.638433 75.323517 
L 420.08263 75.030067 
L 420.971024 72.217876 
L 421.415221 74.234736 
L 421.859417 74.865481 
L 422.303614 76.023186 
L 422.747811 78.455497 
L 423.192008 78.581618 
L 423.636204 79.38829 
L 424.080401 76.107498 
L 424.524598 74.544731 
L 424.968795 74.506952 
L 425.412992 76.085091 
L 425.857188 74.893344 
L 426.301385 75.217254 
L 426.745582 76.119092 
L 427.189779 75.274691 
L 427.633975 76.603191 
L 428.078172 78.613024 
L 428.522369 78.992385 
L 429.410763 81.453403 
L 429.854959 81.973629 
L 430.299156 85.680591 
L 430.743353 84.978363 
L 431.18755 84.600167 
L 431.631747 83.59669 
L 432.075943 79.941236 
L 432.52014 79.034455 
L 432.964337 78.848541 
L 433.408534 80.24971 
L 433.85273 80.86906 
L 434.296927 81.882326 
L 434.741124 80.862914 
L 435.185321 80.421201 
L 435.629518 80.722459 
L 436.073714 79.231702 
L 436.517911 76.664614 
L 436.962108 76.389238 
L 438.294698 73.104497 
L 438.738895 73.53824 
L 439.183092 73.000169 
L 439.627289 73.257452 
L 440.071485 73.98516 
L 440.515682 73.813873 
L 440.959879 75.119023 
L 441.404076 77.996508 
L 441.848273 79.603296 
L 442.292469 79.450818 
L 443.180863 83.268769 
L 443.62506 81.73771 
L 444.069256 81.034477 
L 444.513453 80.828114 
L 444.95765 81.436565 
L 445.401847 81.701624 
L 445.846044 80.314865 
L 446.29024 83.447291 
L 446.734437 84.395912 
L 447.178634 84.588343 
L 447.622831 83.767703 
L 448.067028 83.261476 
L 448.511224 84.370368 
L 448.955421 83.111233 
L 449.399618 84.74128 
L 449.843815 82.66998 
L 450.288011 82.870481 
L 450.732208 84.807153 
L 451.176405 85.169508 
L 451.620602 85.13251 
L 452.064799 85.471119 
L 452.953192 85.713847 
L 453.397389 85.285231 
L 453.841586 85.365938 
L 454.285783 87.119277 
L 454.729979 88.065921 
L 456.06257 91.940271 
L 456.506766 90.443593 
L 456.950963 92.834257 
L 457.39516 92.919247 
L 457.839357 91.089019 
L 458.72775 93.28139 
L 459.171947 91.478232 
L 459.616144 92.557848 
L 460.060341 91.743778 
L 460.504537 94.251606 
L 460.948734 94.619517 
L 461.392931 95.173803 
L 461.837128 95.156549 
L 462.281325 94.474346 
L 462.725521 94.69937 
L 463.169718 95.353773 
L 463.613915 94.415844 
L 464.058112 96.105143 
L 464.502309 94.240504 
L 464.946505 93.072292 
L 465.390702 93.49839 
L 465.834899 94.861343 
L 466.279096 95.181015 
L 466.723292 93.779015 
L 467.611686 90.605204 
L 468.055883 92.456769 
L 469.388473 91.442516 
L 469.83267 92.003616 
L 470.276867 91.675762 
L 470.721064 89.229033 
L 471.16526 91.358176 
L 471.609457 89.521671 
L 472.053654 91.732956 
L 472.497851 90.331029 
L 472.942047 89.387449 
L 473.386244 88.023977 
L 473.830441 87.587337 
L 474.274638 88.126369 
L 474.718835 86.743482 
L 475.163031 86.658113 
L 475.607228 87.80315 
L 476.495622 85.372744 
L 476.939819 85.473339 
L 477.384015 85.291306 
L 477.828212 82.693498 
L 478.272409 81.477656 
L 478.716606 81.432557 
L 479.160802 77.48932 
L 479.604999 77.746197 
L 480.049196 77.538174 
L 480.493393 75.845156 
L 480.93759 75.510416 
L 481.381786 77.638539 
L 481.825983 77.905309 
L 482.27018 77.4106 
L 482.714377 76.075185 
L 483.158573 75.795138 
L 483.60277 73.994177 
L 484.491164 72.867915 
L 484.935361 73.465074 
L 485.379557 71.13933 
L 485.823754 71.33279 
L 486.267951 69.446113 
L 486.712148 70.630874 
L 487.156345 70.018496 
L 487.600541 69.875433 
L 488.044738 70.115165 
L 488.488935 70.216844 
L 489.377328 74.898155 
L 489.821525 76.891114 
L 490.265722 74.755521 
L 490.709919 73.206974 
L 491.154116 74.338323 
L 491.598312 74.200157 
L 492.042509 74.706722 
L 492.486706 75.631338 
L 492.930903 75.641027 
L 493.3751 73.654775 
L 493.819296 75.384755 
L 494.263493 75.529307 
L 494.70769 77.237159 
L 495.151887 77.252391 
L 495.596083 77.842749 
L 496.04028 77.835086 
L 496.484477 76.180321 
L 496.928674 75.952458 
L 497.372871 76.233629 
L 498.261264 74.266579 
L 498.705461 76.911021 
L 499.149658 76.809748 
L 499.593854 76.40544 
L 500.038051 79.355296 
L 500.482248 77.5371 
L 501.370642 81.443073 
L 501.814838 80.205907 
L 502.259035 81.759883 
L 502.703232 80.3378 
L 503.147429 81.476866 
L 503.591626 80.693603 
L 504.035822 78.960139 
L 504.480019 80.035265 
L 504.924216 80.175056 
L 505.368413 80.671047 
L 505.812609 82.200201 
L 506.256806 82.268312 
L 506.701003 83.287408 
L 507.1452 81.572159 
L 507.589397 83.452323 
L 508.033593 81.703827 
L 508.47779 82.536977 
L 508.921987 84.13764 
L 509.810381 81.945887 
L 510.254577 81.21715 
L 510.698774 81.562348 
L 511.587168 78.657847 
L 512.031364 78.196304 
L 512.475561 79.046862 
L 512.919758 81.369258 
L 513.363955 80.038898 
L 513.808152 80.488892 
L 514.252348 78.664179 
L 514.696545 77.55841 
L 515.140742 77.307671 
L 515.584939 78.022918 
L 516.029135 77.838182 
L 516.473332 78.667442 
L 516.917529 77.726976 
L 517.361726 79.095282 
L 517.805923 78.516454 
L 518.250119 78.121948 
L 518.694316 80.270755 
L 519.138513 80.224243 
L 519.58271 79.064584 
L 520.471103 82.033526 
L 520.9153 81.518418 
L 521.359497 82.275176 
L 521.803694 82.406966 
L 522.24789 80.015349 
L 522.692087 81.243439 
L 523.136284 79.227608 
L 523.580481 79.981253 
L 524.468874 82.716839 
L 524.913071 86.652553 
L 525.801465 86.607229 
L 526.245662 86.395712 
L 526.689858 87.79759 
L 527.134055 84.706494 
L 528.022449 84.16322 
L 528.466645 83.139904 
L 528.910842 83.05348 
L 529.355039 86.214284 
L 529.799236 85.578867 
L 530.243433 88.769899 
L 530.687629 89.351448 
L 531.131826 87.602699 
L 532.02022 88.159837 
L 532.464416 88.818072 
L 532.908613 88.477645 
L 533.35281 90.416681 
L 533.797007 91.723844 
L 534.241204 94.176346 
L 534.6854 94.74502 
L 535.129597 92.081209 
L 536.017991 94.175778 
L 537.350581 93.216809 
L 537.794778 93.257728 
L 538.683171 91.37959 
L 539.127368 91.597452 
L 539.571565 91.58487 
L 540.015762 90.643786 
L 540.459959 92.146174 
L 540.904155 91.366178 
L 541.792549 93.355544 
L 542.236746 93.705448 
L 542.680943 94.419653 
L 543.125139 90.801304 
L 543.569336 91.424278 
L 544.013533 91.73292 
L 544.45773 92.530896 
L 544.901926 94.031126 
L 545.346123 94.435647 
L 546.234517 97.297476 
L 546.678714 95.819265 
L 547.12291 93.507863 
L 547.567107 93.852866 
L 548.011304 94.583408 
L 548.455501 94.694393 
L 548.899698 93.373497 
L 549.343894 94.400405 
L 549.788091 94.211796 
L 550.232288 94.973659 
L 550.676485 94.464476 
L 551.120681 94.267532 
L 551.564878 93.334215 
L 552.009075 93.020993 
L 552.453272 91.781566 
L 552.897469 91.512242 
L 553.341665 91.46819 
L 554.230059 92.762089 
L 554.674256 91.313407 
L 555.118452 91.818049 
L 555.562649 90.753611 
L 556.006846 89.320588 
L 556.451043 87.086147 
L 556.89524 86.754886 
L 557.339436 88.242299 
L 557.783633 87.280306 
L 558.22783 83.606267 
L 558.672027 85.611032 
L 559.116224 85.294713 
L 559.56042 86.464184 
L 560.004617 86.280273 
L 560.448814 87.779926 
L 561.337207 88.149832 
L 561.781404 87.268058 
L 562.225601 88.184135 
L 563.113995 87.82805 
L 564.002388 88.02689 
L 564.446585 85.903514 
L 564.890782 85.79906 
L 565.334979 88.210248 
L 565.779175 87.927103 
L 566.223372 86.475203 
L 566.667569 87.23447 
L 567.111766 86.621668 
L 567.555962 87.103881 
L 568.000159 84.471336 
L 568.444356 83.589549 
L 568.888553 81.634283 
L 569.33275 82.296841 
L 569.776946 79.194227 
L 570.221143 79.233991 
L 570.66534 78.537071 
L 571.553733 78.608043 
L 571.99793 79.042418 
L 572.442127 79.71989 
L 572.886324 81.197462 
L 573.330521 81.686705 
L 573.774717 81.916702 
L 574.218914 83.634115 
L 574.663111 81.76564 
L 575.107308 80.794056 
L 575.551505 82.508904 
L 575.995701 83.508919 
L 576.439898 81.381881 
L 576.884095 80.01154 
L 577.328292 79.125972 
L 577.772488 78.859236 
L 578.216685 78.078108 
L 578.660882 78.758643 
L 579.549276 80.77322 
L 579.993472 79.605895 
L 580.437669 80.888864 
L 580.881866 79.384243 
L 581.326063 78.389155 
L 581.77026 78.778909 
L 582.214456 76.613127 
L 582.658653 73.281791 
L 583.10285 72.825907 
L 583.547047 72.065796 
L 583.991243 71.85167 
L 584.43544 71.838664 
L 586.212227 65.388636 
L 586.656424 65.617975 
L 587.100621 65.375333 
L 587.544818 65.879271 
L 587.989014 63.405007 
L 588.433211 62.187983 
L 588.877408 61.685488 
L 589.321605 60.663016 
L 589.765802 61.351897 
L 590.209998 60.509218 
L 590.654195 60.34298 
L 591.098392 60.647207 
L 591.542589 59.524483 
L 591.986786 61.934145 
L 592.430982 59.947782 
L 592.875179 61.758766 
L 593.319376 61.477622 
L 593.763573 61.454346 
L 594.207769 61.598764 
L 595.096163 57.970193 
L 595.984557 56.901404 
L 596.428753 55.8 
L 597.317147 58.868544 
L 597.761344 56.58195 
L 598.205541 56.854641 
L 598.649737 59.576366 
L 599.093934 61.077801 
L 599.538131 62.099617 
L 599.982328 60.393608 
L 600.426524 60.581711 
L 600.870721 58.240052 
L 601.314918 58.728648 
L 601.759115 57.467673 
L 602.647508 58.985096 
L 603.091705 59.437305 
L 603.535902 61.539575 
L 603.980099 60.737822 
L 604.424295 62.028275 
L 604.868492 66.077204 
L 605.312689 65.12816 
L 605.756886 65.314254 
L 606.201083 64.634471 
L 606.645279 63.587605 
L 607.089476 64.524807 
L 607.533673 67.488681 
L 607.97787 67.772605 
L 608.866263 69.417916 
L 609.31046 68.503092 
L 609.754657 69.125747 
L 610.198854 70.222006 
L 610.64305 72.790429 
L 611.087247 71.893109 
L 611.531444 74.211637 
L 611.975641 73.903855 
L 612.864034 76.07705 
L 613.308231 77.973124 
L 613.752428 81.382225 
L 614.196625 81.028796 
L 614.640822 81.833707 
L 615.085018 78.548266 
L 615.529215 79.727237 
L 615.973412 81.504206 
L 616.417609 81.548844 
L 616.861805 78.953955 
L 617.306002 80.379324 
L 617.750199 74.978035 
L 618.194396 77.030223 
L 618.638593 73.357116 
L 619.082789 75.463238 
L 619.526986 73.760233 
L 619.971183 74.435811 
L 620.41538 72.694057 
L 620.859577 73.26181 
L 621.303773 75.592704 
L 621.74797 77.204496 
L 622.192167 79.29267 
L 622.636364 80.360038 
L 622.636364 80.360038 
" clip-path="url(#p3be54cfa1b)" style="fill: none; stroke: #1f77b4; stroke-width: 1.5; stroke-linecap: square"/>
   </g>
   <g id="patch_3">
    <path d="M 90 320.4 
L 90 43.2 
" style="fill: none; stroke: #000000; stroke-width: 0.8; stroke-linejoin: miter; stroke-linecap: square"/>
   </g>
   <g id="patch_4">
    <path d="M 648 320.4 
L 648 43.2 
" style="fill: none; stroke: #000000; stroke-width: 0.8; stroke-linejoin: miter; stroke-linecap: square"/>
   </g>
   <g id="patch_5">
    <path d="M 90 320.4 
L 648 320.4 
" style="fill: none; stroke: #000000; stroke-width: 0.8; stroke-linejoin: miter; stroke-linecap: square"/>
   </g>
   <g id="patch_6">
    <path d="M 90 43.2 
L 648 43.2 
" style="fill: none; stroke: #000000; stroke-width: 0.8; stroke-linejoin: miter; stroke-linecap: square"/>
   </g>
   <g id="text_14">
    <!-- Model Training -->
    <g transform="translate(325.40625 37.2) scale(0.12 -0.12)">
     <defs>
      <path id="DejaVuSans-4d" d="M 628 4666 
L 1569 4666 
L 2759 1491 
L 3956 4666 
L 4897 4666 
L 4897 0 
L 4281 0 
L 4281 4097 
L 3078 897 
L 2444 897 
L 1241 4097 
L 1241 0 
L 628 0 
L 628 4666 
z
" transform="scale(0.015625)"/>
      <path id="DejaVuSans-6c" d="M 603 4863 
L 1178 4863 
L 1178 0 
L 603 0 
L 603 4863 
z
" transform="scale(0.015625)"/>
      <path id="DejaVuSans-20" transform="scale(0.015625)"/>
      <path id="DejaVuSans-54" d="M -19 4666 
L 3928 4666 
L 3928 4134 
L 2272 4134 
L 2272 0 
L 1638 0 
L 1638 4134 
L -19 4134 
L -19 4666 
z
" transform="scale(0.015625)"/>
      <path id="DejaVuSans-6e" d="M 3513 2113 
L 3513 0 
L 2938 0 
L 2938 2094 
Q 2938 2591 2744 2837 
Q 2550 3084 2163 3084 
Q 1697 3084 1428 2787 
Q 1159 2491 1159 1978 
L 1159 0 
L 581 0 
L 581 3500 
L 1159 3500 
L 1159 2956 
Q 1366 3272 1645 3428 
Q 1925 3584 2291 3584 
Q 2894 3584 3203 3211 
Q 3513 2838 3513 2113 
z
" transform="scale(0.015625)"/>
      <path id="DejaVuSans-67" d="M 2906 1791 
Q 2906 2416 2648 2759 
Q 2391 3103 1925 3103 
Q 1463 3103 1205 2759 
Q 947 2416 947 1791 
Q 947 1169 1205 825 
Q 1463 481 1925 481 
Q 2391 481 2648 825 
Q 2906 1169 2906 1791 
z
M 3481 434 
Q 3481 -459 3084 -895 
Q 2688 -1331 1869 -1331 
Q 1566 -1331 1297 -1286 
Q 1028 -1241 775 -1147 
L 775 -588 
Q 1028 -725 1275 -790 
Q 1522 -856 1778 -856 
Q 2344 -856 2625 -561 
Q 2906 -266 2906 331 
L 2906 616 
Q 2728 306 2450 153 
Q 2172 0 1784 0 
Q 1141 0 747 490 
Q 353 981 353 1791 
Q 353 2603 747 3093 
Q 1141 3584 1784 3584 
Q 2172 3584 2450 3431 
Q 2728 3278 2906 2969 
L 2906 3500 
L 3481 3500 
L 3481 434 
z
" transform="scale(0.015625)"/>
     </defs>
     <use xlink:href="#DejaVuSans-4d"/>
     <use xlink:href="#DejaVuSans-6f" x="86.279297"/>
     <use xlink:href="#DejaVuSans-64" x="147.460938"/>
     <use xlink:href="#DejaVuSans-65" x="210.9375"/>
     <use xlink:href="#DejaVuSans-6c" x="272.460938"/>
     <use xlink:href="#DejaVuSans-20" x="300.244141"/>
     <use xlink:href="#DejaVuSans-54" x="332.03125"/>
     <use xlink:href="#DejaVuSans-72" x="378.365234"/>
     <use xlink:href="#DejaVuSans-61" x="419.478516"/>
     <use xlink:href="#DejaVuSans-69" x="480.757812"/>
     <use xlink:href="#DejaVuSans-6e" x="508.541016"/>
     <use xlink:href="#DejaVuSans-69" x="571.919922"/>
     <use xlink:href="#DejaVuSans-6e" x="599.703125"/>
     <use xlink:href="#DejaVuSans-67" x="663.082031"/>
    </g>
   </g>
   <g id="legend_1">
    <g id="patch_7">
     <path d="M 97 65.878125 
L 206.426562 65.878125 
Q 208.426562 65.878125 208.426562 63.878125 
L 208.426562 50.2 
Q 208.426562 48.2 206.426562 48.2 
L 97 48.2 
Q 95 48.2 95 50.2 
L 95 63.878125 
Q 95 65.878125 97 65.878125 
z
" style="fill: #ffffff; opacity: 0.8; stroke: #cccccc; stroke-linejoin: miter"/>
    </g>
    <g id="line2d_24">
     <path d="M 99 56.298437 
L 109 56.298437 
L 119 56.298437 
" style="fill: none; stroke: #1f77b4; stroke-width: 1.5; stroke-linecap: square"/>
    </g>
    <g id="text_15">
     <!-- Average Return -->
     <g transform="translate(127 59.798437) scale(0.1 -0.1)">
      <defs>
       <path id="DejaVuSans-41" d="M 2188 4044 
L 1331 1722 
L 3047 1722 
L 2188 4044 
z
M 1831 4666 
L 2547 4666 
L 4325 0 
L 3669 0 
L 3244 1197 
L 1141 1197 
L 716 0 
L 50 0 
L 1831 4666 
z
" transform="scale(0.015625)"/>
       <path id="DejaVuSans-76" d="M 191 3500 
L 800 3500 
L 1894 563 
L 2988 3500 
L 3597 3500 
L 2284 0 
L 1503 0 
L 191 3500 
z
" transform="scale(0.015625)"/>
       <path id="DejaVuSans-74" d="M 1172 4494 
L 1172 3500 
L 2356 3500 
L 2356 3053 
L 1172 3053 
L 1172 1153 
Q 1172 725 1289 603 
Q 1406 481 1766 481 
L 2356 481 
L 2356 0 
L 1766 0 
Q 1100 0 847 248 
Q 594 497 594 1153 
L 594 3053 
L 172 3053 
L 172 3500 
L 594 3500 
L 594 4494 
L 1172 4494 
z
" transform="scale(0.015625)"/>
       <path id="DejaVuSans-75" d="M 544 1381 
L 544 3500 
L 1119 3500 
L 1119 1403 
Q 1119 906 1312 657 
Q 1506 409 1894 409 
Q 2359 409 2629 706 
Q 2900 1003 2900 1516 
L 2900 3500 
L 3475 3500 
L 3475 0 
L 2900 0 
L 2900 538 
Q 2691 219 2414 64 
Q 2138 -91 1772 -91 
Q 1169 -91 856 284 
Q 544 659 544 1381 
z
M 1991 3584 
L 1991 3584 
z
" transform="scale(0.015625)"/>
      </defs>
      <use xlink:href="#DejaVuSans-41"/>
      <use xlink:href="#DejaVuSans-76" x="62.533203"/>
      <use xlink:href="#DejaVuSans-65" x="121.712891"/>
      <use xlink:href="#DejaVuSans-72" x="183.236328"/>
      <use xlink:href="#DejaVuSans-61" x="224.349609"/>
      <use xlink:href="#DejaVuSans-67" x="285.628906"/>
      <use xlink:href="#DejaVuSans-65" x="349.105469"/>
      <use xlink:href="#DejaVuSans-20" x="410.628906"/>
      <use xlink:href="#DejaVuSans-52" x="442.416016"/>
      <use xlink:href="#DejaVuSans-65" x="507.398438"/>
      <use xlink:href="#DejaVuSans-74" x="568.921875"/>
      <use xlink:href="#DejaVuSans-75" x="608.130859"/>
      <use xlink:href="#DejaVuSans-72" x="671.509766"/>
      <use xlink:href="#DejaVuSans-6e" x="710.873047"/>
     </g>
    </g>
   </g>
  </g>
 </g>
 <defs>
  <clipPath id="p3be54cfa1b">
   <rect x="90" y="43.2" width="558" height="277.2"/>
  </clipPath>
 </defs>
</svg>
