<?xml version="1.0" encoding="utf-8" standalone="no"?>
<!DOCTYPE svg PUBLIC "-//W3C//DTD SVG 1.1//EN"
  "http://www.w3.org/Graphics/SVG/1.1/DTD/svg11.dtd">
<svg xmlns:xlink="http://www.w3.org/1999/xlink" width="720pt" height="360pt" viewBox="0 0 720 360" xmlns="http://www.w3.org/2000/svg" version="1.1">
 <metadata>
  <rdf:RDF xmlns:dc="http://purl.org/dc/elements/1.1/" xmlns:cc="http://creativecommons.org/ns#" xmlns:rdf="http://www.w3.org/1999/02/22-rdf-syntax-ns#">
   <cc:Work>
    <dc:type rdf:resource="http://purl.org/dc/dcmitype/StillImage"/>
    <dc:date>2024-05-21T03:10:11.506052</dc:date>
    <dc:format>image/svg+xml</dc:format>
    <dc:creator>
     <cc:Agent>
      <dc:title>Matplotlib v3.8.4, https://matplotlib.org/</dc:title>
     </cc:Agent>
    </dc:creator>
   </cc:Work>
  </rdf:RDF>
 </metadata>
 <defs>
  <style type="text/css">*{stroke-linejoin: round; stroke-linecap: butt}</style>
 </defs>
 <g id="figure_1">
  <g id="patch_1">
   <path d="M 0 360 
L 720 360 
L 720 0 
L 0 0 
z
" style="fill: #ffffff"/>
  </g>
  <g id="axes_1">
   <g id="patch_2">
    <path d="M 90 320.4 
L 648 320.4 
L 648 43.2 
L 90 43.2 
z
" style="fill: #ffffff"/>
   </g>
   <g id="matplotlib.axis_1">
    <g id="xtick_1">
     <g id="line2d_1">
      <path d="M 115.363636 320.4 
L 115.363636 43.2 
" clip-path="url(#p74e15e92d4)" style="fill: none; stroke: #b0b0b0; stroke-width: 0.8; stroke-linecap: square"/>
     </g>
     <g id="line2d_2">
      <defs>
       <path id="mbfbc17c6d9" d="M 0 0 
L 0 3.5 
" style="stroke: #000000; stroke-width: 0.8"/>
      </defs>
      <g>
       <use xlink:href="#mbfbc17c6d9" x="115.363636" y="320.4" style="stroke: #000000; stroke-width: 0.8"/>
      </g>
     </g>
     <g id="text_1">
      <!-- 0 -->
      <g transform="translate(112.182386 334.998438) scale(0.1 -0.1)">
       <defs>
        <path id="DejaVuSans-30" d="M 2034 4250 
Q 1547 4250 1301 3770 
Q 1056 3291 1056 2328 
Q 1056 1369 1301 889 
Q 1547 409 2034 409 
Q 2525 409 2770 889 
Q 3016 1369 3016 2328 
Q 3016 3291 2770 3770 
Q 2525 4250 2034 4250 
z
M 2034 4750 
Q 2819 4750 3233 4129 
Q 3647 3509 3647 2328 
Q 3647 1150 3233 529 
Q 2819 -91 2034 -91 
Q 1250 -91 836 529 
Q 422 1150 422 2328 
Q 422 3509 836 4129 
Q 1250 4750 2034 4750 
z
" transform="scale(0.015625)"/>
       </defs>
       <use xlink:href="#DejaVuSans-30"/>
      </g>
     </g>
    </g>
    <g id="xtick_2">
     <g id="line2d_3">
      <path d="M 200.547973 320.4 
L 200.547973 43.2 
" clip-path="url(#p74e15e92d4)" style="fill: none; stroke: #b0b0b0; stroke-width: 0.8; stroke-linecap: square"/>
     </g>
     <g id="line2d_4">
      <g>
       <use xlink:href="#mbfbc17c6d9" x="200.547973" y="320.4" style="stroke: #000000; stroke-width: 0.8"/>
      </g>
     </g>
     <g id="text_2">
      <!-- 200 -->
      <g transform="translate(191.004223 334.998438) scale(0.1 -0.1)">
       <defs>
        <path id="DejaVuSans-32" d="M 1228 531 
L 3431 531 
L 3431 0 
L 469 0 
L 469 531 
Q 828 903 1448 1529 
Q 2069 2156 2228 2338 
Q 2531 2678 2651 2914 
Q 2772 3150 2772 3378 
Q 2772 3750 2511 3984 
Q 2250 4219 1831 4219 
Q 1534 4219 1204 4116 
Q 875 4013 500 3803 
L 500 4441 
Q 881 4594 1212 4672 
Q 1544 4750 1819 4750 
Q 2544 4750 2975 4387 
Q 3406 4025 3406 3419 
Q 3406 3131 3298 2873 
Q 3191 2616 2906 2266 
Q 2828 2175 2409 1742 
Q 1991 1309 1228 531 
z
" transform="scale(0.015625)"/>
       </defs>
       <use xlink:href="#DejaVuSans-32"/>
       <use xlink:href="#DejaVuSans-30" x="63.623047"/>
       <use xlink:href="#DejaVuSans-30" x="127.246094"/>
      </g>
     </g>
    </g>
    <g id="xtick_3">
     <g id="line2d_5">
      <path d="M 285.732311 320.4 
L 285.732311 43.2 
" clip-path="url(#p74e15e92d4)" style="fill: none; stroke: #b0b0b0; stroke-width: 0.8; stroke-linecap: square"/>
     </g>
     <g id="line2d_6">
      <g>
       <use xlink:href="#mbfbc17c6d9" x="285.732311" y="320.4" style="stroke: #000000; stroke-width: 0.8"/>
      </g>
     </g>
     <g id="text_3">
      <!-- 400 -->
      <g transform="translate(276.188561 334.998438) scale(0.1 -0.1)">
       <defs>
        <path id="DejaVuSans-34" d="M 2419 4116 
L 825 1625 
L 2419 1625 
L 2419 4116 
z
M 2253 4666 
L 3047 4666 
L 3047 1625 
L 3713 1625 
L 3713 1100 
L 3047 1100 
L 3047 0 
L 2419 0 
L 2419 1100 
L 313 1100 
L 313 1709 
L 2253 4666 
z
" transform="scale(0.015625)"/>
       </defs>
       <use xlink:href="#DejaVuSans-34"/>
       <use xlink:href="#DejaVuSans-30" x="63.623047"/>
       <use xlink:href="#DejaVuSans-30" x="127.246094"/>
      </g>
     </g>
    </g>
    <g id="xtick_4">
     <g id="line2d_7">
      <path d="M 370.916648 320.4 
L 370.916648 43.2 
" clip-path="url(#p74e15e92d4)" style="fill: none; stroke: #b0b0b0; stroke-width: 0.8; stroke-linecap: square"/>
     </g>
     <g id="line2d_8">
      <g>
       <use xlink:href="#mbfbc17c6d9" x="370.916648" y="320.4" style="stroke: #000000; stroke-width: 0.8"/>
      </g>
     </g>
     <g id="text_4">
      <!-- 600 -->
      <g transform="translate(361.372898 334.998438) scale(0.1 -0.1)">
       <defs>
        <path id="DejaVuSans-36" d="M 2113 2584 
Q 1688 2584 1439 2293 
Q 1191 2003 1191 1497 
Q 1191 994 1439 701 
Q 1688 409 2113 409 
Q 2538 409 2786 701 
Q 3034 994 3034 1497 
Q 3034 2003 2786 2293 
Q 2538 2584 2113 2584 
z
M 3366 4563 
L 3366 3988 
Q 3128 4100 2886 4159 
Q 2644 4219 2406 4219 
Q 1781 4219 1451 3797 
Q 1122 3375 1075 2522 
Q 1259 2794 1537 2939 
Q 1816 3084 2150 3084 
Q 2853 3084 3261 2657 
Q 3669 2231 3669 1497 
Q 3669 778 3244 343 
Q 2819 -91 2113 -91 
Q 1303 -91 875 529 
Q 447 1150 447 2328 
Q 447 3434 972 4092 
Q 1497 4750 2381 4750 
Q 2619 4750 2861 4703 
Q 3103 4656 3366 4563 
z
" transform="scale(0.015625)"/>
       </defs>
       <use xlink:href="#DejaVuSans-36"/>
       <use xlink:href="#DejaVuSans-30" x="63.623047"/>
       <use xlink:href="#DejaVuSans-30" x="127.246094"/>
      </g>
     </g>
    </g>
    <g id="xtick_5">
     <g id="line2d_9">
      <path d="M 456.100985 320.4 
L 456.100985 43.2 
" clip-path="url(#p74e15e92d4)" style="fill: none; stroke: #b0b0b0; stroke-width: 0.8; stroke-linecap: square"/>
     </g>
     <g id="line2d_10">
      <g>
       <use xlink:href="#mbfbc17c6d9" x="456.100985" y="320.4" style="stroke: #000000; stroke-width: 0.8"/>
      </g>
     </g>
     <g id="text_5">
      <!-- 800 -->
      <g transform="translate(446.557235 334.998438) scale(0.1 -0.1)">
       <defs>
        <path id="DejaVuSans-38" d="M 2034 2216 
Q 1584 2216 1326 1975 
Q 1069 1734 1069 1313 
Q 1069 891 1326 650 
Q 1584 409 2034 409 
Q 2484 409 2743 651 
Q 3003 894 3003 1313 
Q 3003 1734 2745 1975 
Q 2488 2216 2034 2216 
z
M 1403 2484 
Q 997 2584 770 2862 
Q 544 3141 544 3541 
Q 544 4100 942 4425 
Q 1341 4750 2034 4750 
Q 2731 4750 3128 4425 
Q 3525 4100 3525 3541 
Q 3525 3141 3298 2862 
Q 3072 2584 2669 2484 
Q 3125 2378 3379 2068 
Q 3634 1759 3634 1313 
Q 3634 634 3220 271 
Q 2806 -91 2034 -91 
Q 1263 -91 848 271 
Q 434 634 434 1313 
Q 434 1759 690 2068 
Q 947 2378 1403 2484 
z
M 1172 3481 
Q 1172 3119 1398 2916 
Q 1625 2713 2034 2713 
Q 2441 2713 2670 2916 
Q 2900 3119 2900 3481 
Q 2900 3844 2670 4047 
Q 2441 4250 2034 4250 
Q 1625 4250 1398 4047 
Q 1172 3844 1172 3481 
z
" transform="scale(0.015625)"/>
       </defs>
       <use xlink:href="#DejaVuSans-38"/>
       <use xlink:href="#DejaVuSans-30" x="63.623047"/>
       <use xlink:href="#DejaVuSans-30" x="127.246094"/>
      </g>
     </g>
    </g>
    <g id="xtick_6">
     <g id="line2d_11">
      <path d="M 541.285322 320.4 
L 541.285322 43.2 
" clip-path="url(#p74e15e92d4)" style="fill: none; stroke: #b0b0b0; stroke-width: 0.8; stroke-linecap: square"/>
     </g>
     <g id="line2d_12">
      <g>
       <use xlink:href="#mbfbc17c6d9" x="541.285322" y="320.4" style="stroke: #000000; stroke-width: 0.8"/>
      </g>
     </g>
     <g id="text_6">
      <!-- 1000 -->
      <g transform="translate(528.560322 334.998438) scale(0.1 -0.1)">
       <defs>
        <path id="DejaVuSans-31" d="M 794 531 
L 1825 531 
L 1825 4091 
L 703 3866 
L 703 4441 
L 1819 4666 
L 2450 4666 
L 2450 531 
L 3481 531 
L 3481 0 
L 794 0 
L 794 531 
z
" transform="scale(0.015625)"/>
       </defs>
       <use xlink:href="#DejaVuSans-31"/>
       <use xlink:href="#DejaVuSans-30" x="63.623047"/>
       <use xlink:href="#DejaVuSans-30" x="127.246094"/>
       <use xlink:href="#DejaVuSans-30" x="190.869141"/>
      </g>
     </g>
    </g>
    <g id="xtick_7">
     <g id="line2d_13">
      <path d="M 626.469659 320.4 
L 626.469659 43.2 
" clip-path="url(#p74e15e92d4)" style="fill: none; stroke: #b0b0b0; stroke-width: 0.8; stroke-linecap: square"/>
     </g>
     <g id="line2d_14">
      <g>
       <use xlink:href="#mbfbc17c6d9" x="626.469659" y="320.4" style="stroke: #000000; stroke-width: 0.8"/>
      </g>
     </g>
     <g id="text_7">
      <!-- 1200 -->
      <g transform="translate(613.744659 334.998438) scale(0.1 -0.1)">
       <use xlink:href="#DejaVuSans-31"/>
       <use xlink:href="#DejaVuSans-32" x="63.623047"/>
       <use xlink:href="#DejaVuSans-30" x="127.246094"/>
       <use xlink:href="#DejaVuSans-30" x="190.869141"/>
      </g>
     </g>
    </g>
    <g id="text_8">
     <!-- Episodes -->
     <g transform="translate(346.757812 348.676562) scale(0.1 -0.1)">
      <defs>
       <path id="DejaVuSans-45" d="M 628 4666 
L 3578 4666 
L 3578 4134 
L 1259 4134 
L 1259 2753 
L 3481 2753 
L 3481 2222 
L 1259 2222 
L 1259 531 
L 3634 531 
L 3634 0 
L 628 0 
L 628 4666 
z
" transform="scale(0.015625)"/>
       <path id="DejaVuSans-70" d="M 1159 525 
L 1159 -1331 
L 581 -1331 
L 581 3500 
L 1159 3500 
L 1159 2969 
Q 1341 3281 1617 3432 
Q 1894 3584 2278 3584 
Q 2916 3584 3314 3078 
Q 3713 2572 3713 1747 
Q 3713 922 3314 415 
Q 2916 -91 2278 -91 
Q 1894 -91 1617 61 
Q 1341 213 1159 525 
z
M 3116 1747 
Q 3116 2381 2855 2742 
Q 2594 3103 2138 3103 
Q 1681 3103 1420 2742 
Q 1159 2381 1159 1747 
Q 1159 1113 1420 752 
Q 1681 391 2138 391 
Q 2594 391 2855 752 
Q 3116 1113 3116 1747 
z
" transform="scale(0.015625)"/>
       <path id="DejaVuSans-69" d="M 603 3500 
L 1178 3500 
L 1178 0 
L 603 0 
L 603 3500 
z
M 603 4863 
L 1178 4863 
L 1178 4134 
L 603 4134 
L 603 4863 
z
" transform="scale(0.015625)"/>
       <path id="DejaVuSans-73" d="M 2834 3397 
L 2834 2853 
Q 2591 2978 2328 3040 
Q 2066 3103 1784 3103 
Q 1356 3103 1142 2972 
Q 928 2841 928 2578 
Q 928 2378 1081 2264 
Q 1234 2150 1697 2047 
L 1894 2003 
Q 2506 1872 2764 1633 
Q 3022 1394 3022 966 
Q 3022 478 2636 193 
Q 2250 -91 1575 -91 
Q 1294 -91 989 -36 
Q 684 19 347 128 
L 347 722 
Q 666 556 975 473 
Q 1284 391 1588 391 
Q 1994 391 2212 530 
Q 2431 669 2431 922 
Q 2431 1156 2273 1281 
Q 2116 1406 1581 1522 
L 1381 1569 
Q 847 1681 609 1914 
Q 372 2147 372 2553 
Q 372 3047 722 3315 
Q 1072 3584 1716 3584 
Q 2034 3584 2315 3537 
Q 2597 3491 2834 3397 
z
" transform="scale(0.015625)"/>
       <path id="DejaVuSans-6f" d="M 1959 3097 
Q 1497 3097 1228 2736 
Q 959 2375 959 1747 
Q 959 1119 1226 758 
Q 1494 397 1959 397 
Q 2419 397 2687 759 
Q 2956 1122 2956 1747 
Q 2956 2369 2687 2733 
Q 2419 3097 1959 3097 
z
M 1959 3584 
Q 2709 3584 3137 3096 
Q 3566 2609 3566 1747 
Q 3566 888 3137 398 
Q 2709 -91 1959 -91 
Q 1206 -91 779 398 
Q 353 888 353 1747 
Q 353 2609 779 3096 
Q 1206 3584 1959 3584 
z
" transform="scale(0.015625)"/>
       <path id="DejaVuSans-64" d="M 2906 2969 
L 2906 4863 
L 3481 4863 
L 3481 0 
L 2906 0 
L 2906 525 
Q 2725 213 2448 61 
Q 2172 -91 1784 -91 
Q 1150 -91 751 415 
Q 353 922 353 1747 
Q 353 2572 751 3078 
Q 1150 3584 1784 3584 
Q 2172 3584 2448 3432 
Q 2725 3281 2906 2969 
z
M 947 1747 
Q 947 1113 1208 752 
Q 1469 391 1925 391 
Q 2381 391 2643 752 
Q 2906 1113 2906 1747 
Q 2906 2381 2643 2742 
Q 2381 3103 1925 3103 
Q 1469 3103 1208 2742 
Q 947 2381 947 1747 
z
" transform="scale(0.015625)"/>
       <path id="DejaVuSans-65" d="M 3597 1894 
L 3597 1613 
L 953 1613 
Q 991 1019 1311 708 
Q 1631 397 2203 397 
Q 2534 397 2845 478 
Q 3156 559 3463 722 
L 3463 178 
Q 3153 47 2828 -22 
Q 2503 -91 2169 -91 
Q 1331 -91 842 396 
Q 353 884 353 1716 
Q 353 2575 817 3079 
Q 1281 3584 2069 3584 
Q 2775 3584 3186 3129 
Q 3597 2675 3597 1894 
z
M 3022 2063 
Q 3016 2534 2758 2815 
Q 2500 3097 2075 3097 
Q 1594 3097 1305 2825 
Q 1016 2553 972 2059 
L 3022 2063 
z
" transform="scale(0.015625)"/>
      </defs>
      <use xlink:href="#DejaVuSans-45"/>
      <use xlink:href="#DejaVuSans-70" x="63.183594"/>
      <use xlink:href="#DejaVuSans-69" x="126.660156"/>
      <use xlink:href="#DejaVuSans-73" x="154.443359"/>
      <use xlink:href="#DejaVuSans-6f" x="206.542969"/>
      <use xlink:href="#DejaVuSans-64" x="267.724609"/>
      <use xlink:href="#DejaVuSans-65" x="331.201172"/>
      <use xlink:href="#DejaVuSans-73" x="392.724609"/>
     </g>
    </g>
   </g>
   <g id="matplotlib.axis_2">
    <g id="ytick_1">
     <g id="line2d_15">
      <path d="M 90 308.914754 
L 648 308.914754 
" clip-path="url(#p74e15e92d4)" style="fill: none; stroke: #b0b0b0; stroke-width: 0.8; stroke-linecap: square"/>
     </g>
     <g id="line2d_16">
      <defs>
       <path id="m4e9f65c3c3" d="M 0 0 
L -3.5 0 
" style="stroke: #000000; stroke-width: 0.8"/>
      </defs>
      <g>
       <use xlink:href="#m4e9f65c3c3" x="90" y="308.914754" style="stroke: #000000; stroke-width: 0.8"/>
      </g>
     </g>
     <g id="text_9">
      <!-- 4000 -->
      <g transform="translate(57.55 312.713973) scale(0.1 -0.1)">
       <use xlink:href="#DejaVuSans-34"/>
       <use xlink:href="#DejaVuSans-30" x="63.623047"/>
       <use xlink:href="#DejaVuSans-30" x="127.246094"/>
       <use xlink:href="#DejaVuSans-30" x="190.869141"/>
      </g>
     </g>
    </g>
    <g id="ytick_2">
     <g id="line2d_17">
      <path d="M 90 261.735056 
L 648 261.735056 
" clip-path="url(#p74e15e92d4)" style="fill: none; stroke: #b0b0b0; stroke-width: 0.8; stroke-linecap: square"/>
     </g>
     <g id="line2d_18">
      <g>
       <use xlink:href="#m4e9f65c3c3" x="90" y="261.735056" style="stroke: #000000; stroke-width: 0.8"/>
      </g>
     </g>
     <g id="text_10">
      <!-- 5000 -->
      <g transform="translate(57.55 265.534275) scale(0.1 -0.1)">
       <defs>
        <path id="DejaVuSans-35" d="M 691 4666 
L 3169 4666 
L 3169 4134 
L 1269 4134 
L 1269 2991 
Q 1406 3038 1543 3061 
Q 1681 3084 1819 3084 
Q 2600 3084 3056 2656 
Q 3513 2228 3513 1497 
Q 3513 744 3044 326 
Q 2575 -91 1722 -91 
Q 1428 -91 1123 -41 
Q 819 9 494 109 
L 494 744 
Q 775 591 1075 516 
Q 1375 441 1709 441 
Q 2250 441 2565 725 
Q 2881 1009 2881 1497 
Q 2881 1984 2565 2268 
Q 2250 2553 1709 2553 
Q 1456 2553 1204 2497 
Q 953 2441 691 2322 
L 691 4666 
z
" transform="scale(0.015625)"/>
       </defs>
       <use xlink:href="#DejaVuSans-35"/>
       <use xlink:href="#DejaVuSans-30" x="63.623047"/>
       <use xlink:href="#DejaVuSans-30" x="127.246094"/>
       <use xlink:href="#DejaVuSans-30" x="190.869141"/>
      </g>
     </g>
    </g>
    <g id="ytick_3">
     <g id="line2d_19">
      <path d="M 90 214.555358 
L 648 214.555358 
" clip-path="url(#p74e15e92d4)" style="fill: none; stroke: #b0b0b0; stroke-width: 0.8; stroke-linecap: square"/>
     </g>
     <g id="line2d_20">
      <g>
       <use xlink:href="#m4e9f65c3c3" x="90" y="214.555358" style="stroke: #000000; stroke-width: 0.8"/>
      </g>
     </g>
     <g id="text_11">
      <!-- 6000 -->
      <g transform="translate(57.55 218.354577) scale(0.1 -0.1)">
       <use xlink:href="#DejaVuSans-36"/>
       <use xlink:href="#DejaVuSans-30" x="63.623047"/>
       <use xlink:href="#DejaVuSans-30" x="127.246094"/>
       <use xlink:href="#DejaVuSans-30" x="190.869141"/>
      </g>
     </g>
    </g>
    <g id="ytick_4">
     <g id="line2d_21">
      <path d="M 90 167.37566 
L 648 167.37566 
" clip-path="url(#p74e15e92d4)" style="fill: none; stroke: #b0b0b0; stroke-width: 0.8; stroke-linecap: square"/>
     </g>
     <g id="line2d_22">
      <g>
       <use xlink:href="#m4e9f65c3c3" x="90" y="167.37566" style="stroke: #000000; stroke-width: 0.8"/>
      </g>
     </g>
     <g id="text_12">
      <!-- 7000 -->
      <g transform="translate(57.55 171.174879) scale(0.1 -0.1)">
       <defs>
        <path id="DejaVuSans-37" d="M 525 4666 
L 3525 4666 
L 3525 4397 
L 1831 0 
L 1172 0 
L 2766 4134 
L 525 4134 
L 525 4666 
z
" transform="scale(0.015625)"/>
       </defs>
       <use xlink:href="#DejaVuSans-37"/>
       <use xlink:href="#DejaVuSans-30" x="63.623047"/>
       <use xlink:href="#DejaVuSans-30" x="127.246094"/>
       <use xlink:href="#DejaVuSans-30" x="190.869141"/>
      </g>
     </g>
    </g>
    <g id="ytick_5">
     <g id="line2d_23">
      <path d="M 90 120.195963 
L 648 120.195963 
" clip-path="url(#p74e15e92d4)" style="fill: none; stroke: #b0b0b0; stroke-width: 0.8; stroke-linecap: square"/>
     </g>
     <g id="line2d_24">
      <g>
       <use xlink:href="#m4e9f65c3c3" x="90" y="120.195963" style="stroke: #000000; stroke-width: 0.8"/>
      </g>
     </g>
     <g id="text_13">
      <!-- 8000 -->
      <g transform="translate(57.55 123.995181) scale(0.1 -0.1)">
       <use xlink:href="#DejaVuSans-38"/>
       <use xlink:href="#DejaVuSans-30" x="63.623047"/>
       <use xlink:href="#DejaVuSans-30" x="127.246094"/>
       <use xlink:href="#DejaVuSans-30" x="190.869141"/>
      </g>
     </g>
    </g>
    <g id="ytick_6">
     <g id="line2d_25">
      <path d="M 90 73.016265 
L 648 73.016265 
" clip-path="url(#p74e15e92d4)" style="fill: none; stroke: #b0b0b0; stroke-width: 0.8; stroke-linecap: square"/>
     </g>
     <g id="line2d_26">
      <g>
       <use xlink:href="#m4e9f65c3c3" x="90" y="73.016265" style="stroke: #000000; stroke-width: 0.8"/>
      </g>
     </g>
     <g id="text_14">
      <!-- 9000 -->
      <g transform="translate(57.55 76.815484) scale(0.1 -0.1)">
       <defs>
        <path id="DejaVuSans-39" d="M 703 97 
L 703 672 
Q 941 559 1184 500 
Q 1428 441 1663 441 
Q 2288 441 2617 861 
Q 2947 1281 2994 2138 
Q 2813 1869 2534 1725 
Q 2256 1581 1919 1581 
Q 1219 1581 811 2004 
Q 403 2428 403 3163 
Q 403 3881 828 4315 
Q 1253 4750 1959 4750 
Q 2769 4750 3195 4129 
Q 3622 3509 3622 2328 
Q 3622 1225 3098 567 
Q 2575 -91 1691 -91 
Q 1453 -91 1209 -44 
Q 966 3 703 97 
z
M 1959 2075 
Q 2384 2075 2632 2365 
Q 2881 2656 2881 3163 
Q 2881 3666 2632 3958 
Q 2384 4250 1959 4250 
Q 1534 4250 1286 3958 
Q 1038 3666 1038 3163 
Q 1038 2656 1286 2365 
Q 1534 2075 1959 2075 
z
" transform="scale(0.015625)"/>
       </defs>
       <use xlink:href="#DejaVuSans-39"/>
       <use xlink:href="#DejaVuSans-30" x="63.623047"/>
       <use xlink:href="#DejaVuSans-30" x="127.246094"/>
       <use xlink:href="#DejaVuSans-30" x="190.869141"/>
      </g>
     </g>
    </g>
    <g id="text_15">
     <!-- Rewards -->
     <g transform="translate(51.470312 203.025781) rotate(-90) scale(0.1 -0.1)">
      <defs>
       <path id="DejaVuSans-52" d="M 2841 2188 
Q 3044 2119 3236 1894 
Q 3428 1669 3622 1275 
L 4263 0 
L 3584 0 
L 2988 1197 
Q 2756 1666 2539 1819 
Q 2322 1972 1947 1972 
L 1259 1972 
L 1259 0 
L 628 0 
L 628 4666 
L 2053 4666 
Q 2853 4666 3247 4331 
Q 3641 3997 3641 3322 
Q 3641 2881 3436 2590 
Q 3231 2300 2841 2188 
z
M 1259 4147 
L 1259 2491 
L 2053 2491 
Q 2509 2491 2742 2702 
Q 2975 2913 2975 3322 
Q 2975 3731 2742 3939 
Q 2509 4147 2053 4147 
L 1259 4147 
z
" transform="scale(0.015625)"/>
       <path id="DejaVuSans-77" d="M 269 3500 
L 844 3500 
L 1563 769 
L 2278 3500 
L 2956 3500 
L 3675 769 
L 4391 3500 
L 4966 3500 
L 4050 0 
L 3372 0 
L 2619 2869 
L 1863 0 
L 1184 0 
L 269 3500 
z
" transform="scale(0.015625)"/>
       <path id="DejaVuSans-61" d="M 2194 1759 
Q 1497 1759 1228 1600 
Q 959 1441 959 1056 
Q 959 750 1161 570 
Q 1363 391 1709 391 
Q 2188 391 2477 730 
Q 2766 1069 2766 1631 
L 2766 1759 
L 2194 1759 
z
M 3341 1997 
L 3341 0 
L 2766 0 
L 2766 531 
Q 2569 213 2275 61 
Q 1981 -91 1556 -91 
Q 1019 -91 701 211 
Q 384 513 384 1019 
Q 384 1609 779 1909 
Q 1175 2209 1959 2209 
L 2766 2209 
L 2766 2266 
Q 2766 2663 2505 2880 
Q 2244 3097 1772 3097 
Q 1472 3097 1187 3025 
Q 903 2953 641 2809 
L 641 3341 
Q 956 3463 1253 3523 
Q 1550 3584 1831 3584 
Q 2591 3584 2966 3190 
Q 3341 2797 3341 1997 
z
" transform="scale(0.015625)"/>
       <path id="DejaVuSans-72" d="M 2631 2963 
Q 2534 3019 2420 3045 
Q 2306 3072 2169 3072 
Q 1681 3072 1420 2755 
Q 1159 2438 1159 1844 
L 1159 0 
L 581 0 
L 581 3500 
L 1159 3500 
L 1159 2956 
Q 1341 3275 1631 3429 
Q 1922 3584 2338 3584 
Q 2397 3584 2469 3576 
Q 2541 3569 2628 3553 
L 2631 2963 
z
" transform="scale(0.015625)"/>
      </defs>
      <use xlink:href="#DejaVuSans-52"/>
      <use xlink:href="#DejaVuSans-65" x="64.982422"/>
      <use xlink:href="#DejaVuSans-77" x="126.505859"/>
      <use xlink:href="#DejaVuSans-61" x="208.292969"/>
      <use xlink:href="#DejaVuSans-72" x="269.572266"/>
      <use xlink:href="#DejaVuSans-64" x="308.935547"/>
      <use xlink:href="#DejaVuSans-73" x="372.412109"/>
     </g>
    </g>
   </g>
   <g id="line2d_27">
    <path d="M 115.363636 270.572214 
L 115.789558 285.399204 
L 116.21548 244.588065 
L 116.641401 292.052477 
L 117.067323 293.333293 
L 117.493245 279.062046 
L 117.919166 299.75794 
L 118.345088 296.00292 
L 118.77101 286.409771 
L 119.196932 300.880655 
L 119.622853 290.654238 
L 120.048775 293.161441 
L 120.474697 272.382103 
L 120.900618 291.927324 
L 121.32654 271.486676 
L 121.752462 278.579041 
L 122.178383 280.65144 
L 122.604305 276.669516 
L 123.030227 265.865086 
L 123.456148 282.62521 
L 123.88207 272.722683 
L 124.307992 287.412599 
L 124.733913 253.67814 
L 125.159835 270.245143 
L 125.585757 273.251534 
L 126.011678 270.403843 
L 126.4376 261.419759 
L 126.863522 247.691822 
L 127.289444 277.565459 
L 127.715365 277.649021 
L 128.141287 269.801921 
L 128.567209 267.92228 
L 128.99313 256.061199 
L 129.419052 297.339283 
L 129.844974 279.662187 
L 130.270895 272.46393 
L 131.122739 305.643614 
L 131.974582 247.776837 
L 132.826425 304.328644 
L 133.252347 260.260059 
L 133.678269 284.281288 
L 134.104191 282.521083 
L 134.530112 275.596114 
L 134.956034 276.16524 
L 135.381956 255.235329 
L 135.807877 291.133711 
L 136.233799 307.8 
L 136.659721 254.503904 
L 137.085642 266.554701 
L 137.511564 283.357067 
L 137.937486 291.779144 
L 138.363407 263.834342 
L 138.789329 261.911811 
L 139.215251 274.473743 
L 139.641172 248.302729 
L 140.067094 259.958052 
L 140.493016 288.996136 
L 140.918937 289.134497 
L 141.344859 290.339412 
L 141.770781 280.152774 
L 142.196703 255.543219 
L 142.622624 258.813778 
L 143.048546 276.328588 
L 143.474468 263.735602 
L 143.900389 278.560214 
L 144.326311 298.465516 
L 144.752233 254.475041 
L 145.178154 287.146631 
L 145.604076 254.534837 
L 146.029998 270.635557 
L 146.455919 249.458938 
L 146.881841 263.24091 
L 147.307763 291.339256 
L 147.733684 252.661691 
L 148.159606 266.428748 
L 148.585528 252.761131 
L 149.01145 268.778812 
L 149.437371 278.395707 
L 149.863293 282.361126 
L 150.715136 241.993722 
L 151.56698 286.707401 
L 151.992901 234.57091 
L 152.418823 254.185024 
L 152.844745 250.282697 
L 153.270666 271.830783 
L 153.696588 277.400745 
L 154.12251 255.235765 
L 154.548431 261.482593 
L 154.974353 246.092826 
L 155.400275 207.595089 
L 155.826196 249.148823 
L 156.252118 220.548647 
L 156.67804 238.070625 
L 157.103962 244.054324 
L 157.529883 247.439446 
L 157.955805 198.34455 
L 158.381727 241.516583 
L 159.23357 239.491972 
L 159.659492 214.226341 
L 160.085413 253.622612 
L 161.363178 198.682774 
L 161.7891 219.410828 
L 162.215022 191.780742 
L 162.640943 244.16865 
L 163.066865 188.825643 
L 163.492787 222.854716 
L 163.918708 188.048004 
L 164.34463 213.06785 
L 164.770552 197.838672 
L 165.196474 214.758575 
L 165.622395 191.324728 
L 166.048317 186.195663 
L 166.474239 204.670025 
L 166.90016 217.444778 
L 167.326082 179.927482 
L 167.752004 242.009547 
L 168.177925 193.743762 
L 168.603847 189.761542 
L 169.029769 218.290488 
L 169.45569 186.165115 
L 169.881612 117.005457 
L 170.307534 221.334828 
L 170.733455 207.095139 
L 171.159377 142.063949 
L 172.011221 210.616738 
L 172.437142 198.262538 
L 172.863064 160.972098 
L 173.288986 177.579267 
L 173.714907 209.384168 
L 174.140829 186.114257 
L 174.566751 186.44707 
L 174.992672 170.09616 
L 175.418594 185.761982 
L 175.844516 206.351988 
L 176.270437 178.498906 
L 176.696359 163.681982 
L 177.122281 175.20464 
L 177.548202 175.299786 
L 177.974124 201.116516 
L 178.400046 132.387688 
L 178.825967 169.530102 
L 179.251889 170.676667 
L 179.677811 160.376749 
L 180.103733 189.147617 
L 180.529654 144.466575 
L 180.955576 198.127191 
L 181.381498 110.535035 
L 181.807419 179.442851 
L 182.233341 163.785973 
L 182.659263 179.66892 
L 183.085184 137.762242 
L 183.511106 138.222342 
L 183.937028 167.497148 
L 184.362949 142.560614 
L 185.214793 209.632845 
L 185.640714 186.625469 
L 186.066636 196.876044 
L 186.492558 179.342201 
L 186.91848 179.196435 
L 187.344401 158.670613 
L 187.770323 122.756149 
L 188.196245 214.399272 
L 189.048088 164.127633 
L 189.47401 190.187929 
L 189.899931 166.15754 
L 190.325853 176.598505 
L 190.751775 166.496054 
L 191.177696 175.224003 
L 191.603618 212.107027 
L 192.02954 164.972543 
L 192.455461 195.651141 
L 192.881383 165.011171 
L 193.733226 203.777648 
L 194.159148 197.723313 
L 194.58507 120.628443 
L 195.010992 179.778712 
L 195.436913 196.360213 
L 195.862835 147.280058 
L 196.288757 198.539129 
L 196.714678 175.259585 
L 197.1406 217.726325 
L 197.566522 151.04087 
L 197.992443 194.300131 
L 198.418365 176.247901 
L 199.270208 220.974156 
L 200.122052 166.940035 
L 200.547973 178.383569 
L 200.973895 213.256835 
L 201.399817 162.583186 
L 201.825738 146.819958 
L 202.677582 201.968699 
L 203.103504 161.182539 
L 203.529425 167.494986 
L 203.955347 187.324908 
L 204.381269 153.550436 
L 204.80719 189.409366 
L 205.233112 187.94306 
L 205.659034 178.507219 
L 206.084955 196.303892 
L 206.510877 206.362211 
L 206.936799 170.789996 
L 207.788642 185.277997 
L 208.214564 189.718491 
L 208.640485 191.120809 
L 209.066407 189.907603 
L 209.492329 194.902164 
L 209.918251 191.053283 
L 210.344172 181.159897 
L 210.770094 198.104092 
L 211.196016 175.46344 
L 211.621937 187.733307 
L 212.047859 151.781493 
L 212.473781 199.567056 
L 212.899702 191.827129 
L 213.325624 203.335731 
L 213.751546 180.937366 
L 214.177467 201.587429 
L 214.603389 200.692489 
L 215.029311 169.051817 
L 215.455232 171.579863 
L 215.881154 183.262932 
L 216.307076 150.56003 
L 216.732997 190.395716 
L 217.158919 167.721153 
L 217.584841 157.049794 
L 218.010763 178.068251 
L 218.862606 170.872954 
L 219.288528 122.264989 
L 219.714449 228.090525 
L 220.140371 175.55662 
L 220.566293 194.893907 
L 220.992214 205.711229 
L 221.418136 173.37967 
L 221.844058 195.204015 
L 222.269979 169.954817 
L 222.695901 183.914798 
L 223.121823 188.356669 
L 223.547744 211.919094 
L 223.973666 156.052926 
L 224.399588 197.78042 
L 225.251431 154.526466 
L 225.677353 212.475323 
L 226.103275 183.196487 
L 226.529196 184.26265 
L 226.955118 157.479621 
L 227.38104 172.776851 
L 227.806961 148.179912 
L 228.232883 204.522006 
L 228.658805 192.91118 
L 229.084726 200.084853 
L 229.510648 182.290342 
L 229.93657 178.090661 
L 230.362491 191.699842 
L 230.788413 211.042928 
L 231.214335 198.557411 
L 231.640256 180.914464 
L 232.066178 178.196226 
L 232.4921 192.026266 
L 232.918022 174.944758 
L 233.343943 201.990422 
L 233.769865 176.441141 
L 234.195787 180.124598 
L 234.621708 180.731348 
L 235.04763 160.990675 
L 235.473552 206.129752 
L 235.899473 232.563947 
L 236.325395 166.617148 
L 236.751317 160.149893 
L 237.177238 199.773074 
L 237.60316 163.793149 
L 238.029082 194.119865 
L 238.455003 192.834907 
L 238.880925 182.832024 
L 239.732768 153.06134 
L 240.15869 193.848877 
L 240.584612 197.166691 
L 241.010534 191.339212 
L 241.436455 201.871784 
L 242.288299 162.71008 
L 242.71422 174.77904 
L 243.140142 211.034278 
L 243.566064 212.010898 
L 243.991985 187.184253 
L 244.417907 186.293638 
L 244.843829 178.552531 
L 245.26975 210.17836 
L 245.695672 199.351995 
L 246.121594 184.284766 
L 246.547515 129.399149 
L 246.973437 143.062783 
L 247.825281 194.262387 
L 248.251202 180.611335 
L 248.677124 198.44644 
L 249.103046 137.738849 
L 249.528967 164.342104 
L 249.954889 181.937183 
L 250.380811 179.151516 
L 250.806732 191.088078 
L 251.232654 210.474314 
L 251.658576 155.572283 
L 252.084497 190.412426 
L 252.510419 162.28389 
L 252.936341 165.908765 
L 253.362262 168.059176 
L 253.788184 211.799179 
L 254.214106 197.078131 
L 254.640027 176.147349 
L 255.065949 211.961556 
L 255.491871 190.370357 
L 255.917793 177.928776 
L 256.343714 180.495057 
L 256.769636 190.897983 
L 257.195558 166.801542 
L 257.621479 161.123368 
L 258.047401 169.661124 
L 258.473323 175.956665 
L 258.899244 158.752195 
L 259.325166 148.279285 
L 259.751088 172.789236 
L 260.177009 153.270405 
L 260.602931 206.121889 
L 261.028853 190.944672 
L 261.454774 182.69825 
L 261.880696 179.133333 
L 262.306618 164.086449 
L 262.73254 197.613817 
L 263.158461 168.800094 
L 263.584383 192.839133 
L 264.010305 152.070763 
L 264.436226 175.799497 
L 264.862148 186.83935 
L 265.28807 202.997315 
L 265.713991 157.928516 
L 266.139913 202.115055 
L 266.565835 180.082529 
L 266.991756 199.439278 
L 267.417678 185.550853 
L 267.8436 158.831909 
L 268.269521 156.584779 
L 268.695443 177.217247 
L 269.121365 175.0689 
L 269.547286 202.719545 
L 269.973208 209.632943 
L 270.39913 139.62122 
L 270.825052 165.231343 
L 271.250973 149.719936 
L 271.676895 215.555371 
L 272.102817 193.673624 
L 272.528738 163.095479 
L 272.95466 159.573711 
L 273.380582 160.963153 
L 273.806503 154.432205 
L 274.232425 187.267604 
L 274.658347 193.438217 
L 275.084268 169.08848 
L 275.51019 154.727766 
L 275.936112 192.04445 
L 276.362033 200.727775 
L 276.787955 179.578689 
L 277.213877 182.28533 
L 277.639798 225.222688 
L 278.06572 204.692344 
L 278.491642 212.48181 
L 278.917564 210.067586 
L 279.343485 181.515612 
L 279.769407 184.106073 
L 280.195329 192.24516 
L 280.62125 111.768686 
L 281.047172 173.646334 
L 281.473094 210.37622 
L 281.899015 179.740869 
L 282.324937 170.570414 
L 282.750859 198.926297 
L 283.17678 160.607045 
L 284.028624 203.894516 
L 284.454545 203.228299 
L 284.880467 150.545581 
L 285.306389 171.781753 
L 285.732311 161.98253 
L 286.158232 199.119635 
L 286.584154 161.687067 
L 287.010076 147.829701 
L 287.435997 194.015578 
L 287.861919 172.13963 
L 288.287841 186.235646 
L 288.713762 192.298139 
L 289.139684 154.597826 
L 289.565606 189.279916 
L 289.991527 175.756151 
L 290.417449 168.960898 
L 290.843371 192.880808 
L 291.269292 140.066184 
L 291.695214 170.337563 
L 292.121136 172.312623 
L 292.547057 190.574114 
L 292.972979 165.380647 
L 293.398901 179.062465 
L 293.824823 179.097358 
L 294.250744 207.7489 
L 294.676666 225.06385 
L 295.102588 205.567921 
L 295.528509 210.244608 
L 295.954431 132.583091 
L 296.380353 189.501563 
L 296.806274 178.172833 
L 297.232196 181.214645 
L 297.658118 209.008598 
L 298.084039 189.982501 
L 298.509961 148.954249 
L 298.935883 168.842458 
L 299.361804 205.651566 
L 300.213648 186.04044 
L 300.639569 215.9563 
L 301.065491 189.914385 
L 301.491413 151.247379 
L 301.917335 155.95552 
L 302.343256 209.890269 
L 302.769178 188.620187 
L 303.1951 195.961446 
L 303.621021 172.892933 
L 304.046943 179.233295 
L 304.472865 170.387396 
L 304.898786 207.240343 
L 305.324708 184.824187 
L 305.75063 168.506597 
L 306.176551 199.924639 
L 306.602473 198.819356 
L 307.028395 171.070421 
L 307.454316 170.832949 
L 307.880238 231.962603 
L 308.30616 168.934065 
L 308.732082 189.826513 
L 309.158003 199.357598 
L 309.583925 149.430961 
L 310.009847 164.851547 
L 310.435768 221.845211 
L 310.86169 195.555602 
L 311.287612 200.638527 
L 311.713533 176.535599 
L 312.139455 137.109786 
L 312.565377 189.255835 
L 312.991298 222.093789 
L 313.41722 172.180449 
L 313.843142 192.393187 
L 314.269063 171.537696 
L 314.694985 160.979568 
L 315.120907 193.373738 
L 315.546828 198.86801 
L 315.97275 194.685165 
L 316.398672 149.184952 
L 317.676437 218.800352 
L 318.102359 166.531228 
L 318.52828 194.152793 
L 318.954202 187.490963 
L 319.380124 191.806333 
L 319.806045 203.878887 
L 320.657889 179.417492 
L 321.08381 168.191869 
L 321.509732 194.536914 
L 322.361575 156.9804 
L 322.787497 186.726119 
L 323.213419 189.675243 
L 323.639341 202.33416 
L 324.065262 211.525734 
L 324.491184 188.400815 
L 324.917106 183.734336 
L 325.343027 190.005037 
L 325.768949 185.108248 
L 326.194871 168.448016 
L 326.620792 171.401563 
L 327.046714 191.864184 
L 327.472636 187.938735 
L 327.898557 214.290267 
L 328.324479 223.014776 
L 328.750401 194.414738 
L 329.176322 156.059118 
L 329.602244 170.921608 
L 330.028166 194.021378 
L 330.454087 200.728267 
L 330.880009 196.036147 
L 331.305931 226.98485 
L 332.157774 162.714798 
L 332.583696 168.880594 
L 333.009618 179.358222 
L 333.435539 151.576556 
L 333.861461 194.50094 
L 334.287383 214.594675 
L 334.713304 206.730605 
L 335.139226 168.614717 
L 335.565148 169.086416 
L 335.991069 173.117725 
L 336.416991 198.938878 
L 336.842913 155.81231 
L 337.268834 146.694735 
L 337.694756 175.072733 
L 338.120678 191.622192 
L 338.546599 233.110544 
L 338.972521 188.588635 
L 339.398443 186.82785 
L 339.824365 141.214321 
L 340.250286 183.329475 
L 340.676208 202.270453 
L 341.10213 196.224375 
L 341.528051 176.894164 
L 341.953973 122.563401 
L 342.379895 173.820014 
L 342.805816 211.026907 
L 343.65766 159.5916 
L 344.083581 175.414589 
L 344.509503 184.724127 
L 344.935425 170.851723 
L 345.361346 189.869171 
L 345.787268 179.544287 
L 346.21319 155.739771 
L 347.065033 208.764247 
L 347.490955 189.2866 
L 347.916877 135.869845 
L 348.342798 160.669066 
L 348.76872 172.162729 
L 349.194642 209.910812 
L 349.620563 187.835136 
L 350.046485 214.935941 
L 350.472407 173.63562 
L 350.898328 169.268844 
L 351.32425 192.133502 
L 351.750172 169.538948 
L 352.176093 190.051403 
L 352.602015 200.929861 
L 353.027937 179.490129 
L 353.453858 173.957032 
L 353.87978 198.856707 
L 354.305702 194.696244 
L 354.731624 193.988745 
L 355.157545 177.111289 
L 355.583467 186.238398 
L 356.009389 218.477072 
L 356.43531 170.998177 
L 356.861232 169.410383 
L 357.287154 190.063787 
L 357.713075 169.719509 
L 358.138997 193.760415 
L 358.564919 162.071778 
L 358.99084 199.232572 
L 359.842684 166.393045 
L 360.268605 201.476655 
L 360.694527 216.826667 
L 361.120449 171.63756 
L 361.546371 178.08093 
L 361.972292 158.115564 
L 362.398214 195.106118 
L 362.824136 156.257273 
L 363.250057 217.597269 
L 363.675979 163.425245 
L 364.101901 186.391536 
L 364.527822 170.061856 
L 364.953744 211.145249 
L 365.379666 178.404406 
L 365.805587 189.002736 
L 366.231509 182.630036 
L 366.657431 224.011251 
L 367.083352 201.608856 
L 367.509274 228.9087 
L 367.935196 148.955822 
L 368.361117 166.938658 
L 368.787039 169.343447 
L 369.212961 177.626629 
L 369.638883 231.234659 
L 370.064804 173.893831 
L 370.490726 170.102844 
L 370.916648 181.790434 
L 371.342569 172.989258 
L 371.768491 205.393356 
L 372.194413 166.665311 
L 372.620334 176.929549 
L 373.046256 182.517886 
L 373.472178 172.824522 
L 373.898099 183.713695 
L 374.324021 158.834268 
L 374.749943 182.562215 
L 375.175864 171.226015 
L 375.601786 189.55002 
L 376.027708 166.719764 
L 376.453629 175.513962 
L 376.879551 204.798597 
L 377.305473 157.797002 
L 377.731395 184.868713 
L 378.157316 184.535801 
L 378.583238 194.795714 
L 379.00916 173.157631 
L 379.861003 219.543628 
L 380.286925 176.763929 
L 380.712846 160.020247 
L 381.138768 187.293749 
L 381.56469 170.754022 
L 381.990611 181.507651 
L 382.416533 161.213992 
L 382.842455 233.546661 
L 383.268376 167.770594 
L 383.694298 217.080062 
L 384.12022 179.373359 
L 384.546142 174.117836 
L 384.972063 160.573233 
L 385.823907 179.269564 
L 386.249828 181.83496 
L 386.67575 153.855532 
L 387.101672 147.289789 
L 387.527593 192.280447 
L 387.953515 207.618567 
L 388.379437 181.106427 
L 388.805358 164.057158 
L 389.23128 165.801726 
L 389.657202 190.887466 
L 390.083123 195.808112 
L 390.509045 186.236039 
L 390.934967 173.369743 
L 391.78681 202.371496 
L 392.212732 147.914723 
L 392.638654 164.147095 
L 393.064575 158.982589 
L 393.490497 210.170497 
L 393.916419 222.525385 
L 394.34234 168.907231 
L 394.768262 193.828334 
L 395.194184 179.58783 
L 395.620105 160.108021 
L 396.046027 153.392679 
L 396.471949 215.580632 
L 396.89787 182.756438 
L 397.323792 179.678356 
L 397.749714 189.876445 
L 398.175635 213.841077 
L 398.601557 229.633596 
L 399.027479 177.048088 
L 399.453401 192.240737 
L 399.879322 193.965942 
L 400.305244 189.733038 
L 400.731166 189.343019 
L 401.157087 174.442 
L 401.583009 187.67905 
L 402.008931 169.351212 
L 402.434852 169.54288 
L 402.860774 172.447871 
L 403.286696 159.986632 
L 403.712617 184.539438 
L 404.138539 182.282184 
L 404.564461 173.687714 
L 404.990382 136.192239 
L 405.416304 156.446778 
L 405.842226 203.217291 
L 406.268147 229.19571 
L 406.694069 167.858761 
L 407.119991 194.681697 
L 407.545913 198.675262 
L 407.971834 168.068022 
L 408.397756 163.880923 
L 408.823678 171.888693 
L 409.249599 165.298279 
L 409.675521 129.192246 
L 410.101443 176.637821 
L 410.527364 172.77233 
L 410.953286 201.522458 
L 411.805129 186.893607 
L 412.231051 160.948311 
L 412.656973 217.416217 
L 413.082894 189.434725 
L 413.508816 187.946598 
L 413.934738 181.320898 
L 414.360659 156.502902 
L 414.786581 145.370951 
L 415.212503 156.491009 
L 415.638425 171.502213 
L 416.064346 161.599784 
L 416.490268 154.608539 
L 416.91619 126.939219 
L 417.342111 197.68036 
L 417.768033 170.333827 
L 418.193955 207.139594 
L 418.619876 233.166668 
L 419.045798 184.021936 
L 419.897641 144.432567 
L 420.323563 166.698828 
L 420.749485 172.767317 
L 421.175406 191.687948 
L 421.601328 172.501931 
L 422.453172 202.468411 
L 422.879093 208.955128 
L 423.305015 190.514255 
L 423.730937 204.178675 
L 424.156858 203.25356 
L 424.58278 209.309959 
L 425.008702 175.167781 
L 425.860545 191.920014 
L 426.286467 171.171169 
L 426.712388 164.427028 
L 427.13831 165.392442 
L 427.990153 119.430374 
L 428.416075 188.290519 
L 428.841997 171.590675 
L 429.267918 133.90481 
L 429.69384 207.806892 
L 430.119762 185.625947 
L 430.545684 190.512388 
L 430.971605 182.166496 
L 431.397527 179.384663 
L 431.823449 190.341165 
L 432.24937 130.068806 
L 433.101214 186.070812 
L 433.527135 195.319213 
L 433.953057 191.4607 
L 434.378979 196.489269 
L 434.8049 207.588096 
L 435.230822 162.93035 
L 435.656744 185.436835 
L 436.082665 189.143882 
L 436.508587 164.753256 
L 436.934509 200.240743 
L 437.360431 186.460733 
L 437.786352 165.938744 
L 438.212274 207.674592 
L 439.064117 162.09694 
L 439.490039 185.284484 
L 439.915961 153.55309 
L 440.341882 164.272809 
L 440.767804 160.043346 
L 441.193726 174.949181 
L 441.619647 180.187897 
L 442.045569 194.835621 
L 442.471491 169.485772 
L 442.897412 162.881696 
L 443.323334 195.667556 
L 443.749256 170.000621 
L 444.175177 153.045515 
L 444.601099 184.516733 
L 445.027021 179.136773 
L 445.452943 182.659818 
L 445.878864 183.405946 
L 446.304786 184.614434 
L 446.730708 170.889467 
L 447.156629 197.523487 
L 447.582551 187.020205 
L 448.008473 160.69649 
L 448.434394 193.817817 
L 448.860316 204.227526 
L 449.286238 154.425227 
L 450.138081 219.166879 
L 450.564003 169.481251 
L 450.989924 174.461363 
L 451.415846 170.309943 
L 451.841768 186.017932 
L 452.267689 195.418192 
L 452.693611 185.157492 
L 453.119533 160.138393 
L 453.545455 198.29114 
L 453.971376 181.069764 
L 454.397298 190.261844 
L 454.82322 177.446167 
L 455.249141 180.435394 
L 455.675063 220.640261 
L 456.100985 180.164897 
L 456.526906 198.431795 
L 456.952828 140.325181 
L 457.37875 193.510657 
L 457.804671 206.93279 
L 458.230593 208.132629 
L 458.656515 185.654943 
L 459.082436 173.313422 
L 459.508358 209.238206 
L 459.93428 186.109146 
L 460.360202 152.761946 
L 460.786123 187.042223 
L 461.212045 191.739748 
L 461.637967 184.89014 
L 462.063888 190.206309 
L 462.48981 211.654593 
L 462.915732 197.700509 
L 463.341653 162.238873 
L 463.767575 221.552992 
L 464.193497 164.732713 
L 464.619418 155.806314 
L 465.04534 192.652282 
L 465.471262 178.142362 
L 465.897183 145.24504 
L 466.323105 202.650151 
L 466.749027 164.929885 
L 467.174948 238.024899 
L 467.60087 192.627316 
L 468.026792 182.961474 
L 468.452714 197.147721 
L 468.878635 172.162237 
L 469.304557 165.597379 
L 469.730479 208.070312 
L 470.1564 183.799994 
L 470.582322 191.217134 
L 471.008244 144.358947 
L 471.434165 193.723949 
L 471.860087 178.761399 
L 472.286009 204.145649 
L 473.137852 155.483231 
L 473.563774 155.76169 
L 473.989695 155.69033 
L 474.415617 200.464355 
L 474.841539 190.911253 
L 475.26746 173.292191 
L 475.693382 183.329475 
L 476.119304 189.666593 
L 476.545226 173.294943 
L 476.971147 167.351972 
L 477.397069 226.536348 
L 477.822991 158.43383 
L 478.248912 188.485626 
L 478.674834 162.97753 
L 479.100756 186.382198 
L 479.526677 178.437039 
L 479.952599 176.145187 
L 480.378521 185.053205 
L 480.804442 179.119768 
L 481.230364 184.249873 
L 481.656286 177.700151 
L 482.082207 161.614036 
L 482.508129 164.235164 
L 482.934051 187.081048 
L 483.359973 186.24174 
L 483.785894 155.075913 
L 484.211816 171.220216 
L 484.637738 161.25665 
L 485.063659 135.67169 
L 485.489581 170.32734 
L 485.915503 151.275687 
L 486.341424 155.779382 
L 486.767346 170.85192 
L 487.619189 208.460233 
L 488.045111 154.155418 
L 488.471033 208.940384 
L 488.896954 186.528062 
L 489.322876 143.737649 
L 489.748798 186.64267 
L 490.174719 158.137974 
L 490.600641 178.603151 
L 491.026563 157.417009 
L 491.452485 188.013436 
L 491.878406 150.126468 
L 492.304328 170.16231 
L 492.73025 180.38674 
L 493.156171 175.645573 
L 493.582093 209.366869 
L 494.008015 179.486689 
L 494.433936 211.022877 
L 494.859858 202.178158 
L 495.28578 199.095751 
L 495.711701 153.952447 
L 496.137623 157.184846 
L 496.563545 197.93228 
L 496.989466 180.320295 
L 497.415388 200.699271 
L 497.84131 193.432516 
L 498.267232 167.563003 
L 499.119075 196.111733 
L 499.544997 191.633888 
L 499.970918 200.173512 
L 500.39684 186.713931 
L 500.822762 191.294686 
L 501.248683 175.978289 
L 501.674605 149.01342 
L 502.100527 174.157054 
L 502.526448 190.373601 
L 502.95237 156.070913 
L 503.378292 140.402143 
L 503.804213 221.829485 
L 504.230135 184.875397 
L 504.656057 177.436141 
L 505.081978 219.321982 
L 505.5079 131.621018 
L 505.933822 207.883363 
L 506.785665 143.382622 
L 507.211587 185.120338 
L 507.637509 124.807287 
L 508.06343 195.660086 
L 508.489352 174.535278 
L 508.915274 170.706449 
L 509.341195 177.570997 
L 509.767117 211.984949 
L 510.193039 197.330444 
L 510.61896 177.041699 
L 511.044882 188.126078 
L 511.470804 180.33327 
L 511.896725 141.246069 
L 512.322647 198.365841 
L 512.748569 149.932245 
L 513.17449 168.271976 
L 513.600412 205.023781 
L 514.026334 153.424526 
L 514.452256 154.872746 
L 514.878177 193.495422 
L 515.730021 181.538711 
L 516.155942 168.40408 
L 516.581864 189.043625 
L 517.007786 172.477064 
L 517.433707 207.765217 
L 517.859629 168.957851 
L 518.285551 190.120894 
L 518.711472 160.95814 
L 519.137394 169.349541 
L 519.563316 162.102051 
L 519.989237 198.854643 
L 520.415159 192.088288 
L 520.841081 209.69467 
L 521.267003 179.690741 
L 521.692924 216.51479 
L 522.118846 178.688172 
L 522.544768 167.386178 
L 522.970689 195.813125 
L 523.396611 173.144067 
L 523.822533 165.116932 
L 524.248454 187.454947 
L 524.674376 173.679851 
L 525.100298 210.610742 
L 525.526219 201.357133 
L 525.952141 180.306436 
L 526.378063 167.234023 
L 526.803984 158.368073 
L 527.229906 163.979803 
L 527.655828 190.528606 
L 528.081749 171.620555 
L 528.507671 216.461811 
L 528.933593 210.524738 
L 530.211358 166.099744 
L 530.63728 208.103043 
L 531.063201 144.662764 
L 531.489123 191.154621 
L 531.915045 171.385345 
L 532.340966 165.83888 
L 532.766888 178.450996 
L 533.19281 210.086458 
L 533.618731 184.526857 
L 534.044653 219.430987 
L 534.470575 180.937759 
L 534.896496 166.937086 
L 535.322418 159.782678 
L 535.74834 160.64872 
L 536.174262 207.831367 
L 536.600183 179.590582 
L 537.026105 223.76975 
L 537.452027 196.873292 
L 537.877948 242.457628 
L 538.30387 184.862422 
L 538.729792 149.74903 
L 539.155713 190.170138 
L 539.581635 214.52705 
L 540.007557 154.267764 
L 540.433478 164.201155 
L 540.8594 153.05505 
L 541.285322 199.745848 
L 541.711243 173.130601 
L 542.137165 187.747657 
L 542.563087 184.435643 
L 542.989008 216.240755 
L 543.41493 158.191936 
L 543.840852 200.107264 
L 544.266774 178.825288 
L 544.692695 197.869865 
L 545.118617 183.718315 
L 545.544539 195.075647 
L 545.97046 189.234801 
L 546.396382 131.805314 
L 546.822304 214.925129 
L 547.248225 187.028462 
L 547.674147 184.613451 
L 548.100069 191.042176 
L 548.52599 172.790022 
L 548.951912 225.425462 
L 549.377834 199.052601 
L 549.803755 184.26727 
L 550.229677 160.183804 
L 550.655599 202.126457 
L 551.08152 190.50649 
L 551.507442 168.516918 
L 551.933364 179.334731 
L 552.359286 167.028202 
L 552.785207 187.046842 
L 553.211129 187.978248 
L 553.637051 154.749194 
L 554.488894 189.75938 
L 554.914816 177.705066 
L 555.340737 192.437024 
L 555.766659 175.072045 
L 556.192581 165.977667 
L 556.618502 173.674543 
L 557.470346 176.279944 
L 557.896267 190.581388 
L 558.322189 200.586924 
L 558.748111 165.662939 
L 559.174033 193.792851 
L 559.599954 177.647762 
L 560.025876 182.143987 
L 560.451798 169.218519 
L 560.877719 134.50871 
L 561.303641 197.930314 
L 561.729563 157.311936 
L 562.581406 195.74039 
L 563.007328 205.792123 
L 563.433249 191.819265 
L 563.859171 188.420361 
L 564.285093 197.036259 
L 564.711014 178.143542 
L 565.136936 195.350862 
L 565.562858 175.826373 
L 565.988779 199.099977 
L 566.414701 186.818807 
L 566.840623 148.829813 
L 567.266545 186.959855 
L 567.692466 184.319533 
L 568.118388 208.758392 
L 568.54431 155.406957 
L 568.970231 201.149837 
L 569.396153 177.695728 
L 569.822075 183.292321 
L 570.247996 168.090236 
L 570.673918 179.84781 
L 571.09984 141.682777 
L 571.525761 174.613911 
L 571.951683 134.553405 
L 572.377605 191.372533 
L 572.803526 153.338423 
L 573.229448 180.955845 
L 573.65537 166.952812 
L 574.081292 196.507256 
L 574.507213 202.733179 
L 574.933135 186.92982 
L 575.359057 184.817082 
L 575.784978 194.768586 
L 576.2109 215.10927 
L 576.636822 151.742766 
L 577.062743 153.911558 
L 577.488665 203.326 
L 577.914587 195.454264 
L 578.340508 128.611585 
L 578.76643 146.434755 
L 579.618273 194.777573 
L 580.044195 148.650446 
L 580.470117 208.614479 
L 580.896038 201.511309 
L 581.32196 202.156702 
L 581.747882 143.794896 
L 582.173804 162.450985 
L 582.599725 165.160602 
L 583.025647 135.639507 
L 583.451569 187.014013 
L 583.87749 148.57097 
L 584.303412 133.237667 
L 584.729334 181.890382 
L 585.155255 171.865609 
L 585.581177 192.372714 
L 586.007099 177.860295 
L 586.858942 141.581635 
L 587.284864 157.422303 
L 587.710785 158.79446 
L 588.136707 153.824668 
L 588.562629 181.675265 
L 588.98855 195.294991 
L 589.414472 154.870429 
L 589.840394 128.900912 
L 590.266316 190.205804 
L 590.692237 155.426911 
L 591.118159 198.295746 
L 591.544081 149.737193 
L 591.970002 176.227246 
L 592.395924 148.30866 
L 592.821846 150.16167 
L 593.247767 187.034359 
L 593.673689 148.110758 
L 594.099611 192.780566 
L 594.525532 174.832692 
L 594.951454 166.445883 
L 595.377376 199.652584 
L 595.803297 163.265242 
L 596.229219 147.369685 
L 596.655141 173.436777 
L 597.506984 191.121357 
L 597.932906 181.746203 
L 598.358828 190.739145 
L 598.784749 153.525372 
L 599.210671 201.393304 
L 599.636593 187.889098 
L 600.062514 179.135102 
L 600.488436 193.548794 
L 600.914358 157.621749 
L 601.340279 152.747202 
L 601.766201 157.614574 
L 602.192123 212.152634 
L 602.618044 174.693428 
L 603.043966 160.228821 
L 603.469888 179.06561 
L 603.895809 175.009434 
L 604.321731 181.425676 
L 604.747653 169.552315 
L 605.173575 176.676253 
L 605.599496 221.420889 
L 606.025418 161.220774 
L 606.45134 175.918626 
L 606.877261 177.567458 
L 607.303183 155.060187 
L 608.155026 206.132996 
L 608.580948 163.606003 
L 609.00687 177.861053 
L 609.858713 161.750956 
L 610.284635 208.856051 
L 610.710556 178.746262 
L 611.136478 184.839619 
L 611.5624 170.662709 
L 611.988322 205.923046 
L 612.414243 191.592438 
L 612.840165 170.771251 
L 613.266087 202.524063 
L 613.692008 189.603982 
L 614.11793 224.409821 
L 614.543852 179.336893 
L 614.969773 165.641217 
L 615.395695 121.22566 
L 615.821617 200.509962 
L 616.247538 205.147202 
L 616.67346 200.624766 
L 617.099382 106.750142 
L 617.525303 178.413351 
L 617.951225 55.8 
L 618.377147 227.566733 
L 618.803068 111.123307 
L 619.22899 227.616271 
L 619.654912 153.648727 
L 620.080834 168.239049 
L 620.506755 163.458959 
L 621.358599 229.900555 
L 621.78452 228.652652 
L 622.636364 175.993819 
L 622.636364 175.993819 
" clip-path="url(#p74e15e92d4)" style="fill: none; stroke: #1f77b4; stroke-width: 1.5; stroke-linecap: square"/>
   </g>
   <g id="patch_3">
    <path d="M 90 320.4 
L 90 43.2 
" style="fill: none; stroke: #000000; stroke-width: 0.8; stroke-linejoin: miter; stroke-linecap: square"/>
   </g>
   <g id="patch_4">
    <path d="M 648 320.4 
L 648 43.2 
" style="fill: none; stroke: #000000; stroke-width: 0.8; stroke-linejoin: miter; stroke-linecap: square"/>
   </g>
   <g id="patch_5">
    <path d="M 90 320.4 
L 648 320.4 
" style="fill: none; stroke: #000000; stroke-width: 0.8; stroke-linejoin: miter; stroke-linecap: square"/>
   </g>
   <g id="patch_6">
    <path d="M 90 43.2 
L 648 43.2 
" style="fill: none; stroke: #000000; stroke-width: 0.8; stroke-linejoin: miter; stroke-linecap: square"/>
   </g>
   <g id="text_16">
    <!-- Model Training -->
    <g transform="translate(325.40625 37.2) scale(0.12 -0.12)">
     <defs>
      <path id="DejaVuSans-4d" d="M 628 4666 
L 1569 4666 
L 2759 1491 
L 3956 4666 
L 4897 4666 
L 4897 0 
L 4281 0 
L 4281 4097 
L 3078 897 
L 2444 897 
L 1241 4097 
L 1241 0 
L 628 0 
L 628 4666 
z
" transform="scale(0.015625)"/>
      <path id="DejaVuSans-6c" d="M 603 4863 
L 1178 4863 
L 1178 0 
L 603 0 
L 603 4863 
z
" transform="scale(0.015625)"/>
      <path id="DejaVuSans-20" transform="scale(0.015625)"/>
      <path id="DejaVuSans-54" d="M -19 4666 
L 3928 4666 
L 3928 4134 
L 2272 4134 
L 2272 0 
L 1638 0 
L 1638 4134 
L -19 4134 
L -19 4666 
z
" transform="scale(0.015625)"/>
      <path id="DejaVuSans-6e" d="M 3513 2113 
L 3513 0 
L 2938 0 
L 2938 2094 
Q 2938 2591 2744 2837 
Q 2550 3084 2163 3084 
Q 1697 3084 1428 2787 
Q 1159 2491 1159 1978 
L 1159 0 
L 581 0 
L 581 3500 
L 1159 3500 
L 1159 2956 
Q 1366 3272 1645 3428 
Q 1925 3584 2291 3584 
Q 2894 3584 3203 3211 
Q 3513 2838 3513 2113 
z
" transform="scale(0.015625)"/>
      <path id="DejaVuSans-67" d="M 2906 1791 
Q 2906 2416 2648 2759 
Q 2391 3103 1925 3103 
Q 1463 3103 1205 2759 
Q 947 2416 947 1791 
Q 947 1169 1205 825 
Q 1463 481 1925 481 
Q 2391 481 2648 825 
Q 2906 1169 2906 1791 
z
M 3481 434 
Q 3481 -459 3084 -895 
Q 2688 -1331 1869 -1331 
Q 1566 -1331 1297 -1286 
Q 1028 -1241 775 -1147 
L 775 -588 
Q 1028 -725 1275 -790 
Q 1522 -856 1778 -856 
Q 2344 -856 2625 -561 
Q 2906 -266 2906 331 
L 2906 616 
Q 2728 306 2450 153 
Q 2172 0 1784 0 
Q 1141 0 747 490 
Q 353 981 353 1791 
Q 353 2603 747 3093 
Q 1141 3584 1784 3584 
Q 2172 3584 2450 3431 
Q 2728 3278 2906 2969 
L 2906 3500 
L 3481 3500 
L 3481 434 
z
" transform="scale(0.015625)"/>
     </defs>
     <use xlink:href="#DejaVuSans-4d"/>
     <use xlink:href="#DejaVuSans-6f" x="86.279297"/>
     <use xlink:href="#DejaVuSans-64" x="147.460938"/>
     <use xlink:href="#DejaVuSans-65" x="210.9375"/>
     <use xlink:href="#DejaVuSans-6c" x="272.460938"/>
     <use xlink:href="#DejaVuSans-20" x="300.244141"/>
     <use xlink:href="#DejaVuSans-54" x="332.03125"/>
     <use xlink:href="#DejaVuSans-72" x="378.365234"/>
     <use xlink:href="#DejaVuSans-61" x="419.478516"/>
     <use xlink:href="#DejaVuSans-69" x="480.757812"/>
     <use xlink:href="#DejaVuSans-6e" x="508.541016"/>
     <use xlink:href="#DejaVuSans-69" x="571.919922"/>
     <use xlink:href="#DejaVuSans-6e" x="599.703125"/>
     <use xlink:href="#DejaVuSans-67" x="663.082031"/>
    </g>
   </g>
   <g id="legend_1">
    <g id="patch_7">
     <path d="M 97 65.878125 
L 206.426562 65.878125 
Q 208.426562 65.878125 208.426562 63.878125 
L 208.426562 50.2 
Q 208.426562 48.2 206.426562 48.2 
L 97 48.2 
Q 95 48.2 95 50.2 
L 95 63.878125 
Q 95 65.878125 97 65.878125 
z
" style="fill: #ffffff; opacity: 0.8; stroke: #cccccc; stroke-linejoin: miter"/>
    </g>
    <g id="line2d_28">
     <path d="M 99 56.298437 
L 109 56.298437 
L 119 56.298437 
" style="fill: none; stroke: #1f77b4; stroke-width: 1.5; stroke-linecap: square"/>
    </g>
    <g id="text_17">
     <!-- Average Return -->
     <g transform="translate(127 59.798437) scale(0.1 -0.1)">
      <defs>
       <path id="DejaVuSans-41" d="M 2188 4044 
L 1331 1722 
L 3047 1722 
L 2188 4044 
z
M 1831 4666 
L 2547 4666 
L 4325 0 
L 3669 0 
L 3244 1197 
L 1141 1197 
L 716 0 
L 50 0 
L 1831 4666 
z
" transform="scale(0.015625)"/>
       <path id="DejaVuSans-76" d="M 191 3500 
L 800 3500 
L 1894 563 
L 2988 3500 
L 3597 3500 
L 2284 0 
L 1503 0 
L 191 3500 
z
" transform="scale(0.015625)"/>
       <path id="DejaVuSans-74" d="M 1172 4494 
L 1172 3500 
L 2356 3500 
L 2356 3053 
L 1172 3053 
L 1172 1153 
Q 1172 725 1289 603 
Q 1406 481 1766 481 
L 2356 481 
L 2356 0 
L 1766 0 
Q 1100 0 847 248 
Q 594 497 594 1153 
L 594 3053 
L 172 3053 
L 172 3500 
L 594 3500 
L 594 4494 
L 1172 4494 
z
" transform="scale(0.015625)"/>
       <path id="DejaVuSans-75" d="M 544 1381 
L 544 3500 
L 1119 3500 
L 1119 1403 
Q 1119 906 1312 657 
Q 1506 409 1894 409 
Q 2359 409 2629 706 
Q 2900 1003 2900 1516 
L 2900 3500 
L 3475 3500 
L 3475 0 
L 2900 0 
L 2900 538 
Q 2691 219 2414 64 
Q 2138 -91 1772 -91 
Q 1169 -91 856 284 
Q 544 659 544 1381 
z
M 1991 3584 
L 1991 3584 
z
" transform="scale(0.015625)"/>
      </defs>
      <use xlink:href="#DejaVuSans-41"/>
      <use xlink:href="#DejaVuSans-76" x="62.533203"/>
      <use xlink:href="#DejaVuSans-65" x="121.712891"/>
      <use xlink:href="#DejaVuSans-72" x="183.236328"/>
      <use xlink:href="#DejaVuSans-61" x="224.349609"/>
      <use xlink:href="#DejaVuSans-67" x="285.628906"/>
      <use xlink:href="#DejaVuSans-65" x="349.105469"/>
      <use xlink:href="#DejaVuSans-20" x="410.628906"/>
      <use xlink:href="#DejaVuSans-52" x="442.416016"/>
      <use xlink:href="#DejaVuSans-65" x="507.398438"/>
      <use xlink:href="#DejaVuSans-74" x="568.921875"/>
      <use xlink:href="#DejaVuSans-75" x="608.130859"/>
      <use xlink:href="#DejaVuSans-72" x="671.509766"/>
      <use xlink:href="#DejaVuSans-6e" x="710.873047"/>
     </g>
    </g>
   </g>
  </g>
 </g>
 <defs>
  <clipPath id="p74e15e92d4">
   <rect x="90" y="43.2" width="558" height="277.2"/>
  </clipPath>
 </defs>
</svg>
